G75*
G70*
%OFA0B0*%
%FSLAX24Y24*%
%IPPOS*%
%LPD*%
%AMOC8*
5,1,8,0,0,1.08239X$1,22.5*
%
%ADD10C,0.0600*%
%ADD11C,0.0238*%
%ADD12C,0.0160*%
D10*
X001390Y017941D03*
X002390Y017941D03*
X003390Y017941D03*
D11*
X005539Y016642D03*
X006524Y017665D03*
X008295Y017035D03*
X010028Y018335D03*
X011996Y018335D03*
X013335Y016839D03*
X015303Y016839D03*
X017980Y017902D03*
X019083Y017941D03*
X010776Y013728D03*
X008807Y011957D03*
X008413Y011681D03*
X007469Y011957D03*
X006996Y012350D03*
X007744Y013020D03*
X006169Y014240D03*
X006130Y014713D03*
X006130Y015106D03*
X004831Y014004D03*
X001799Y012154D03*
X001248Y012429D03*
X002980Y011248D03*
X004240Y011760D03*
X001720Y009752D03*
X001839Y009201D03*
X001248Y009201D03*
X001563Y008650D03*
X001248Y008453D03*
X003925Y008925D03*
X005657Y008217D03*
X005657Y007626D03*
X005657Y007075D03*
X006799Y006642D03*
X007350Y007232D03*
X008020Y007862D03*
X008020Y008256D03*
X006799Y009083D03*
X008571Y009949D03*
X008295Y010618D03*
X007469Y010618D03*
X007154Y010382D03*
X009634Y010382D03*
X011051Y010106D03*
X011602Y010500D03*
X011602Y009437D03*
X010972Y008807D03*
X009909Y008610D03*
X010972Y007783D03*
X011681Y007232D03*
X011957Y008059D03*
X012390Y008059D03*
X009909Y006996D03*
X010106Y006248D03*
X011366Y005303D03*
X010579Y004752D03*
X011327Y003728D03*
X008098Y003728D03*
X007705Y003650D03*
X007665Y004004D03*
X005854Y004673D03*
X005697Y004122D03*
X004949Y003768D03*
X006012Y005224D03*
X005343Y005461D03*
X004437Y005500D03*
X003335Y005461D03*
X002705Y005736D03*
X002272Y006799D03*
X003768Y007350D03*
X007272Y005303D03*
X007862Y005303D03*
X008059Y006366D03*
X013531Y005815D03*
X015264Y005421D03*
X015776Y004752D03*
X015106Y004476D03*
X016327Y003492D03*
X019713Y008453D03*
X010303Y011720D03*
X001484Y004280D03*
D12*
X000662Y000701D02*
X019787Y000701D01*
X019787Y002110D01*
X017649Y002110D01*
X017546Y002152D01*
X017467Y002231D01*
X017425Y002334D01*
X017425Y005989D01*
X017467Y006092D01*
X017546Y006170D01*
X017649Y006213D01*
X019787Y006213D01*
X019787Y018645D01*
X000662Y018645D01*
X000662Y014678D01*
X001422Y014678D01*
X001525Y014635D01*
X001604Y014556D01*
X001646Y014453D01*
X001646Y012767D01*
X001604Y012664D01*
X001525Y012585D01*
X001510Y012579D01*
X001547Y012489D01*
X001547Y012370D01*
X001502Y012260D01*
X001417Y012176D01*
X001308Y012130D01*
X001189Y012130D01*
X001079Y012176D01*
X000995Y012260D01*
X000949Y012370D01*
X000949Y012489D01*
X000971Y012543D01*
X000662Y012543D01*
X000662Y006804D01*
X001422Y006804D01*
X001525Y006761D01*
X001604Y006682D01*
X001646Y006579D01*
X001646Y004893D01*
X001604Y004790D01*
X001525Y004711D01*
X001422Y004669D01*
X000662Y004669D01*
X000662Y000701D01*
X000662Y000738D02*
X019787Y000738D01*
X019787Y000897D02*
X019357Y000897D01*
X019398Y000914D02*
X019496Y001011D01*
X019549Y001139D01*
X019549Y001278D01*
X019496Y001406D01*
X019398Y001504D01*
X019270Y001557D01*
X019132Y001557D01*
X019004Y001504D01*
X018906Y001406D01*
X018853Y001278D01*
X018853Y001139D01*
X018906Y001011D01*
X019004Y000914D01*
X019132Y000861D01*
X019270Y000861D01*
X019398Y000914D01*
X019514Y001055D02*
X019787Y001055D01*
X019787Y001214D02*
X019549Y001214D01*
X019510Y001372D02*
X019787Y001372D01*
X019787Y001531D02*
X019333Y001531D01*
X019069Y001531D02*
X017758Y001531D01*
X017695Y001557D02*
X017557Y001557D01*
X017429Y001504D01*
X017331Y001406D01*
X017278Y001278D01*
X017278Y001139D01*
X017331Y001011D01*
X017429Y000914D01*
X017557Y000861D01*
X017695Y000861D01*
X017823Y000914D01*
X017921Y001011D01*
X017974Y001139D01*
X017974Y001278D01*
X017921Y001406D01*
X017823Y001504D01*
X017695Y001557D01*
X017494Y001531D02*
X000662Y001531D01*
X000662Y001689D02*
X019787Y001689D01*
X019787Y001848D02*
X000662Y001848D01*
X000662Y002006D02*
X019787Y002006D01*
X018892Y001372D02*
X017935Y001372D01*
X017974Y001214D02*
X018853Y001214D01*
X018888Y001055D02*
X017939Y001055D01*
X017783Y000897D02*
X019044Y000897D01*
X017469Y000897D02*
X000662Y000897D01*
X000662Y001055D02*
X017313Y001055D01*
X017278Y001214D02*
X000662Y001214D01*
X000662Y001372D02*
X017317Y001372D01*
X017534Y002165D02*
X002692Y002165D01*
X002748Y002188D02*
X002946Y002386D01*
X003053Y002644D01*
X003053Y002923D01*
X002946Y003181D01*
X002748Y003379D01*
X002490Y003486D01*
X002211Y003486D01*
X001952Y003379D01*
X001755Y003181D01*
X001648Y002923D01*
X001648Y002644D01*
X001755Y002386D01*
X001952Y002188D01*
X002211Y002081D01*
X002490Y002081D01*
X002748Y002188D01*
X002884Y002323D02*
X017429Y002323D01*
X017425Y002482D02*
X002986Y002482D01*
X003051Y002640D02*
X017425Y002640D01*
X017425Y002799D02*
X003053Y002799D01*
X003039Y002957D02*
X017425Y002957D01*
X017425Y003116D02*
X002973Y003116D01*
X002853Y003274D02*
X016122Y003274D01*
X016157Y003239D02*
X016267Y003193D01*
X016386Y003193D01*
X016496Y003239D01*
X016580Y003323D01*
X016626Y003433D01*
X017425Y003433D01*
X017425Y003591D02*
X016609Y003591D01*
X016626Y003552D02*
X016580Y003662D01*
X016496Y003746D01*
X016386Y003791D01*
X016267Y003791D01*
X016157Y003746D01*
X016073Y003662D01*
X016028Y003552D01*
X016028Y003433D01*
X011395Y003433D01*
X011386Y003429D02*
X011496Y003475D01*
X011580Y003559D01*
X011626Y003669D01*
X011626Y003788D01*
X011580Y003898D01*
X011496Y003982D01*
X011386Y004027D01*
X011267Y004027D01*
X011157Y003982D01*
X011073Y003898D01*
X011028Y003788D01*
X011028Y003669D01*
X011073Y003559D01*
X011157Y003475D01*
X011267Y003429D01*
X011386Y003429D01*
X011259Y003433D02*
X008166Y003433D01*
X008158Y003429D02*
X008268Y003475D01*
X008352Y003559D01*
X008397Y003669D01*
X008397Y003788D01*
X008352Y003898D01*
X008268Y003982D01*
X008158Y004027D01*
X008039Y004027D01*
X007964Y003997D01*
X007964Y004063D01*
X007919Y004173D01*
X007835Y004257D01*
X007725Y004303D01*
X007606Y004303D01*
X007496Y004257D01*
X007412Y004173D01*
X007366Y004063D01*
X007366Y003944D01*
X007412Y003835D01*
X007444Y003802D01*
X007406Y003709D01*
X007406Y003590D01*
X007451Y003480D01*
X007535Y003396D01*
X007645Y003351D01*
X007764Y003351D01*
X007874Y003396D01*
X007946Y003468D01*
X008039Y003429D01*
X008158Y003429D01*
X008031Y003433D02*
X007911Y003433D01*
X007499Y003433D02*
X002618Y003433D01*
X002082Y003433D02*
X000662Y003433D01*
X000662Y003591D02*
X004702Y003591D01*
X004695Y003598D02*
X004779Y003514D01*
X004889Y003469D01*
X005008Y003469D01*
X005118Y003514D01*
X005202Y003598D01*
X005248Y003708D01*
X005248Y003827D01*
X005202Y003937D01*
X005118Y004021D01*
X005008Y004067D01*
X004889Y004067D01*
X000662Y004067D01*
X000662Y004225D02*
X007464Y004225D01*
X007368Y004067D02*
X005008Y004067D01*
X004889Y004067D02*
X004779Y004021D01*
X004695Y003937D01*
X004650Y003827D01*
X004650Y003708D01*
X004695Y003598D01*
X004650Y003750D02*
X000662Y003750D01*
X000662Y003908D02*
X004683Y003908D01*
X005214Y003908D02*
X007381Y003908D01*
X007423Y003750D02*
X005248Y003750D01*
X005195Y003591D02*
X007406Y003591D01*
X007963Y004067D02*
X017425Y004067D01*
X017425Y004225D02*
X015278Y004225D01*
X015276Y004223D02*
X015360Y004307D01*
X015405Y004417D01*
X015405Y004536D01*
X015360Y004646D01*
X015276Y004730D01*
X015166Y004775D01*
X015047Y004775D01*
X014937Y004730D01*
X014853Y004646D01*
X014807Y004536D01*
X014807Y004417D01*
X014853Y004307D01*
X014937Y004223D01*
X015047Y004177D01*
X015166Y004177D01*
X015276Y004223D01*
X015392Y004384D02*
X017425Y004384D01*
X017425Y004542D02*
X015989Y004542D01*
X016029Y004583D02*
X016075Y004692D01*
X016075Y004811D01*
X016029Y004921D01*
X015945Y005005D01*
X015835Y005051D01*
X015716Y005051D01*
X015606Y005005D01*
X015522Y004921D01*
X015477Y004811D01*
X015477Y004692D01*
X015522Y004583D01*
X015606Y004498D01*
X015716Y004453D01*
X015835Y004453D01*
X015945Y004498D01*
X016029Y004583D01*
X016075Y004701D02*
X017425Y004701D01*
X017425Y004859D02*
X016055Y004859D01*
X015915Y005018D02*
X017425Y005018D01*
X017425Y005176D02*
X015442Y005176D01*
X015433Y005168D02*
X015517Y005252D01*
X015563Y005362D01*
X015563Y005481D01*
X015517Y005591D01*
X015433Y005675D01*
X015323Y005720D01*
X015204Y005720D01*
X015094Y005675D01*
X015010Y005591D01*
X014965Y005481D01*
X014965Y005362D01*
X015010Y005252D01*
X015094Y005168D01*
X015204Y005122D01*
X015323Y005122D01*
X015433Y005168D01*
X015552Y005335D02*
X017425Y005335D01*
X017425Y005493D02*
X015558Y005493D01*
X015456Y005652D02*
X017425Y005652D01*
X017425Y005810D02*
X013831Y005810D01*
X013831Y005755D02*
X013785Y005646D01*
X013701Y005561D01*
X013591Y005516D01*
X013472Y005516D01*
X013362Y005561D01*
X013278Y005646D01*
X013232Y005755D01*
X013232Y005874D01*
X013278Y005984D01*
X013362Y006068D01*
X013472Y006114D01*
X013591Y006114D01*
X013701Y006068D01*
X013785Y005984D01*
X013831Y005874D01*
X013831Y005755D01*
X013788Y005652D02*
X015071Y005652D01*
X014970Y005493D02*
X011599Y005493D01*
X011620Y005473D02*
X011536Y005557D01*
X011426Y005602D01*
X011307Y005602D01*
X011197Y005557D01*
X011113Y005473D01*
X011067Y005363D01*
X011067Y005244D01*
X011113Y005134D01*
X011197Y005050D01*
X011307Y005004D01*
X011426Y005004D01*
X011536Y005050D01*
X011620Y005134D01*
X011665Y005244D01*
X011665Y005363D01*
X011620Y005473D01*
X011665Y005335D02*
X014976Y005335D01*
X015086Y005176D02*
X011637Y005176D01*
X011459Y005018D02*
X015636Y005018D01*
X015496Y004859D02*
X006091Y004859D01*
X006108Y004843D02*
X006025Y004925D01*
X006071Y004925D01*
X006181Y004971D01*
X006265Y005055D01*
X006311Y005165D01*
X006311Y005284D01*
X006265Y005394D01*
X006181Y005478D01*
X006071Y005523D01*
X005952Y005523D01*
X005842Y005478D01*
X005758Y005394D01*
X005713Y005284D01*
X005713Y005165D01*
X005758Y005055D01*
X005841Y004972D01*
X005795Y004972D01*
X005685Y004927D01*
X005601Y004843D01*
X005555Y004733D01*
X005555Y004614D01*
X005601Y004504D01*
X005685Y004420D01*
X005795Y004374D01*
X005914Y004374D01*
X006024Y004420D01*
X006108Y004504D01*
X006153Y004614D01*
X006153Y004733D01*
X006108Y004843D01*
X006153Y004701D02*
X014908Y004701D01*
X014810Y004542D02*
X006124Y004542D01*
X005937Y004384D02*
X014821Y004384D01*
X014934Y004225D02*
X007867Y004225D01*
X008341Y003908D02*
X011084Y003908D01*
X011028Y003750D02*
X008397Y003750D01*
X008365Y003591D02*
X011060Y003591D01*
X011594Y003591D02*
X016044Y003591D01*
X016028Y003433D02*
X016073Y003323D01*
X016157Y003239D01*
X016532Y003274D02*
X017425Y003274D01*
X017425Y003750D02*
X016486Y003750D01*
X016626Y003552D02*
X016626Y003433D01*
X016167Y003750D02*
X011626Y003750D01*
X011570Y003908D02*
X017425Y003908D01*
X015562Y004542D02*
X015403Y004542D01*
X015477Y004701D02*
X015305Y004701D01*
X014695Y006018D02*
X014415Y006018D01*
X014157Y006125D01*
X013960Y006323D01*
X013853Y006581D01*
X013853Y006860D01*
X013960Y007118D01*
X014157Y007316D01*
X014415Y007423D01*
X014695Y007423D01*
X014953Y007316D01*
X015151Y007118D01*
X015258Y006860D01*
X015258Y006581D01*
X015151Y006323D01*
X014953Y006125D01*
X014695Y006018D01*
X014955Y006127D02*
X017503Y006127D01*
X017425Y005969D02*
X013791Y005969D01*
X013996Y006286D02*
X010405Y006286D01*
X010405Y006308D02*
X010405Y006189D01*
X010360Y006079D01*
X010276Y005995D01*
X010166Y005949D01*
X010047Y005949D01*
X009937Y005995D01*
X009853Y006079D01*
X009807Y006189D01*
X009807Y006308D01*
X009853Y006417D01*
X009937Y006502D01*
X010047Y006547D01*
X010166Y006547D01*
X010276Y006502D01*
X010360Y006417D01*
X010405Y006308D01*
X010333Y006444D02*
X013909Y006444D01*
X013853Y006603D02*
X008245Y006603D01*
X008228Y006620D02*
X008119Y006665D01*
X008000Y006665D01*
X007890Y006620D01*
X007806Y006536D01*
X007760Y006426D01*
X007760Y006307D01*
X007806Y006197D01*
X007890Y006113D01*
X008000Y006067D01*
X008119Y006067D01*
X008228Y006113D01*
X008313Y006197D01*
X008358Y006307D01*
X008358Y006426D01*
X008313Y006536D01*
X008228Y006620D01*
X008350Y006444D02*
X009880Y006444D01*
X009807Y006286D02*
X008349Y006286D01*
X008243Y006127D02*
X009833Y006127D01*
X009999Y005969D02*
X002895Y005969D01*
X002874Y005990D02*
X002764Y006035D01*
X002645Y006035D01*
X002535Y005990D01*
X002451Y005906D01*
X002406Y005796D01*
X002406Y005677D01*
X002451Y005567D01*
X002535Y005483D01*
X002645Y005437D01*
X002764Y005437D01*
X002874Y005483D01*
X002958Y005567D01*
X003004Y005677D01*
X003004Y005796D01*
X002958Y005906D01*
X002874Y005990D01*
X002998Y005810D02*
X013232Y005810D01*
X013272Y005969D02*
X010214Y005969D01*
X010380Y006127D02*
X014155Y006127D01*
X013853Y006761D02*
X010098Y006761D01*
X010079Y006743D02*
X010163Y006827D01*
X010209Y006937D01*
X010209Y007056D01*
X010163Y007165D01*
X010079Y007250D01*
X009969Y007295D01*
X009850Y007295D01*
X009740Y007250D01*
X009656Y007165D01*
X009610Y007056D01*
X009610Y006937D01*
X009656Y006827D01*
X009740Y006743D01*
X009850Y006697D01*
X009969Y006697D01*
X010079Y006743D01*
X010202Y006920D02*
X013877Y006920D01*
X013943Y007078D02*
X011941Y007078D01*
X011935Y007063D02*
X011980Y007173D01*
X011980Y007292D01*
X011935Y007402D01*
X011851Y007486D01*
X011741Y007531D01*
X011622Y007531D01*
X011512Y007486D01*
X011428Y007402D01*
X011382Y007292D01*
X011382Y007173D01*
X011428Y007063D01*
X011512Y006979D01*
X011622Y006933D01*
X011741Y006933D01*
X011851Y006979D01*
X011935Y007063D01*
X011980Y007237D02*
X014078Y007237D01*
X014349Y007395D02*
X011937Y007395D01*
X011897Y007760D02*
X012016Y007760D01*
X012126Y007806D01*
X012173Y007853D01*
X012220Y007806D01*
X012330Y007760D01*
X012449Y007760D01*
X012559Y007806D01*
X012643Y007890D01*
X012689Y008000D01*
X012689Y008119D01*
X012643Y008228D01*
X012559Y008313D01*
X012449Y008358D01*
X012330Y008358D01*
X012220Y008313D01*
X012173Y008265D01*
X012126Y008313D01*
X012016Y008358D01*
X011897Y008358D01*
X011787Y008313D01*
X011703Y008228D01*
X011658Y008119D01*
X011658Y008000D01*
X011703Y007890D01*
X011787Y007806D01*
X011897Y007760D01*
X011722Y007871D02*
X011260Y007871D01*
X011271Y007843D02*
X011226Y007953D01*
X011142Y008037D01*
X011032Y008083D01*
X010913Y008083D01*
X010803Y008037D01*
X010719Y007953D01*
X010673Y007843D01*
X010673Y007724D01*
X010719Y007614D01*
X010803Y007530D01*
X010913Y007484D01*
X011032Y007484D01*
X011142Y007530D01*
X011226Y007614D01*
X011271Y007724D01*
X011271Y007843D01*
X011267Y007712D02*
X019787Y007712D01*
X019787Y007554D02*
X011166Y007554D01*
X011425Y007395D02*
X007607Y007395D01*
X007604Y007402D02*
X007520Y007486D01*
X007410Y007531D01*
X007291Y007531D01*
X007181Y007486D01*
X007097Y007402D01*
X007051Y007292D01*
X007051Y007173D01*
X007097Y007063D01*
X007181Y006979D01*
X007291Y006933D01*
X007410Y006933D01*
X007520Y006979D01*
X007604Y007063D01*
X007649Y007173D01*
X007649Y007292D01*
X007604Y007402D01*
X007649Y007237D02*
X009727Y007237D01*
X009620Y007078D02*
X007610Y007078D01*
X007090Y007078D02*
X005957Y007078D01*
X005957Y007134D02*
X005911Y007244D01*
X005827Y007328D01*
X005774Y007350D01*
X005827Y007372D01*
X005911Y007457D01*
X005957Y007566D01*
X005957Y007685D01*
X005911Y007795D01*
X005827Y007880D01*
X005717Y007925D01*
X005598Y007925D01*
X005488Y007880D01*
X005404Y007795D01*
X005358Y007685D01*
X005358Y007566D01*
X005404Y007457D01*
X005488Y007372D01*
X005541Y007350D01*
X005488Y007328D01*
X005404Y007244D01*
X005358Y007134D01*
X005358Y007015D01*
X005404Y006905D01*
X005488Y006821D01*
X005598Y006776D01*
X005717Y006776D01*
X005827Y006821D01*
X005911Y006905D01*
X005957Y007015D01*
X005957Y007134D01*
X005914Y007237D02*
X007051Y007237D01*
X007094Y007395D02*
X005850Y007395D01*
X005951Y007554D02*
X010779Y007554D01*
X010678Y007712D02*
X008281Y007712D01*
X008273Y007693D02*
X008319Y007803D01*
X008319Y007922D01*
X008273Y008032D01*
X008246Y008059D01*
X008273Y008087D01*
X008319Y008196D01*
X008319Y008315D01*
X008273Y008425D01*
X008189Y008509D01*
X008079Y008555D01*
X007960Y008555D01*
X007850Y008509D01*
X007766Y008425D01*
X007721Y008315D01*
X007721Y008196D01*
X007766Y008087D01*
X007794Y008059D01*
X007766Y008032D01*
X007721Y007922D01*
X007721Y007803D01*
X007766Y007693D01*
X007850Y007609D01*
X007960Y007563D01*
X008079Y007563D01*
X008189Y007609D01*
X008273Y007693D01*
X008319Y007871D02*
X010685Y007871D01*
X010795Y008029D02*
X008274Y008029D01*
X008315Y008188D02*
X011686Y008188D01*
X011658Y008029D02*
X011150Y008029D01*
X011032Y008508D02*
X011142Y008554D01*
X011226Y008638D01*
X011271Y008748D01*
X011271Y008867D01*
X011226Y008976D01*
X011142Y009061D01*
X011032Y009106D01*
X010913Y009106D01*
X010803Y009061D01*
X010719Y008976D01*
X010673Y008867D01*
X010673Y008748D01*
X010719Y008638D01*
X010803Y008554D01*
X010913Y008508D01*
X011032Y008508D01*
X011237Y008663D02*
X019787Y008663D01*
X019787Y008505D02*
X008194Y008505D01*
X008306Y008346D02*
X011869Y008346D01*
X012045Y008346D02*
X012302Y008346D01*
X012478Y008346D02*
X019787Y008346D01*
X019787Y008188D02*
X012660Y008188D01*
X012689Y008029D02*
X019787Y008029D01*
X019787Y007871D02*
X012624Y007871D01*
X011382Y007237D02*
X010092Y007237D01*
X010199Y007078D02*
X011421Y007078D01*
X009721Y006761D02*
X007073Y006761D01*
X007053Y006811D02*
X006969Y006895D01*
X006859Y006941D01*
X006740Y006941D01*
X006630Y006895D01*
X006546Y006811D01*
X006500Y006701D01*
X006500Y006582D01*
X006546Y006472D01*
X006630Y006388D01*
X006740Y006343D01*
X006859Y006343D01*
X006969Y006388D01*
X007053Y006472D01*
X007098Y006582D01*
X007098Y006701D01*
X007053Y006811D01*
X006909Y006920D02*
X009617Y006920D01*
X007873Y006603D02*
X007098Y006603D01*
X007025Y006444D02*
X007768Y006444D01*
X007769Y006286D02*
X001646Y006286D01*
X001646Y006444D02*
X006574Y006444D01*
X006500Y006603D02*
X002498Y006603D01*
X002525Y006630D02*
X002571Y006740D01*
X002571Y006859D01*
X002525Y006969D01*
X002441Y007053D01*
X002331Y007098D01*
X002212Y007098D01*
X002102Y007053D01*
X002018Y006969D01*
X001973Y006859D01*
X001973Y006740D01*
X002018Y006630D01*
X002102Y006546D01*
X002212Y006500D01*
X002331Y006500D01*
X002441Y006546D01*
X002525Y006630D01*
X002571Y006761D02*
X006525Y006761D01*
X006689Y006920D02*
X005917Y006920D01*
X005398Y006920D02*
X002545Y006920D01*
X002379Y007078D02*
X003643Y007078D01*
X003598Y007097D02*
X003708Y007051D01*
X003827Y007051D01*
X003937Y007097D01*
X004021Y007181D01*
X004067Y007291D01*
X004067Y007410D01*
X004021Y007520D01*
X003937Y007604D01*
X003827Y007649D01*
X003708Y007649D01*
X003598Y007604D01*
X003514Y007520D01*
X003469Y007410D01*
X003469Y007291D01*
X003514Y007181D01*
X003598Y007097D01*
X003491Y007237D02*
X000662Y007237D01*
X000662Y007395D02*
X003469Y007395D01*
X003548Y007554D02*
X000662Y007554D01*
X000662Y007712D02*
X005370Y007712D01*
X005364Y007554D02*
X003987Y007554D01*
X004067Y007395D02*
X005465Y007395D01*
X005401Y007237D02*
X004044Y007237D01*
X003892Y007078D02*
X005358Y007078D01*
X005945Y007712D02*
X007758Y007712D01*
X007721Y007871D02*
X005836Y007871D01*
X005479Y007871D02*
X000662Y007871D01*
X000662Y008029D02*
X007765Y008029D01*
X007724Y008188D02*
X001390Y008188D01*
X001417Y008199D02*
X001502Y008283D01*
X001529Y008351D01*
X001622Y008351D01*
X001732Y008396D01*
X001817Y008480D01*
X001862Y008590D01*
X001862Y008709D01*
X001817Y008819D01*
X001732Y008903D01*
X001622Y008949D01*
X001504Y008949D01*
X001394Y008903D01*
X001309Y008819D01*
X001282Y008752D01*
X001189Y008752D01*
X001079Y008706D01*
X000995Y008622D01*
X000949Y008512D01*
X000949Y008393D01*
X000995Y008283D01*
X001079Y008199D01*
X001189Y008154D01*
X001308Y008154D01*
X001417Y008199D01*
X001528Y008346D02*
X007733Y008346D01*
X007846Y008505D02*
X001827Y008505D01*
X001862Y008663D02*
X003776Y008663D01*
X003756Y008672D02*
X003866Y008626D01*
X003985Y008626D01*
X004095Y008672D01*
X004179Y008756D01*
X004224Y008866D01*
X004224Y008985D01*
X004179Y009095D01*
X004095Y009179D01*
X003985Y009224D01*
X003866Y009224D01*
X003756Y009179D01*
X003672Y009095D01*
X003626Y008985D01*
X003626Y008866D01*
X003672Y008756D01*
X003756Y008672D01*
X003644Y008822D02*
X001814Y008822D01*
X001779Y008902D02*
X001898Y008902D01*
X002008Y008947D01*
X002092Y009031D01*
X002138Y009141D01*
X002138Y009260D01*
X002092Y009370D01*
X002008Y009454D01*
X001898Y009500D01*
X001891Y009500D01*
X001974Y009583D01*
X002020Y009692D01*
X002020Y009811D01*
X001974Y009921D01*
X001890Y010005D01*
X001780Y010051D01*
X001661Y010051D01*
X001551Y010005D01*
X001467Y009921D01*
X001421Y009811D01*
X001421Y009692D01*
X001467Y009583D01*
X001551Y009498D01*
X001661Y009453D01*
X001668Y009453D01*
X001585Y009370D01*
X001543Y009269D01*
X001502Y009370D01*
X001417Y009454D01*
X001308Y009500D01*
X001189Y009500D01*
X001079Y009454D01*
X000995Y009370D01*
X000949Y009260D01*
X000949Y009141D01*
X000995Y009031D01*
X001079Y008947D01*
X001189Y008902D01*
X001308Y008902D01*
X001417Y008947D01*
X001502Y009031D01*
X001543Y009132D01*
X001585Y009031D01*
X001669Y008947D01*
X001779Y008902D01*
X001636Y008980D02*
X001450Y008980D01*
X001312Y008822D02*
X000662Y008822D01*
X000662Y008980D02*
X001046Y008980D01*
X000950Y009139D02*
X000662Y009139D01*
X000662Y009297D02*
X000964Y009297D01*
X001082Y009456D02*
X000662Y009456D01*
X000662Y009614D02*
X001454Y009614D01*
X001421Y009773D02*
X000662Y009773D01*
X000662Y009931D02*
X001477Y009931D01*
X001414Y009456D02*
X001654Y009456D01*
X001555Y009297D02*
X001532Y009297D01*
X002004Y009456D02*
X011303Y009456D01*
X011303Y009496D02*
X011303Y009378D01*
X011349Y009268D01*
X011433Y009183D01*
X011543Y009138D01*
X011662Y009138D01*
X011772Y009183D01*
X011856Y009268D01*
X011901Y009378D01*
X011901Y009496D01*
X011856Y009606D01*
X011772Y009691D01*
X011662Y009736D01*
X011543Y009736D01*
X011433Y009691D01*
X011349Y009606D01*
X011303Y009496D01*
X011357Y009614D02*
X001987Y009614D01*
X002020Y009773D02*
X008324Y009773D01*
X008317Y009779D02*
X008401Y009695D01*
X008511Y009650D01*
X008630Y009650D01*
X008740Y009695D01*
X008824Y009779D01*
X008870Y009889D01*
X008870Y010008D01*
X008824Y010118D01*
X008740Y010202D01*
X008630Y010248D01*
X008511Y010248D01*
X008401Y010202D01*
X008317Y010118D01*
X008272Y010008D01*
X008272Y009889D01*
X008317Y009779D01*
X008272Y009931D02*
X001964Y009931D01*
X002122Y009297D02*
X006591Y009297D01*
X006630Y009336D02*
X006546Y009252D01*
X006500Y009142D01*
X006500Y009023D01*
X006546Y008913D01*
X006630Y008829D01*
X006740Y008784D01*
X006859Y008784D01*
X006969Y008829D01*
X007053Y008913D01*
X007098Y009023D01*
X007098Y009142D01*
X007053Y009252D01*
X006969Y009336D01*
X006859Y009382D01*
X006740Y009382D01*
X006630Y009336D01*
X006500Y009139D02*
X004135Y009139D01*
X004224Y008980D02*
X006518Y008980D01*
X006648Y008822D02*
X004206Y008822D01*
X004074Y008663D02*
X010708Y008663D01*
X010673Y008822D02*
X006951Y008822D01*
X007080Y008980D02*
X010723Y008980D01*
X011222Y008980D02*
X019787Y008980D01*
X019787Y008822D02*
X011271Y008822D01*
X011541Y009139D02*
X007098Y009139D01*
X007008Y009297D02*
X011337Y009297D01*
X011664Y009139D02*
X019787Y009139D01*
X019787Y009297D02*
X011868Y009297D01*
X011901Y009456D02*
X019787Y009456D01*
X019787Y009614D02*
X011848Y009614D01*
X011305Y009937D02*
X011350Y010047D01*
X011350Y010166D01*
X011305Y010276D01*
X011221Y010360D01*
X011111Y010405D01*
X010992Y010405D01*
X010882Y010360D01*
X010798Y010276D01*
X010752Y010166D01*
X010752Y010047D01*
X010798Y009937D01*
X010882Y009853D01*
X010992Y009807D01*
X011111Y009807D01*
X011221Y009853D01*
X011305Y009937D01*
X011299Y009931D02*
X019787Y009931D01*
X019787Y009773D02*
X008818Y009773D01*
X008870Y009931D02*
X010803Y009931D01*
X010752Y010090D02*
X009710Y010090D01*
X009693Y010083D02*
X009803Y010128D01*
X009887Y010212D01*
X009933Y010322D01*
X009933Y010441D01*
X009887Y010551D01*
X009803Y010635D01*
X009693Y010681D01*
X009574Y010681D01*
X009464Y010635D01*
X009380Y010551D01*
X009335Y010441D01*
X009335Y010322D01*
X009380Y010212D01*
X009464Y010128D01*
X009574Y010083D01*
X009693Y010083D01*
X009558Y010090D02*
X008836Y010090D01*
X008507Y010407D02*
X009335Y010407D01*
X009366Y010248D02*
X007422Y010248D01*
X007407Y010212D02*
X007453Y010322D01*
X007453Y010441D01*
X007407Y010551D01*
X007323Y010635D01*
X007213Y010681D01*
X007094Y010681D01*
X006984Y010635D01*
X006900Y010551D01*
X006854Y010441D01*
X006854Y010322D01*
X006900Y010212D01*
X006984Y010128D01*
X007094Y010083D01*
X007213Y010083D01*
X007323Y010128D01*
X007407Y010212D01*
X007453Y010407D02*
X008084Y010407D01*
X008042Y010449D02*
X008126Y010365D01*
X008236Y010319D01*
X008355Y010319D01*
X008465Y010365D01*
X008549Y010449D01*
X008594Y010559D01*
X008594Y010678D01*
X008549Y010788D01*
X008465Y010872D01*
X008355Y010917D01*
X008236Y010917D01*
X008126Y010872D01*
X008042Y010788D01*
X007996Y010678D01*
X007996Y010559D01*
X008042Y010449D01*
X007996Y010565D02*
X007393Y010565D01*
X006914Y010565D02*
X000662Y010565D01*
X000662Y010407D02*
X006854Y010407D01*
X006885Y010248D02*
X000662Y010248D01*
X000662Y010090D02*
X007077Y010090D01*
X007230Y010090D02*
X008306Y010090D01*
X008594Y010565D02*
X009394Y010565D01*
X009873Y010565D02*
X011306Y010565D01*
X011303Y010559D02*
X011303Y010441D01*
X011349Y010331D01*
X011433Y010246D01*
X011543Y010201D01*
X011662Y010201D01*
X011772Y010246D01*
X011856Y010331D01*
X011901Y010441D01*
X011901Y010559D01*
X011856Y010669D01*
X011772Y010754D01*
X011662Y010799D01*
X011543Y010799D01*
X011433Y010754D01*
X011349Y010669D01*
X011303Y010559D01*
X011317Y010407D02*
X009933Y010407D01*
X009902Y010248D02*
X010786Y010248D01*
X011316Y010248D02*
X011431Y010248D01*
X011350Y010090D02*
X019787Y010090D01*
X019787Y010248D02*
X011774Y010248D01*
X011887Y010407D02*
X019787Y010407D01*
X019787Y010565D02*
X011899Y010565D01*
X011802Y010724D02*
X019787Y010724D01*
X019787Y010882D02*
X008439Y010882D01*
X008575Y010724D02*
X011403Y010724D01*
X010473Y011467D02*
X010363Y011421D01*
X010244Y011421D01*
X010134Y011467D01*
X010050Y011551D01*
X010004Y011661D01*
X010004Y011780D01*
X010050Y011890D01*
X010134Y011974D01*
X010244Y012020D01*
X010363Y012020D01*
X010473Y011974D01*
X010557Y011890D01*
X010602Y011780D01*
X010602Y011661D01*
X010557Y011551D01*
X010473Y011467D01*
X010522Y011516D02*
X019787Y011516D01*
X019787Y011358D02*
X003259Y011358D01*
X003279Y011308D02*
X003234Y011417D01*
X003150Y011502D01*
X003040Y011547D01*
X002921Y011547D01*
X002811Y011502D01*
X002727Y011417D01*
X002681Y011308D01*
X002681Y011189D01*
X002727Y011079D01*
X002811Y010995D01*
X002921Y010949D01*
X003040Y010949D01*
X003150Y010995D01*
X003234Y011079D01*
X003279Y011189D01*
X003279Y011308D01*
X003279Y011199D02*
X019787Y011199D01*
X019787Y011041D02*
X003196Y011041D01*
X002765Y011041D02*
X000662Y011041D01*
X000662Y011199D02*
X002681Y011199D01*
X002702Y011358D02*
X000662Y011358D01*
X000662Y011516D02*
X002846Y011516D01*
X003114Y011516D02*
X004061Y011516D01*
X004071Y011506D02*
X004181Y011461D01*
X004300Y011461D01*
X004410Y011506D01*
X004494Y011590D01*
X004539Y011700D01*
X004539Y011819D01*
X004494Y011929D01*
X004410Y012013D01*
X004300Y012059D01*
X004181Y012059D01*
X004071Y012013D01*
X003987Y011929D01*
X003941Y011819D01*
X003941Y011700D01*
X003987Y011590D01*
X004071Y011506D01*
X003952Y011675D02*
X000662Y011675D01*
X000662Y011833D02*
X003947Y011833D01*
X004049Y011992D02*
X002056Y011992D01*
X002053Y011984D02*
X002098Y012094D01*
X002098Y012213D01*
X002053Y012323D01*
X001969Y012407D01*
X001859Y012453D01*
X001740Y012453D01*
X001630Y012407D01*
X001546Y012323D01*
X001500Y012213D01*
X001500Y012094D01*
X001546Y011984D01*
X001630Y011900D01*
X001740Y011854D01*
X001859Y011854D01*
X001969Y011900D01*
X002053Y011984D01*
X002098Y012150D02*
X006773Y012150D01*
X006743Y012181D02*
X006827Y012097D01*
X006937Y012051D01*
X007056Y012051D01*
X007165Y012097D01*
X007250Y012181D01*
X007295Y012291D01*
X007295Y012410D01*
X007250Y012520D01*
X007165Y012604D01*
X007056Y012649D01*
X006937Y012649D01*
X006827Y012604D01*
X006743Y012520D01*
X006697Y012410D01*
X006697Y012291D01*
X006743Y012181D01*
X006697Y012309D02*
X002059Y012309D01*
X001540Y012309D02*
X001522Y012309D01*
X001500Y012150D02*
X001356Y012150D01*
X001140Y012150D02*
X000662Y012150D01*
X000662Y011992D02*
X001543Y011992D01*
X000974Y012309D02*
X000662Y012309D01*
X000662Y012467D02*
X000949Y012467D01*
X001547Y012467D02*
X006721Y012467D01*
X006879Y012626D02*
X001565Y012626D01*
X001646Y012784D02*
X007557Y012784D01*
X007575Y012766D02*
X007685Y012721D01*
X007804Y012721D01*
X007913Y012766D01*
X007998Y012850D01*
X008043Y012960D01*
X008043Y013079D01*
X007998Y013189D01*
X007913Y013273D01*
X007804Y013319D01*
X007685Y013319D01*
X007575Y013273D01*
X007491Y013189D01*
X007445Y013079D01*
X007445Y012960D01*
X007491Y012850D01*
X007575Y012766D01*
X007452Y012943D02*
X001646Y012943D01*
X001646Y013101D02*
X007454Y013101D01*
X007561Y013260D02*
X001646Y013260D01*
X001646Y013418D02*
X019787Y013418D01*
X019787Y013260D02*
X007927Y013260D01*
X008034Y013101D02*
X019787Y013101D01*
X019787Y012943D02*
X008036Y012943D01*
X007932Y012784D02*
X019787Y012784D01*
X019787Y012626D02*
X007113Y012626D01*
X007271Y012467D02*
X019787Y012467D01*
X019787Y012309D02*
X007295Y012309D01*
X007299Y012210D02*
X007409Y012256D01*
X007528Y012256D01*
X007638Y012210D01*
X007722Y012126D01*
X007768Y012016D01*
X007768Y011897D01*
X007722Y011787D01*
X007638Y011703D01*
X007528Y011658D01*
X007409Y011658D01*
X007299Y011703D01*
X007215Y011787D01*
X007169Y011897D01*
X007169Y012016D01*
X007215Y012126D01*
X007299Y012210D01*
X007239Y012150D02*
X007219Y012150D01*
X007169Y011992D02*
X004431Y011992D01*
X004533Y011833D02*
X007196Y011833D01*
X007368Y011675D02*
X004529Y011675D01*
X004420Y011516D02*
X008158Y011516D01*
X008160Y011512D02*
X008244Y011428D01*
X008354Y011382D01*
X008473Y011382D01*
X008583Y011428D01*
X008667Y011512D01*
X008712Y011622D01*
X008712Y011672D01*
X008748Y011658D01*
X008867Y011658D01*
X008976Y011703D01*
X009061Y011787D01*
X009106Y011897D01*
X009106Y012016D01*
X009061Y012126D01*
X008976Y012210D01*
X008867Y012256D01*
X008748Y012256D01*
X008638Y012210D01*
X008554Y012126D01*
X008508Y012016D01*
X008508Y011966D01*
X008473Y011980D01*
X008354Y011980D01*
X008244Y011935D01*
X008160Y011851D01*
X008114Y011741D01*
X008114Y011622D01*
X008160Y011512D01*
X008114Y011675D02*
X007569Y011675D01*
X007741Y011833D02*
X008153Y011833D01*
X008508Y011992D02*
X007768Y011992D01*
X007698Y012150D02*
X008578Y012150D01*
X009036Y012150D02*
X019787Y012150D01*
X019787Y011992D02*
X010430Y011992D01*
X010580Y011833D02*
X019787Y011833D01*
X019787Y011675D02*
X010602Y011675D01*
X010177Y011992D02*
X009106Y011992D01*
X009080Y011833D02*
X010026Y011833D01*
X010004Y011675D02*
X008908Y011675D01*
X008669Y011516D02*
X010084Y011516D01*
X008152Y010882D02*
X000662Y010882D01*
X000662Y010724D02*
X008015Y010724D01*
X003716Y009139D02*
X002137Y009139D01*
X002041Y008980D02*
X003626Y008980D01*
X001036Y008663D02*
X000662Y008663D01*
X000662Y008505D02*
X000949Y008505D01*
X000968Y008346D02*
X000662Y008346D01*
X000662Y008188D02*
X001106Y008188D01*
X000662Y007078D02*
X002164Y007078D01*
X001998Y006920D02*
X000662Y006920D01*
X001524Y006761D02*
X001973Y006761D01*
X002045Y006603D02*
X001636Y006603D01*
X001646Y006127D02*
X007875Y006127D01*
X007922Y005602D02*
X007803Y005602D01*
X007693Y005557D01*
X007609Y005473D01*
X007563Y005363D01*
X007563Y005244D01*
X007609Y005134D01*
X007693Y005050D01*
X007803Y005004D01*
X007922Y005004D01*
X008032Y005050D01*
X008116Y005134D01*
X008161Y005244D01*
X008161Y005363D01*
X008116Y005473D01*
X008032Y005557D01*
X007922Y005602D01*
X008095Y005493D02*
X011133Y005493D01*
X011067Y005335D02*
X008161Y005335D01*
X008133Y005176D02*
X011095Y005176D01*
X011274Y005018D02*
X007955Y005018D01*
X007770Y005018D02*
X006228Y005018D01*
X006311Y005176D02*
X007591Y005176D01*
X007563Y005335D02*
X006290Y005335D01*
X006144Y005493D02*
X007629Y005493D01*
X005879Y005493D02*
X005642Y005493D01*
X005642Y005520D02*
X005596Y005630D01*
X005512Y005714D01*
X005402Y005760D01*
X005283Y005760D01*
X005173Y005714D01*
X005089Y005630D01*
X005043Y005520D01*
X005043Y005401D01*
X005089Y005291D01*
X005173Y005207D01*
X005283Y005162D01*
X005402Y005162D01*
X005512Y005207D01*
X005596Y005291D01*
X005642Y005401D01*
X005642Y005520D01*
X005574Y005652D02*
X013275Y005652D01*
X015114Y006286D02*
X019787Y006286D01*
X019787Y006444D02*
X015201Y006444D01*
X015258Y006603D02*
X019787Y006603D01*
X019787Y006761D02*
X015258Y006761D01*
X015233Y006920D02*
X017330Y006920D01*
X017331Y006917D02*
X017429Y006819D01*
X017557Y006766D01*
X017695Y006766D01*
X017823Y006819D01*
X017921Y006917D01*
X017974Y007045D01*
X017974Y007183D01*
X017921Y007311D01*
X017823Y007409D01*
X017695Y007462D01*
X017557Y007462D01*
X017429Y007409D01*
X017331Y007311D01*
X017278Y007183D01*
X017278Y007045D01*
X017331Y006917D01*
X017278Y007078D02*
X015167Y007078D01*
X015032Y007237D02*
X017300Y007237D01*
X017415Y007395D02*
X014762Y007395D01*
X017837Y007395D02*
X018990Y007395D01*
X019004Y007409D02*
X018906Y007311D01*
X018853Y007183D01*
X018853Y007045D01*
X018906Y006917D01*
X019004Y006819D01*
X019132Y006766D01*
X019270Y006766D01*
X019398Y006819D01*
X019496Y006917D01*
X019549Y007045D01*
X019549Y007183D01*
X019496Y007311D01*
X019398Y007409D01*
X019270Y007462D01*
X019132Y007462D01*
X019004Y007409D01*
X018875Y007237D02*
X017952Y007237D01*
X017974Y007078D02*
X018853Y007078D01*
X018905Y006920D02*
X017922Y006920D01*
X019412Y007395D02*
X019787Y007395D01*
X019787Y007237D02*
X019527Y007237D01*
X019549Y007078D02*
X019787Y007078D01*
X019787Y006920D02*
X019497Y006920D01*
X019787Y013577D02*
X001646Y013577D01*
X001646Y013735D02*
X004698Y013735D01*
X004661Y013750D02*
X004771Y013705D01*
X004890Y013705D01*
X005000Y013750D01*
X005084Y013835D01*
X005130Y013944D01*
X005130Y014063D01*
X005084Y014173D01*
X005000Y014257D01*
X004890Y014303D01*
X004771Y014303D01*
X004661Y014257D01*
X004577Y014173D01*
X004532Y014063D01*
X004532Y013944D01*
X004577Y013835D01*
X004661Y013750D01*
X004553Y013894D02*
X001646Y013894D01*
X001646Y014052D02*
X004532Y014052D01*
X004615Y014211D02*
X001646Y014211D01*
X001646Y014369D02*
X005899Y014369D01*
X005916Y014410D02*
X005870Y014300D01*
X005870Y014181D01*
X005916Y014071D01*
X006000Y013987D01*
X006110Y013941D01*
X006229Y013941D01*
X006339Y013987D01*
X006423Y014071D01*
X006468Y014181D01*
X006468Y014300D01*
X006423Y014410D01*
X006339Y014494D01*
X006335Y014495D01*
X006383Y014543D01*
X006429Y014653D01*
X006429Y014772D01*
X006383Y014882D01*
X006356Y014909D01*
X006381Y014934D01*
X006449Y014906D01*
X006610Y014906D01*
X006759Y014968D01*
X006873Y015082D01*
X006935Y015230D01*
X006935Y015392D01*
X006908Y015457D01*
X007002Y015418D01*
X007258Y015418D01*
X007494Y015516D01*
X007675Y015697D01*
X007773Y015933D01*
X007773Y016189D01*
X007675Y016425D01*
X007494Y016606D01*
X007302Y016686D01*
X007494Y016766D01*
X007675Y016947D01*
X007773Y017183D01*
X007773Y017439D01*
X007675Y017675D01*
X007494Y017856D01*
X007258Y017954D01*
X007002Y017954D01*
X006765Y017856D01*
X005495Y017856D01*
X005494Y017856D02*
X005258Y017954D01*
X005002Y017954D01*
X004765Y017856D01*
X003830Y017856D01*
X003830Y017853D02*
X003763Y017692D01*
X003639Y017568D01*
X003477Y017501D01*
X003302Y017501D01*
X003141Y017568D01*
X003017Y017692D01*
X002950Y017853D01*
X002950Y018028D01*
X003017Y018190D01*
X003141Y018314D01*
X003302Y018381D01*
X003477Y018381D01*
X003639Y018314D01*
X003763Y018190D01*
X003830Y018028D01*
X003830Y017853D01*
X003830Y018015D02*
X017704Y018015D01*
X017681Y017961D02*
X017681Y017842D01*
X017727Y017732D01*
X017811Y017648D01*
X017921Y017603D01*
X018040Y017603D01*
X018150Y017648D01*
X018234Y017732D01*
X018279Y017842D01*
X018279Y017961D01*
X018234Y018071D01*
X018150Y018155D01*
X018040Y018201D01*
X017921Y018201D01*
X017811Y018155D01*
X017727Y018071D01*
X017681Y017961D01*
X017681Y017856D02*
X007495Y017856D01*
X007653Y017698D02*
X017761Y017698D01*
X018199Y017698D02*
X018903Y017698D01*
X018913Y017687D02*
X018829Y017772D01*
X018784Y017881D01*
X018784Y018000D01*
X018829Y018110D01*
X018913Y018194D01*
X019023Y018240D01*
X019142Y018240D01*
X019252Y018194D01*
X019336Y018110D01*
X019382Y018000D01*
X019382Y017881D01*
X019336Y017772D01*
X019252Y017687D01*
X019142Y017642D01*
X019023Y017642D01*
X018913Y017687D01*
X018794Y017856D02*
X018279Y017856D01*
X018257Y018015D02*
X018790Y018015D01*
X018892Y018173D02*
X018106Y018173D01*
X017855Y018173D02*
X003770Y018173D01*
X003596Y018332D02*
X019787Y018332D01*
X019787Y018490D02*
X000662Y018490D01*
X000662Y018332D02*
X001184Y018332D01*
X001141Y018314D02*
X001017Y018190D01*
X000950Y018028D01*
X000950Y017853D01*
X001017Y017692D01*
X001141Y017568D01*
X001302Y017501D01*
X001477Y017501D01*
X001639Y017568D01*
X001763Y017692D01*
X001830Y017853D01*
X001830Y018028D01*
X001763Y018190D01*
X001639Y018314D01*
X001477Y018381D01*
X001302Y018381D01*
X001141Y018314D01*
X001010Y018173D02*
X000662Y018173D01*
X000662Y018015D02*
X000950Y018015D01*
X000950Y017856D02*
X000662Y017856D01*
X000662Y017698D02*
X001014Y017698D01*
X001210Y017539D02*
X000662Y017539D01*
X000662Y017381D02*
X004487Y017381D01*
X004487Y017439D02*
X004487Y017183D01*
X004584Y016947D01*
X004765Y016766D01*
X004958Y016686D01*
X004765Y016606D01*
X004584Y016425D01*
X004487Y016189D01*
X004487Y015933D01*
X004584Y015697D01*
X004765Y015516D01*
X005002Y015418D01*
X005258Y015418D01*
X005352Y015457D01*
X005325Y015392D01*
X005325Y015230D01*
X005387Y015082D01*
X005501Y014968D01*
X005649Y014906D01*
X005810Y014906D01*
X005879Y014934D01*
X005904Y014909D01*
X005876Y014882D01*
X005831Y014772D01*
X005831Y014653D01*
X005876Y014543D01*
X005961Y014459D01*
X005964Y014458D01*
X005916Y014410D01*
X005892Y014528D02*
X001615Y014528D01*
X001952Y015180D02*
X002211Y015073D01*
X002490Y015073D01*
X002748Y015180D01*
X002946Y015378D01*
X003053Y015636D01*
X003053Y015915D01*
X002946Y016173D01*
X002748Y016371D01*
X002490Y016478D01*
X002211Y016478D01*
X001952Y016371D01*
X001755Y016173D01*
X001648Y015915D01*
X001648Y015636D01*
X001755Y015378D01*
X001952Y015180D01*
X001997Y015162D02*
X000662Y015162D01*
X000662Y015320D02*
X001812Y015320D01*
X001713Y015479D02*
X000662Y015479D01*
X000662Y015637D02*
X001648Y015637D01*
X001648Y015796D02*
X000662Y015796D01*
X000662Y015954D02*
X001664Y015954D01*
X001730Y016113D02*
X000662Y016113D01*
X000662Y016271D02*
X001853Y016271D01*
X002094Y016430D02*
X000662Y016430D01*
X000662Y016588D02*
X004747Y016588D01*
X004811Y016747D02*
X000662Y016747D01*
X000662Y016905D02*
X004626Y016905D01*
X004536Y017064D02*
X000662Y017064D01*
X000662Y017222D02*
X004487Y017222D01*
X004487Y017439D02*
X004584Y017675D01*
X004765Y017856D01*
X004607Y017698D02*
X003765Y017698D01*
X003570Y017539D02*
X004528Y017539D01*
X005494Y017856D02*
X005675Y017675D01*
X005759Y017474D01*
X005787Y017540D01*
X005901Y017654D01*
X006049Y017716D01*
X006210Y017716D01*
X006359Y017654D01*
X006473Y017540D01*
X006501Y017474D01*
X006584Y017675D01*
X006765Y017856D01*
X006607Y017698D02*
X006255Y017698D01*
X006005Y017698D02*
X005653Y017698D01*
X005732Y017539D02*
X005786Y017539D01*
X006474Y017539D02*
X006528Y017539D01*
X007732Y017539D02*
X019787Y017539D01*
X019787Y017381D02*
X007773Y017381D01*
X007773Y017222D02*
X019787Y017222D01*
X019787Y017064D02*
X007724Y017064D01*
X007634Y016905D02*
X019787Y016905D01*
X019787Y016747D02*
X007449Y016747D01*
X007513Y016588D02*
X019787Y016588D01*
X019787Y016430D02*
X007671Y016430D01*
X007739Y016271D02*
X019787Y016271D01*
X019787Y016113D02*
X007773Y016113D01*
X007773Y015954D02*
X019787Y015954D01*
X019787Y015796D02*
X007716Y015796D01*
X007616Y015637D02*
X019787Y015637D01*
X019787Y015479D02*
X007406Y015479D01*
X006935Y015320D02*
X019787Y015320D01*
X019787Y015162D02*
X006906Y015162D01*
X006795Y015003D02*
X019787Y015003D01*
X019787Y014845D02*
X006399Y014845D01*
X006429Y014686D02*
X019787Y014686D01*
X019787Y014528D02*
X006368Y014528D01*
X006440Y014369D02*
X019787Y014369D01*
X019787Y014211D02*
X006468Y014211D01*
X006404Y014052D02*
X019787Y014052D01*
X019787Y013894D02*
X005109Y013894D01*
X005130Y014052D02*
X005934Y014052D01*
X005870Y014211D02*
X005047Y014211D01*
X005831Y014686D02*
X000662Y014686D01*
X000662Y014845D02*
X005861Y014845D01*
X005465Y015003D02*
X000662Y015003D01*
X002704Y015162D02*
X005353Y015162D01*
X005325Y015320D02*
X002888Y015320D01*
X002988Y015479D02*
X004854Y015479D01*
X004644Y015637D02*
X003053Y015637D01*
X003053Y015796D02*
X004543Y015796D01*
X004487Y015954D02*
X003037Y015954D01*
X002971Y016113D02*
X004487Y016113D01*
X004521Y016271D02*
X002848Y016271D01*
X002607Y016430D02*
X004589Y016430D01*
X003210Y017539D02*
X002651Y017539D01*
X002641Y017532D02*
X002701Y017576D01*
X002755Y017629D01*
X002799Y017690D01*
X002833Y017757D01*
X002856Y017829D01*
X002868Y017903D01*
X002868Y017921D01*
X002410Y017921D01*
X002410Y017961D01*
X002868Y017961D01*
X002868Y017979D01*
X002856Y018053D01*
X002833Y018125D01*
X002799Y018192D01*
X002755Y018253D01*
X002701Y018306D01*
X002641Y018350D01*
X002573Y018384D01*
X002502Y018408D01*
X002427Y018419D01*
X002410Y018419D01*
X002410Y017961D01*
X002370Y017961D01*
X002370Y018419D01*
X002352Y018419D01*
X002278Y018408D01*
X002206Y018384D01*
X002139Y018350D01*
X002078Y018306D01*
X002025Y018253D01*
X001981Y018192D01*
X001946Y018125D01*
X001923Y018053D01*
X001911Y017979D01*
X001911Y017961D01*
X002370Y017961D01*
X002370Y017921D01*
X002410Y017921D01*
X002410Y017463D01*
X002427Y017463D01*
X002502Y017474D01*
X002573Y017498D01*
X002641Y017532D01*
X002410Y017539D02*
X002370Y017539D01*
X002370Y017463D02*
X002370Y017921D01*
X001911Y017921D01*
X001911Y017903D01*
X001923Y017829D01*
X001946Y017757D01*
X001981Y017690D01*
X002025Y017629D01*
X002078Y017576D01*
X002139Y017532D01*
X002206Y017498D01*
X002278Y017474D01*
X002352Y017463D01*
X002370Y017463D01*
X002370Y017698D02*
X002410Y017698D01*
X002410Y017856D02*
X002370Y017856D01*
X002370Y018015D02*
X002410Y018015D01*
X002410Y018173D02*
X002370Y018173D01*
X002370Y018332D02*
X002410Y018332D01*
X002666Y018332D02*
X003184Y018332D01*
X003010Y018173D02*
X002808Y018173D01*
X002862Y018015D02*
X002950Y018015D01*
X002950Y017856D02*
X002861Y017856D01*
X002803Y017698D02*
X003014Y017698D01*
X002129Y017539D02*
X001570Y017539D01*
X001765Y017698D02*
X001977Y017698D01*
X001919Y017856D02*
X001830Y017856D01*
X001830Y018015D02*
X001917Y018015D01*
X001971Y018173D02*
X001770Y018173D01*
X001596Y018332D02*
X002114Y018332D01*
X004964Y013735D02*
X019787Y013735D01*
X019787Y017698D02*
X019262Y017698D01*
X019371Y017856D02*
X019787Y017856D01*
X019787Y018015D02*
X019376Y018015D01*
X019273Y018173D02*
X019787Y018173D01*
X002514Y005969D02*
X001646Y005969D01*
X001646Y005810D02*
X002412Y005810D01*
X002416Y005652D02*
X001646Y005652D01*
X001646Y005493D02*
X002525Y005493D01*
X002885Y005493D02*
X003036Y005493D01*
X003036Y005520D02*
X003036Y005401D01*
X003081Y005291D01*
X003165Y005207D01*
X003275Y005162D01*
X003394Y005162D01*
X003504Y005207D01*
X003588Y005291D01*
X003634Y005401D01*
X003634Y005520D01*
X003588Y005630D01*
X003504Y005714D01*
X003394Y005760D01*
X003275Y005760D01*
X003165Y005714D01*
X003081Y005630D01*
X003036Y005520D01*
X002993Y005652D02*
X003103Y005652D01*
X003566Y005652D02*
X004176Y005652D01*
X004183Y005669D02*
X004138Y005559D01*
X004138Y005441D01*
X004183Y005331D01*
X004268Y005246D01*
X004378Y005201D01*
X004496Y005201D01*
X004606Y005246D01*
X004691Y005331D01*
X004736Y005441D01*
X004736Y005559D01*
X004691Y005669D01*
X004606Y005754D01*
X004496Y005799D01*
X004378Y005799D01*
X004268Y005754D01*
X004183Y005669D01*
X004138Y005493D02*
X003634Y005493D01*
X003606Y005335D02*
X004182Y005335D01*
X004692Y005335D02*
X005071Y005335D01*
X005043Y005493D02*
X004736Y005493D01*
X004698Y005652D02*
X005111Y005652D01*
X005248Y005176D02*
X003430Y005176D01*
X003240Y005176D02*
X001646Y005176D01*
X001646Y005018D02*
X005796Y005018D01*
X005713Y005176D02*
X005437Y005176D01*
X005614Y005335D02*
X005734Y005335D01*
X005617Y004859D02*
X001632Y004859D01*
X001499Y004701D02*
X005555Y004701D01*
X005585Y004542D02*
X000662Y004542D01*
X000662Y004384D02*
X005772Y004384D01*
X003063Y005335D02*
X001646Y005335D01*
X001848Y003274D02*
X000662Y003274D01*
X000662Y003116D02*
X001728Y003116D01*
X001662Y002957D02*
X000662Y002957D01*
X000662Y002799D02*
X001648Y002799D01*
X001649Y002640D02*
X000662Y002640D01*
X000662Y002482D02*
X001715Y002482D01*
X001817Y002323D02*
X000662Y002323D01*
X000662Y002165D02*
X002009Y002165D01*
M02*
