G75*
G70*
%OFA0B0*%
%FSLAX24Y24*%
%IPPOS*%
%LPD*%
%AMOC8*
5,1,8,0,0,1.08239X$1,22.5*
%
%ADD10R,0.0394X0.0276*%
%ADD11R,0.0945X0.0945*%
%ADD12R,0.0492X0.1181*%
%ADD13C,0.0600*%
%ADD14R,0.0394X0.1575*%
%ADD15R,0.0492X0.1575*%
%ADD16C,0.0080*%
%ADD17C,0.0238*%
%ADD18C,0.0160*%
%ADD19C,0.0350*%
D10*
X030184Y007035D03*
X030184Y007429D03*
X030184Y007823D03*
X030184Y008217D03*
X030184Y008610D03*
X030184Y009004D03*
X030184Y009398D03*
X030184Y009791D03*
X030184Y010185D03*
X030184Y010579D03*
X030184Y010972D03*
X030184Y011366D03*
X030184Y011760D03*
X030184Y012154D03*
X030184Y012547D03*
D11*
X029003Y013610D03*
X029003Y005736D03*
D12*
X016483Y008453D03*
X015696Y008453D03*
X014909Y008453D03*
X014121Y008453D03*
X013334Y008453D03*
X012546Y008453D03*
X011759Y008453D03*
X011759Y016327D03*
X012546Y016327D03*
D13*
X027609Y017641D02*
X027609Y018241D01*
X028609Y018241D02*
X028609Y017641D01*
X029609Y017641D02*
X029609Y018241D01*
D14*
X013472Y017941D03*
X011464Y017941D03*
D15*
X012468Y017941D03*
D16*
X013019Y017902D02*
X013413Y017902D01*
X013472Y017941D01*
X013452Y017941D01*
X013452Y017232D01*
X012546Y016327D01*
X011916Y017941D02*
X011464Y017941D01*
X020696Y011720D02*
X021483Y011720D01*
X024869Y015106D01*
X024869Y014713D02*
X025302Y014280D01*
X025302Y012626D01*
X023885Y012626D01*
X023727Y012469D01*
X023727Y012154D01*
X023846Y012035D01*
X023846Y010382D01*
X022704Y010618D02*
X020617Y008531D01*
X017389Y008531D01*
X016759Y009161D01*
X016208Y009161D01*
X015696Y008650D01*
X015696Y008453D01*
X015420Y007744D02*
X014909Y008256D01*
X014909Y008453D01*
X014121Y008453D02*
X014121Y008650D01*
X015263Y009791D01*
X019633Y009791D01*
X019948Y010106D01*
X019515Y010382D02*
X021365Y010382D01*
X021956Y011051D02*
X014948Y011051D01*
X012546Y008650D01*
X012546Y008453D01*
X011759Y008453D02*
X011287Y008453D01*
X013334Y008453D02*
X013767Y008020D01*
X013767Y003492D01*
X014672Y003492D01*
X015224Y004752D02*
X015972Y004004D01*
X023334Y004004D01*
X023294Y003650D02*
X023649Y003650D01*
X024948Y004949D01*
X027153Y004949D01*
X027664Y005461D01*
X028294Y005736D02*
X026562Y005736D01*
X026562Y005500D01*
X026562Y005736D02*
X025932Y005736D01*
X025755Y005559D01*
X025735Y005579D01*
X023413Y005579D01*
X023137Y005303D01*
X019633Y005303D01*
X019515Y005539D02*
X020696Y006720D01*
X021798Y006720D01*
X021995Y006917D01*
X023413Y006917D01*
X023649Y007154D01*
X023649Y007232D01*
X023767Y007350D01*
X027231Y007350D01*
X028137Y007350D01*
X029436Y008650D01*
X029751Y008453D02*
X028373Y007075D01*
X025342Y007075D01*
X025184Y007508D02*
X025302Y007626D01*
X025342Y007626D01*
X027192Y009476D01*
X030105Y009476D01*
X030184Y009398D01*
X030184Y009791D02*
X029318Y009791D01*
X029279Y009752D01*
X029161Y009201D02*
X029751Y009201D01*
X030105Y008925D02*
X027074Y008925D01*
X025184Y007508D02*
X019161Y007508D01*
X017468Y005815D01*
X016444Y005028D02*
X024790Y005028D01*
X024987Y005224D01*
X025657Y005461D02*
X025755Y005559D01*
X025145Y004673D02*
X026050Y003768D01*
X028294Y005736D02*
X029003Y005736D01*
X028255Y006366D02*
X028688Y006799D01*
X028727Y006799D01*
X029948Y006799D01*
X030184Y007035D01*
X028255Y006366D02*
X022940Y006366D01*
X021956Y006642D02*
X024200Y006642D01*
X022979Y007862D02*
X024200Y009083D01*
X022979Y008256D02*
X022783Y008059D01*
X019042Y008059D01*
X018885Y007783D02*
X018609Y008059D01*
X018885Y007783D02*
X020027Y007783D01*
X019318Y007232D02*
X019554Y006996D01*
X021090Y006996D01*
X021562Y006248D02*
X021956Y006642D01*
X021562Y006248D02*
X020893Y006248D01*
X019515Y005539D02*
X015853Y005539D01*
X015735Y005421D01*
X016444Y005028D02*
X015893Y004476D01*
X019672Y003728D02*
X022901Y003728D01*
X017350Y008335D02*
X016759Y007744D01*
X015420Y007744D01*
X017350Y008335D02*
X021365Y008335D01*
X021365Y008886D01*
X022428Y009949D01*
X021956Y011051D02*
X022586Y011681D01*
X022192Y011957D02*
X023531Y011957D01*
X024003Y012350D02*
X025381Y010972D01*
X030184Y010972D01*
X030066Y011248D02*
X028019Y011248D01*
X026759Y011760D02*
X030184Y011760D01*
X030184Y012154D02*
X029200Y012154D01*
X029515Y012587D02*
X029003Y013098D01*
X029003Y013610D01*
X029003Y013807D01*
X027487Y015323D01*
X026168Y014004D01*
X027487Y015323D02*
X026129Y016681D01*
X025499Y016681D01*
X025460Y016642D01*
X029515Y012587D02*
X029554Y012587D01*
X029712Y012429D01*
X029751Y012429D01*
X030066Y012429D01*
X030184Y012547D01*
X030184Y011366D02*
X030066Y011248D01*
X030184Y009004D02*
X030105Y008925D01*
X020027Y008807D02*
X019397Y009437D01*
X019515Y010382D02*
X019397Y010500D01*
D17*
X019397Y010500D03*
X019948Y010106D03*
X019397Y009437D03*
X020027Y008807D03*
X021090Y008610D03*
X020027Y007783D03*
X019318Y007232D03*
X019042Y008059D03*
X018609Y008059D03*
X021090Y006996D03*
X020893Y006248D03*
X019633Y005303D03*
X020420Y004752D03*
X019672Y003728D03*
X022901Y003728D03*
X023294Y003650D03*
X023334Y004004D03*
X025145Y004673D03*
X025302Y004122D03*
X026050Y003768D03*
X024987Y005224D03*
X025657Y005461D03*
X026562Y005500D03*
X027664Y005461D03*
X028294Y005736D03*
X028727Y006799D03*
X027231Y007350D03*
X025342Y007075D03*
X025342Y007626D03*
X025342Y008217D03*
X024200Y009083D03*
X022979Y008256D03*
X022979Y007862D03*
X023649Y007232D03*
X024200Y006642D03*
X022940Y006366D03*
X023137Y005303D03*
X023727Y005303D03*
X029436Y008650D03*
X029751Y008453D03*
X029751Y009201D03*
X029161Y009201D03*
X029279Y009752D03*
X028019Y011248D03*
X026759Y011760D03*
X029200Y012154D03*
X029751Y012429D03*
X026168Y014004D03*
X024830Y014240D03*
X024869Y014713D03*
X024869Y015106D03*
X025460Y016642D03*
X024476Y017665D03*
X022704Y017035D03*
X020972Y018335D03*
X019003Y018335D03*
X017664Y016839D03*
X015696Y016839D03*
X013019Y017902D03*
X011916Y017941D03*
X020224Y013728D03*
X022192Y011957D03*
X022586Y011681D03*
X023531Y011957D03*
X024003Y012350D03*
X023255Y013020D03*
X020696Y011720D03*
X021365Y010382D03*
X022428Y009949D03*
X022704Y010618D03*
X023531Y010618D03*
X023846Y010382D03*
X027074Y008925D03*
X029515Y004280D03*
X017468Y005815D03*
X015735Y005421D03*
X015224Y004752D03*
X015893Y004476D03*
X014672Y003492D03*
X011287Y008453D03*
D18*
X010932Y002670D02*
X013014Y002670D01*
X013014Y005653D01*
X010932Y005653D01*
X010932Y002670D01*
X010932Y002799D02*
X013014Y002799D01*
X013014Y002957D02*
X010932Y002957D01*
X010932Y003116D02*
X013014Y003116D01*
X013014Y003274D02*
X010932Y003274D01*
X010932Y003433D02*
X013014Y003433D01*
X013014Y003591D02*
X010932Y003591D01*
X010932Y003750D02*
X013014Y003750D01*
X013014Y003908D02*
X010932Y003908D01*
X010932Y004067D02*
X013014Y004067D01*
X013014Y004225D02*
X010932Y004225D01*
X010932Y004384D02*
X013014Y004384D01*
X013014Y004542D02*
X010932Y004542D01*
X010932Y004701D02*
X013014Y004701D01*
X013014Y004859D02*
X010932Y004859D01*
X010932Y005018D02*
X013014Y005018D01*
X013014Y005176D02*
X010932Y005176D01*
X010932Y005335D02*
X013014Y005335D01*
X013014Y005493D02*
X010932Y005493D01*
X010932Y005652D02*
X013014Y005652D01*
X013574Y005652D02*
X015543Y005652D01*
X015566Y005675D02*
X015676Y005720D01*
X015795Y005720D01*
X015797Y005719D01*
X017184Y005719D01*
X017169Y005755D01*
X017169Y005874D01*
X017214Y005984D01*
X017298Y006068D01*
X017408Y006114D01*
X017512Y006114D01*
X018981Y007582D01*
X019002Y007603D01*
X018810Y007603D01*
X018654Y007760D01*
X018550Y007760D01*
X018440Y007806D01*
X018356Y007890D01*
X018310Y008000D01*
X018310Y008119D01*
X018325Y008155D01*
X017424Y008155D01*
X016939Y007670D01*
X016855Y007585D01*
X017127Y007403D01*
X017336Y007090D01*
X017410Y006720D01*
X017336Y006351D01*
X017127Y006038D01*
X017127Y006038D01*
X016814Y005828D01*
X016814Y005828D01*
X016444Y005755D01*
X016074Y005828D01*
X015761Y006038D01*
X015552Y006351D01*
X015478Y006720D01*
X015552Y007090D01*
X015552Y007090D01*
X015761Y007403D01*
X015761Y007403D01*
X016002Y007564D01*
X015346Y007564D01*
X015188Y007722D01*
X014605Y007722D01*
X014523Y007804D01*
X014523Y008796D01*
X014507Y008781D01*
X014507Y007804D01*
X014425Y007722D01*
X013817Y007722D01*
X013746Y007793D01*
X013723Y007753D01*
X013689Y007719D01*
X013649Y007696D01*
X013603Y007684D01*
X013377Y007684D01*
X013377Y008410D01*
X013291Y008410D01*
X013291Y007684D01*
X013064Y007684D01*
X013019Y007696D01*
X012978Y007719D01*
X012945Y007753D01*
X012921Y007793D01*
X012850Y007722D01*
X012242Y007722D01*
X012160Y007804D01*
X012160Y009101D01*
X012242Y009183D01*
X012826Y009183D01*
X014873Y011231D01*
X021881Y011231D01*
X022287Y011637D01*
X022287Y011741D01*
X022332Y011851D01*
X022416Y011935D01*
X022526Y011980D01*
X022645Y011980D01*
X022755Y011935D01*
X022839Y011851D01*
X022885Y011741D01*
X022885Y011622D01*
X022839Y011512D01*
X022755Y011428D01*
X022645Y011382D01*
X022541Y011382D01*
X022136Y010977D01*
X022030Y010871D01*
X015023Y010871D01*
X013291Y009139D01*
X013377Y009139D01*
X013377Y009222D02*
X013603Y009222D01*
X013649Y009210D01*
X013689Y009186D01*
X013723Y009153D01*
X013746Y009112D01*
X013817Y009183D01*
X014400Y009183D01*
X015188Y009971D01*
X019558Y009971D01*
X019649Y010062D01*
X019649Y010166D01*
X019664Y010202D01*
X019459Y010202D01*
X019456Y010201D01*
X019337Y010201D01*
X019227Y010246D01*
X019143Y010331D01*
X019098Y010441D01*
X019098Y010559D01*
X019143Y010669D01*
X019227Y010754D01*
X019337Y010799D01*
X019456Y010799D01*
X019566Y010754D01*
X019650Y010669D01*
X019695Y010562D01*
X021122Y010562D01*
X021196Y010635D01*
X021306Y010681D01*
X021425Y010681D01*
X021535Y010635D01*
X021619Y010551D01*
X021664Y010441D01*
X021664Y010322D01*
X021619Y010212D01*
X021535Y010128D01*
X021425Y010083D01*
X021306Y010083D01*
X021196Y010128D01*
X021122Y010202D01*
X020232Y010202D01*
X020247Y010166D01*
X020247Y010047D01*
X020201Y009937D01*
X020117Y009853D01*
X020007Y009807D01*
X019903Y009807D01*
X019813Y009717D01*
X019708Y009611D01*
X019645Y009611D01*
X019650Y009606D01*
X019696Y009496D01*
X019696Y009393D01*
X019982Y009106D01*
X020086Y009106D01*
X020196Y009061D01*
X020280Y008976D01*
X020326Y008867D01*
X020326Y008748D01*
X020311Y008711D01*
X020543Y008711D01*
X022405Y010574D01*
X022405Y010678D01*
X022450Y010788D01*
X022534Y010872D01*
X022644Y010917D01*
X022763Y010917D01*
X022873Y010872D01*
X022957Y010788D01*
X023003Y010678D01*
X023003Y010559D01*
X022957Y010449D01*
X022873Y010365D01*
X022763Y010319D01*
X022659Y010319D01*
X022559Y010218D01*
X022598Y010202D01*
X022682Y010118D01*
X022727Y010008D01*
X022727Y009889D01*
X022682Y009779D01*
X022598Y009695D01*
X022488Y009650D01*
X022384Y009650D01*
X021545Y008811D01*
X021545Y008260D01*
X021524Y008239D01*
X022680Y008239D01*
X022680Y008315D01*
X022726Y008425D01*
X022810Y008509D01*
X022920Y008555D01*
X023039Y008555D01*
X023149Y008509D01*
X023233Y008425D01*
X023249Y008386D01*
X023901Y009038D01*
X023901Y009142D01*
X023946Y009252D01*
X024031Y009336D01*
X024140Y009382D01*
X024259Y009382D01*
X024369Y009336D01*
X024453Y009252D01*
X024499Y009142D01*
X024499Y009023D01*
X024453Y008913D01*
X024369Y008829D01*
X024259Y008784D01*
X024155Y008784D01*
X023279Y007907D01*
X023279Y007803D01*
X023233Y007693D01*
X023228Y007688D01*
X025044Y007688D01*
X025088Y007795D01*
X025172Y007880D01*
X025273Y007921D01*
X025172Y007963D01*
X025088Y008047D01*
X025043Y008157D01*
X025043Y008276D01*
X025088Y008386D01*
X025172Y008470D01*
X025282Y008516D01*
X025401Y008516D01*
X025511Y008470D01*
X025595Y008386D01*
X025641Y008276D01*
X025641Y008180D01*
X027117Y009656D01*
X029809Y009656D01*
X029809Y009791D01*
X030184Y009791D01*
X030184Y009791D01*
X029809Y009791D01*
X029809Y009953D01*
X029821Y009998D01*
X029845Y010039D01*
X029847Y010041D01*
X029847Y010381D01*
X029848Y010382D01*
X029847Y010383D01*
X029847Y010775D01*
X029848Y010776D01*
X029847Y010777D01*
X029847Y010792D01*
X025306Y010792D01*
X024048Y012051D01*
X024026Y012051D01*
X024026Y010625D01*
X024099Y010551D01*
X024145Y010441D01*
X024145Y010322D01*
X024099Y010212D01*
X024015Y010128D01*
X023905Y010083D01*
X023786Y010083D01*
X023676Y010128D01*
X023592Y010212D01*
X023548Y010319D01*
X023471Y010319D01*
X023361Y010365D01*
X023277Y010449D01*
X023232Y010559D01*
X023232Y010678D01*
X023277Y010788D01*
X023361Y010872D01*
X023471Y010917D01*
X023590Y010917D01*
X023666Y010886D01*
X023666Y011961D01*
X023547Y012079D01*
X023547Y012543D01*
X023653Y012649D01*
X023705Y012701D01*
X023810Y012806D01*
X025122Y012806D01*
X025122Y014123D01*
X025097Y014062D01*
X025008Y013973D01*
X024893Y013925D01*
X024606Y013925D01*
X023433Y012753D01*
X023318Y012705D01*
X023192Y012705D01*
X023077Y012753D01*
X022988Y012841D01*
X022950Y012933D01*
X021663Y011646D01*
X021558Y011540D01*
X020939Y011540D01*
X020865Y011467D01*
X020755Y011421D01*
X020636Y011421D01*
X020527Y011467D01*
X020442Y011551D01*
X020397Y011661D01*
X020397Y011780D01*
X020442Y011890D01*
X020527Y011974D01*
X020636Y012020D01*
X020755Y012020D01*
X020865Y011974D01*
X020939Y011900D01*
X021409Y011900D01*
X024414Y014906D01*
X024389Y014906D01*
X024240Y014968D01*
X024126Y015082D01*
X024064Y015230D01*
X024064Y015392D01*
X024091Y015457D01*
X023997Y015418D01*
X023741Y015418D01*
X023505Y015516D01*
X023324Y015697D01*
X023226Y015933D01*
X023226Y016189D01*
X023324Y016425D01*
X023505Y016606D01*
X023697Y016686D01*
X023505Y016766D01*
X023324Y016947D01*
X023226Y017183D01*
X023226Y017439D01*
X023324Y017675D01*
X023505Y017856D01*
X013808Y017856D01*
X013808Y017698D02*
X023346Y017698D01*
X023267Y017539D02*
X013808Y017539D01*
X013808Y017381D02*
X023226Y017381D01*
X023226Y017222D02*
X022940Y017222D01*
X022957Y017205D02*
X023003Y017095D01*
X023003Y016976D01*
X022957Y016866D01*
X022873Y016782D01*
X022763Y016736D01*
X022644Y016736D01*
X022534Y016782D01*
X022450Y016866D01*
X022405Y016976D01*
X022405Y017095D01*
X022450Y017205D01*
X022534Y017289D01*
X022644Y017334D01*
X022763Y017334D01*
X022873Y017289D01*
X022957Y017205D01*
X023003Y017064D02*
X023275Y017064D01*
X023365Y016905D02*
X022974Y016905D01*
X022788Y016747D02*
X023550Y016747D01*
X023487Y016588D02*
X017837Y016588D01*
X017834Y016585D02*
X017724Y016540D01*
X017605Y016540D01*
X017495Y016585D01*
X017411Y016669D01*
X017365Y016779D01*
X017365Y016898D01*
X017411Y017008D01*
X017495Y017092D01*
X017605Y017138D01*
X017724Y017138D01*
X017834Y017092D01*
X017918Y017008D01*
X017964Y016898D01*
X017964Y016779D01*
X017918Y016669D01*
X017834Y016585D01*
X017950Y016747D02*
X022619Y016747D01*
X022434Y016905D02*
X017961Y016905D01*
X017862Y017064D02*
X022405Y017064D01*
X022468Y017222D02*
X013808Y017222D01*
X013808Y017096D02*
X013726Y017014D01*
X013488Y017014D01*
X012932Y016458D01*
X012932Y015678D01*
X012850Y015596D01*
X012242Y015596D01*
X012160Y015678D01*
X012160Y016873D01*
X012145Y016858D01*
X012145Y015678D01*
X012063Y015596D01*
X011455Y015596D01*
X011373Y015678D01*
X011373Y016975D01*
X011411Y017014D01*
X011212Y017014D01*
X011212Y008746D01*
X011227Y008752D01*
X011346Y008752D01*
X011373Y008741D01*
X011373Y009101D01*
X011455Y009183D01*
X012063Y009183D01*
X012145Y009101D01*
X012145Y007804D01*
X012063Y007722D01*
X011455Y007722D01*
X011373Y007804D01*
X011373Y008165D01*
X011346Y008154D01*
X011227Y008154D01*
X011212Y008160D01*
X011212Y006213D01*
X013350Y006213D01*
X013453Y006170D01*
X013532Y006092D01*
X013574Y005989D01*
X013574Y002334D01*
X013532Y002231D01*
X013453Y002152D01*
X013350Y002110D01*
X011212Y002110D01*
X011212Y000701D01*
X030337Y000701D01*
X030337Y004669D01*
X029577Y004669D01*
X029474Y004711D01*
X029396Y004790D01*
X029353Y004893D01*
X029353Y005085D01*
X029083Y005085D01*
X029083Y005656D01*
X028923Y005656D01*
X028923Y005085D01*
X028507Y005085D01*
X028462Y005098D01*
X028421Y005121D01*
X028388Y005154D01*
X028364Y005195D01*
X028352Y005240D01*
X028352Y005656D01*
X028923Y005656D01*
X028923Y005816D01*
X028352Y005816D01*
X028352Y006209D01*
X028330Y006186D01*
X023183Y006186D01*
X023109Y006113D01*
X023000Y006067D01*
X022881Y006067D01*
X022771Y006113D01*
X022687Y006197D01*
X022641Y006307D01*
X022641Y006426D01*
X022656Y006462D01*
X022030Y006462D01*
X021742Y006173D01*
X021637Y006068D01*
X021136Y006068D01*
X021062Y005995D01*
X020952Y005949D01*
X020833Y005949D01*
X020723Y005995D01*
X020639Y006079D01*
X020594Y006189D01*
X020594Y006308D01*
X020634Y006403D01*
X019589Y005359D01*
X016033Y005359D01*
X015989Y005252D01*
X015905Y005168D01*
X015795Y005122D01*
X015676Y005122D01*
X015566Y005168D01*
X015482Y005252D01*
X015436Y005362D01*
X015436Y005481D01*
X015482Y005591D01*
X015566Y005675D01*
X015441Y005493D02*
X013574Y005493D01*
X013574Y005335D02*
X015447Y005335D01*
X015557Y005176D02*
X013574Y005176D01*
X013574Y005018D02*
X015084Y005018D01*
X015054Y005005D02*
X015164Y005051D01*
X015283Y005051D01*
X015393Y005005D01*
X015477Y004921D01*
X015523Y004811D01*
X015523Y004707D01*
X015623Y004607D01*
X015639Y004646D01*
X015723Y004730D01*
X015833Y004775D01*
X015937Y004775D01*
X016264Y005102D01*
X016369Y005208D01*
X023443Y005208D01*
X023428Y005244D01*
X023428Y005363D01*
X023474Y005473D01*
X023558Y005557D01*
X023668Y005602D01*
X023787Y005602D01*
X023897Y005557D01*
X023981Y005473D01*
X024027Y005363D01*
X024027Y005244D01*
X024012Y005208D01*
X024688Y005208D01*
X024688Y005284D01*
X024734Y005394D01*
X024818Y005478D01*
X024928Y005523D01*
X025047Y005523D01*
X025157Y005478D01*
X025241Y005394D01*
X025286Y005284D01*
X025286Y005165D01*
X025271Y005129D01*
X027078Y005129D01*
X027365Y005416D01*
X027365Y005520D01*
X027411Y005630D01*
X027495Y005714D01*
X027605Y005760D01*
X027724Y005760D01*
X027834Y005714D01*
X027918Y005630D01*
X027964Y005520D01*
X027964Y005401D01*
X027918Y005291D01*
X027834Y005207D01*
X027724Y005162D01*
X027620Y005162D01*
X027333Y004874D01*
X027227Y004769D01*
X025429Y004769D01*
X025444Y004733D01*
X025444Y004629D01*
X026006Y004067D01*
X026110Y004067D01*
X029305Y004067D01*
X029345Y004026D02*
X029261Y004110D01*
X029216Y004220D01*
X029216Y004339D01*
X029261Y004449D01*
X029345Y004533D01*
X029455Y004579D01*
X029574Y004579D01*
X029684Y004533D01*
X029768Y004449D01*
X029814Y004339D01*
X029814Y004220D01*
X029768Y004110D01*
X029684Y004026D01*
X029574Y003980D01*
X029455Y003980D01*
X029345Y004026D01*
X029216Y004225D02*
X025847Y004225D01*
X025689Y004384D02*
X029234Y004384D01*
X029368Y004542D02*
X025530Y004542D01*
X025444Y004701D02*
X029500Y004701D01*
X029367Y004859D02*
X027318Y004859D01*
X027476Y005018D02*
X029353Y005018D01*
X029083Y005176D02*
X028923Y005176D01*
X028923Y005335D02*
X029083Y005335D01*
X029083Y005493D02*
X028923Y005493D01*
X028923Y005652D02*
X029083Y005652D01*
X029083Y005816D02*
X029083Y006387D01*
X029353Y006387D01*
X029353Y006579D01*
X029370Y006619D01*
X028970Y006619D01*
X028897Y006546D01*
X028787Y006500D01*
X028668Y006500D01*
X028651Y006507D01*
X028531Y006387D01*
X028923Y006387D01*
X028923Y005816D01*
X029083Y005816D01*
X029083Y005969D02*
X028923Y005969D01*
X028923Y006127D02*
X029083Y006127D01*
X029083Y006286D02*
X028923Y006286D01*
X028588Y006444D02*
X029353Y006444D01*
X029363Y006603D02*
X028954Y006603D01*
X028970Y006979D02*
X029847Y006979D01*
X029847Y007231D01*
X029848Y007232D01*
X029847Y007233D01*
X029847Y007625D01*
X029848Y007626D01*
X029847Y007627D01*
X029847Y008019D01*
X029848Y008020D01*
X029847Y008021D01*
X029847Y008169D01*
X029811Y008154D01*
X029707Y008154D01*
X028639Y007086D01*
X028668Y007098D01*
X028787Y007098D01*
X028897Y007053D01*
X028970Y006979D01*
X028835Y007078D02*
X029847Y007078D01*
X029847Y007237D02*
X028790Y007237D01*
X028948Y007395D02*
X029847Y007395D01*
X029847Y007554D02*
X029107Y007554D01*
X029265Y007712D02*
X029847Y007712D01*
X029847Y007871D02*
X029424Y007871D01*
X029582Y008029D02*
X029847Y008029D01*
X029394Y008351D02*
X029392Y008351D01*
X028317Y007276D01*
X028296Y007255D01*
X028299Y007255D01*
X029394Y008351D01*
X029390Y008346D02*
X029387Y008346D01*
X029232Y008188D02*
X029229Y008188D01*
X029073Y008029D02*
X029070Y008029D01*
X028915Y007871D02*
X028912Y007871D01*
X028756Y007712D02*
X028753Y007712D01*
X028598Y007554D02*
X028595Y007554D01*
X028439Y007395D02*
X028436Y007395D01*
X028086Y007554D02*
X027451Y007554D01*
X027474Y007530D02*
X028062Y007530D01*
X029137Y008605D01*
X029137Y008709D01*
X029152Y008745D01*
X027317Y008745D01*
X027243Y008672D01*
X027133Y008626D01*
X027014Y008626D01*
X026905Y008672D01*
X026820Y008756D01*
X026793Y008823D01*
X025641Y007670D01*
X025641Y007566D01*
X025626Y007530D01*
X026988Y007530D01*
X027062Y007604D01*
X027172Y007649D01*
X027291Y007649D01*
X027401Y007604D01*
X027474Y007530D01*
X027012Y007554D02*
X025635Y007554D01*
X025682Y007712D02*
X028244Y007712D01*
X028403Y007871D02*
X025841Y007871D01*
X025999Y008029D02*
X028561Y008029D01*
X028720Y008188D02*
X026158Y008188D01*
X026316Y008346D02*
X028878Y008346D01*
X029037Y008505D02*
X026475Y008505D01*
X026634Y008663D02*
X026925Y008663D01*
X026793Y008822D02*
X026792Y008822D01*
X026600Y009139D02*
X024499Y009139D01*
X024481Y008980D02*
X026441Y008980D01*
X026283Y008822D02*
X024352Y008822D01*
X024035Y008663D02*
X026124Y008663D01*
X025966Y008505D02*
X025427Y008505D01*
X025256Y008505D02*
X023877Y008505D01*
X023718Y008346D02*
X025072Y008346D01*
X025043Y008188D02*
X023560Y008188D01*
X023401Y008029D02*
X025106Y008029D01*
X025164Y007871D02*
X023279Y007871D01*
X023241Y007712D02*
X025054Y007712D01*
X025641Y008188D02*
X025649Y008188D01*
X025612Y008346D02*
X025807Y008346D01*
X027223Y008663D02*
X029137Y008663D01*
X029827Y008745D02*
X029847Y008737D01*
X029847Y008745D01*
X029827Y008745D01*
X029847Y009105D02*
X029847Y009200D01*
X029848Y009201D01*
X029847Y009202D01*
X029847Y009296D01*
X027267Y009296D01*
X027177Y009206D01*
X027243Y009179D01*
X027317Y009105D01*
X029847Y009105D01*
X029847Y009139D02*
X027283Y009139D01*
X026917Y009456D02*
X022190Y009456D01*
X022348Y009614D02*
X027075Y009614D01*
X026758Y009297D02*
X024408Y009297D01*
X023992Y009297D02*
X022031Y009297D01*
X021873Y009139D02*
X023901Y009139D01*
X023843Y008980D02*
X021714Y008980D01*
X021556Y008822D02*
X023684Y008822D01*
X023526Y008663D02*
X021545Y008663D01*
X021545Y008505D02*
X022805Y008505D01*
X022693Y008346D02*
X021545Y008346D01*
X020653Y008822D02*
X020326Y008822D01*
X020276Y008980D02*
X020811Y008980D01*
X020970Y009139D02*
X019950Y009139D01*
X019791Y009297D02*
X021128Y009297D01*
X021287Y009456D02*
X019696Y009456D01*
X019710Y009614D02*
X021445Y009614D01*
X021604Y009773D02*
X019869Y009773D01*
X020196Y009931D02*
X021762Y009931D01*
X021921Y010090D02*
X021442Y010090D01*
X021289Y010090D02*
X020247Y010090D01*
X019649Y010090D02*
X014241Y010090D01*
X014400Y010248D02*
X019226Y010248D01*
X019112Y010407D02*
X014558Y010407D01*
X014717Y010565D02*
X019100Y010565D01*
X019198Y010724D02*
X014875Y010724D01*
X014683Y011041D02*
X011212Y011041D01*
X011212Y011199D02*
X014841Y011199D01*
X014524Y010882D02*
X011212Y010882D01*
X011212Y010724D02*
X014366Y010724D01*
X014207Y010565D02*
X011212Y010565D01*
X011212Y010407D02*
X014049Y010407D01*
X013890Y010248D02*
X011212Y010248D01*
X011212Y010090D02*
X013732Y010090D01*
X013573Y009931D02*
X011212Y009931D01*
X011212Y009773D02*
X013415Y009773D01*
X013256Y009614D02*
X011212Y009614D01*
X011212Y009456D02*
X013098Y009456D01*
X012939Y009297D02*
X011212Y009297D01*
X011212Y009139D02*
X011410Y009139D01*
X011373Y008980D02*
X011212Y008980D01*
X011212Y008822D02*
X011373Y008822D01*
X012145Y008822D02*
X012160Y008822D01*
X012160Y008980D02*
X012145Y008980D01*
X012108Y009139D02*
X012198Y009139D01*
X012160Y008663D02*
X012145Y008663D01*
X012160Y008505D02*
X012145Y008505D01*
X012160Y008346D02*
X012145Y008346D01*
X012160Y008188D02*
X012145Y008188D01*
X012160Y008029D02*
X012145Y008029D01*
X012160Y007871D02*
X012145Y007871D01*
X011996Y007409D02*
X011868Y007462D01*
X011729Y007462D01*
X011601Y007409D01*
X011503Y007311D01*
X011450Y007183D01*
X011450Y007045D01*
X011503Y006917D01*
X011601Y006819D01*
X011729Y006766D01*
X011868Y006766D01*
X011996Y006819D01*
X012093Y006917D01*
X012146Y007045D01*
X012146Y007183D01*
X012093Y007311D01*
X011996Y007409D01*
X012010Y007395D02*
X013162Y007395D01*
X013176Y007409D02*
X013304Y007462D01*
X013442Y007462D01*
X013570Y007409D01*
X013668Y007311D01*
X013721Y007183D01*
X013721Y007045D01*
X013668Y006917D01*
X013570Y006819D01*
X013442Y006766D01*
X013304Y006766D01*
X013176Y006819D01*
X013078Y006917D01*
X013025Y007045D01*
X013025Y007183D01*
X013078Y007311D01*
X013176Y007409D01*
X013047Y007237D02*
X012124Y007237D01*
X012146Y007078D02*
X013025Y007078D01*
X013077Y006920D02*
X012095Y006920D01*
X011502Y006920D02*
X011212Y006920D01*
X011212Y007078D02*
X011450Y007078D01*
X011472Y007237D02*
X011212Y007237D01*
X011212Y007395D02*
X011587Y007395D01*
X011212Y007554D02*
X015986Y007554D01*
X015761Y007403D02*
X015761Y007403D01*
X015756Y007395D02*
X013584Y007395D01*
X013699Y007237D02*
X015650Y007237D01*
X015549Y007078D02*
X013721Y007078D01*
X013669Y006920D02*
X015518Y006920D01*
X015486Y006761D02*
X011212Y006761D01*
X011212Y006603D02*
X015502Y006603D01*
X015478Y006720D02*
X015478Y006720D01*
X015533Y006444D02*
X011212Y006444D01*
X011212Y006286D02*
X015595Y006286D01*
X015701Y006127D02*
X013496Y006127D01*
X013574Y005969D02*
X015864Y005969D01*
X015761Y006038D02*
X015761Y006038D01*
X016074Y005828D02*
X016074Y005828D01*
X016164Y005810D02*
X013574Y005810D01*
X013574Y004859D02*
X014944Y004859D01*
X014924Y004811D02*
X014970Y004921D01*
X015054Y005005D01*
X014924Y004811D02*
X014924Y004692D01*
X014970Y004583D01*
X015054Y004498D01*
X015164Y004453D01*
X015268Y004453D01*
X015792Y003929D01*
X015897Y003824D01*
X019388Y003824D01*
X019373Y003788D01*
X019373Y003669D01*
X019419Y003559D01*
X019503Y003475D01*
X019613Y003429D01*
X019732Y003429D01*
X019842Y003475D01*
X019915Y003548D01*
X022658Y003548D01*
X022731Y003475D01*
X022841Y003429D01*
X022960Y003429D01*
X023053Y003468D01*
X023125Y003396D01*
X023235Y003351D01*
X023354Y003351D01*
X023464Y003396D01*
X023537Y003470D01*
X023723Y003470D01*
X023829Y003575D01*
X024852Y004598D01*
X024891Y004504D01*
X024975Y004420D01*
X025085Y004374D01*
X025131Y004374D01*
X025049Y004291D01*
X025003Y004182D01*
X025003Y004063D01*
X025049Y003953D01*
X025133Y003869D01*
X025243Y003823D01*
X025362Y003823D01*
X025472Y003869D01*
X025556Y003953D01*
X025572Y003992D01*
X025751Y003812D01*
X025751Y003708D01*
X025797Y003598D01*
X025881Y003514D01*
X025991Y003469D01*
X026110Y003469D01*
X026220Y003514D01*
X026304Y003598D01*
X026349Y003708D01*
X026349Y003827D01*
X026304Y003937D01*
X026220Y004021D01*
X026110Y004067D01*
X026316Y003908D02*
X030337Y003908D01*
X030337Y003750D02*
X026349Y003750D01*
X026297Y003591D02*
X028153Y003591D01*
X028279Y003676D02*
X027966Y003466D01*
X027966Y003466D01*
X027756Y003153D01*
X027683Y002783D01*
X027756Y002414D01*
X027756Y002414D01*
X027966Y002101D01*
X027966Y002101D01*
X027966Y002101D01*
X028279Y001891D01*
X028279Y001891D01*
X028649Y001818D01*
X028649Y001818D01*
X029018Y001891D01*
X029018Y001891D01*
X029332Y002101D01*
X029332Y002101D01*
X029541Y002414D01*
X029541Y002414D01*
X029615Y002783D01*
X029615Y002783D01*
X029541Y003153D01*
X029541Y003153D01*
X029332Y003466D01*
X029332Y003466D01*
X029332Y003466D01*
X029018Y003676D01*
X029018Y003676D01*
X028649Y003749D01*
X028649Y003749D01*
X028279Y003676D01*
X028279Y003676D01*
X027966Y003466D02*
X027966Y003466D01*
X027943Y003433D02*
X023500Y003433D01*
X023845Y003591D02*
X025804Y003591D01*
X025751Y003750D02*
X024003Y003750D01*
X024162Y003908D02*
X025093Y003908D01*
X025003Y004067D02*
X024320Y004067D01*
X024479Y004225D02*
X025021Y004225D01*
X025062Y004384D02*
X024637Y004384D01*
X024796Y004542D02*
X024875Y004542D01*
X024592Y004848D02*
X020704Y004848D01*
X020719Y004811D01*
X020719Y004692D01*
X020674Y004583D01*
X020590Y004498D01*
X020480Y004453D01*
X020361Y004453D01*
X020251Y004498D01*
X020167Y004583D01*
X020121Y004692D01*
X020121Y004811D01*
X020136Y004848D01*
X016519Y004848D01*
X016192Y004521D01*
X016192Y004417D01*
X016146Y004307D01*
X016062Y004223D01*
X016023Y004207D01*
X016046Y004184D01*
X023091Y004184D01*
X023164Y004257D01*
X023274Y004303D01*
X023393Y004303D01*
X023503Y004257D01*
X023587Y004173D01*
X023633Y004063D01*
X023633Y003944D01*
X023593Y003849D01*
X024592Y004848D01*
X024445Y004701D02*
X020719Y004701D01*
X020634Y004542D02*
X024287Y004542D01*
X024128Y004384D02*
X016178Y004384D01*
X016213Y004542D02*
X020207Y004542D01*
X020121Y004701D02*
X016372Y004701D01*
X016021Y004859D02*
X015503Y004859D01*
X015529Y004701D02*
X015694Y004701D01*
X015363Y005018D02*
X016180Y005018D01*
X016338Y005176D02*
X015913Y005176D01*
X016023Y005335D02*
X023428Y005335D01*
X023495Y005493D02*
X019723Y005493D01*
X019882Y005652D02*
X027433Y005652D01*
X027365Y005493D02*
X025120Y005493D01*
X025265Y005335D02*
X027284Y005335D01*
X027126Y005176D02*
X025286Y005176D01*
X024855Y005493D02*
X023960Y005493D01*
X024027Y005335D02*
X024709Y005335D01*
X023970Y004225D02*
X023535Y004225D01*
X023631Y004067D02*
X023811Y004067D01*
X023653Y003908D02*
X023618Y003908D01*
X023132Y004225D02*
X016065Y004225D01*
X015654Y004067D02*
X013574Y004067D01*
X013574Y004225D02*
X015496Y004225D01*
X015337Y004384D02*
X013574Y004384D01*
X013574Y004542D02*
X015010Y004542D01*
X014924Y004701D02*
X013574Y004701D01*
X013574Y003908D02*
X015813Y003908D01*
X013574Y003750D02*
X019373Y003750D01*
X019405Y003591D02*
X013574Y003591D01*
X013574Y003433D02*
X019604Y003433D01*
X019740Y003433D02*
X022833Y003433D01*
X022969Y003433D02*
X023088Y003433D01*
X025511Y003908D02*
X025655Y003908D01*
X027756Y003153D02*
X027756Y003153D01*
X027749Y003116D02*
X013574Y003116D01*
X013574Y003274D02*
X027837Y003274D01*
X027717Y002957D02*
X013574Y002957D01*
X013574Y002799D02*
X027686Y002799D01*
X027711Y002640D02*
X013574Y002640D01*
X013574Y002482D02*
X027743Y002482D01*
X027817Y002323D02*
X013570Y002323D01*
X013465Y002165D02*
X027923Y002165D01*
X028107Y002006D02*
X011212Y002006D01*
X011212Y001848D02*
X028497Y001848D01*
X028800Y001848D02*
X030337Y001848D01*
X030337Y002006D02*
X029191Y002006D01*
X029332Y002101D02*
X029332Y002101D01*
X029375Y002165D02*
X030337Y002165D01*
X030337Y002323D02*
X029481Y002323D01*
X029555Y002482D02*
X030337Y002482D01*
X030337Y002640D02*
X029586Y002640D01*
X029612Y002799D02*
X030337Y002799D01*
X030337Y002957D02*
X029580Y002957D01*
X029548Y003116D02*
X030337Y003116D01*
X030337Y003274D02*
X029460Y003274D01*
X029354Y003433D02*
X030337Y003433D01*
X030337Y003591D02*
X029145Y003591D01*
X029725Y004067D02*
X030337Y004067D01*
X030337Y004225D02*
X029814Y004225D01*
X029795Y004384D02*
X030337Y004384D01*
X030337Y004542D02*
X029662Y004542D01*
X029913Y005229D02*
X030617Y005229D01*
X030617Y006244D01*
X029913Y006244D01*
X029913Y005229D01*
X029913Y005335D02*
X030617Y005335D01*
X030617Y005493D02*
X029913Y005493D01*
X029913Y005652D02*
X030617Y005652D01*
X030617Y005810D02*
X029913Y005810D01*
X029913Y005969D02*
X030617Y005969D01*
X030617Y006127D02*
X029913Y006127D01*
X028923Y005810D02*
X020040Y005810D01*
X020199Y005969D02*
X020786Y005969D01*
X021000Y005969D02*
X028352Y005969D01*
X028352Y006127D02*
X023124Y006127D01*
X022756Y006127D02*
X021696Y006127D01*
X021854Y006286D02*
X022650Y006286D01*
X022649Y006444D02*
X022013Y006444D01*
X021600Y006540D02*
X021488Y006428D01*
X021136Y006428D01*
X021062Y006502D01*
X020968Y006540D01*
X021600Y006540D01*
X021504Y006444D02*
X021120Y006444D01*
X020817Y006540D02*
X020771Y006540D01*
X020737Y006507D01*
X020817Y006540D01*
X020537Y006816D02*
X019480Y006816D01*
X019374Y006922D01*
X019363Y006933D01*
X019259Y006933D01*
X019149Y006979D01*
X019065Y007063D01*
X019037Y007130D01*
X017767Y005859D01*
X017767Y005755D01*
X017752Y005719D01*
X019440Y005719D01*
X020516Y006795D01*
X020537Y006816D01*
X020482Y006761D02*
X018669Y006761D01*
X018827Y006920D02*
X019376Y006920D01*
X019058Y007078D02*
X018986Y007078D01*
X018793Y007395D02*
X017132Y007395D01*
X017127Y007403D02*
X017127Y007403D01*
X017127Y007403D01*
X017238Y007237D02*
X018635Y007237D01*
X018476Y007078D02*
X017339Y007078D01*
X017336Y007090D02*
X017336Y007090D01*
X017370Y006920D02*
X018318Y006920D01*
X018159Y006761D02*
X017402Y006761D01*
X017410Y006720D02*
X017410Y006720D01*
X017386Y006603D02*
X018001Y006603D01*
X017842Y006444D02*
X017355Y006444D01*
X017336Y006351D02*
X017336Y006351D01*
X017293Y006286D02*
X017684Y006286D01*
X017525Y006127D02*
X017187Y006127D01*
X017127Y006038D02*
X017127Y006038D01*
X017208Y005969D02*
X017024Y005969D01*
X017169Y005810D02*
X016724Y005810D01*
X016444Y005755D02*
X016444Y005755D01*
X017767Y005810D02*
X019531Y005810D01*
X019690Y005969D02*
X017876Y005969D01*
X018035Y006127D02*
X019848Y006127D01*
X020007Y006286D02*
X018193Y006286D01*
X018352Y006444D02*
X020165Y006444D01*
X020324Y006603D02*
X018510Y006603D01*
X019617Y007188D02*
X019617Y007292D01*
X019602Y007328D01*
X023365Y007328D01*
X023350Y007292D01*
X023350Y007173D01*
X023368Y007128D01*
X023338Y007097D01*
X021921Y007097D01*
X021815Y006992D01*
X021724Y006900D01*
X021374Y006900D01*
X021389Y006937D01*
X021389Y007056D01*
X021343Y007165D01*
X021259Y007250D01*
X021149Y007295D01*
X021030Y007295D01*
X020920Y007250D01*
X020847Y007176D01*
X019629Y007176D01*
X019617Y007188D01*
X019617Y007237D02*
X020907Y007237D01*
X021272Y007237D02*
X023350Y007237D01*
X023670Y006920D02*
X024090Y006920D01*
X024140Y006941D02*
X024259Y006941D01*
X024369Y006895D01*
X024453Y006811D01*
X024499Y006701D01*
X024499Y006582D01*
X024484Y006546D01*
X028180Y006546D01*
X028428Y006794D01*
X028428Y006859D01*
X028443Y006895D01*
X025585Y006895D01*
X025511Y006821D01*
X025401Y006776D01*
X025282Y006776D01*
X025172Y006821D01*
X025088Y006905D01*
X025043Y007015D01*
X025043Y007134D01*
X025058Y007170D01*
X023947Y007170D01*
X023902Y007063D01*
X023818Y006979D01*
X023708Y006933D01*
X023683Y006933D01*
X023571Y006822D01*
X023957Y006822D01*
X024031Y006895D01*
X024140Y006941D01*
X024310Y006920D02*
X025082Y006920D01*
X025043Y007078D02*
X023909Y007078D01*
X024474Y006761D02*
X028396Y006761D01*
X028237Y006603D02*
X024499Y006603D01*
X022731Y007688D02*
X022726Y007693D01*
X022680Y007803D01*
X022680Y007879D01*
X020311Y007879D01*
X020326Y007843D01*
X020326Y007724D01*
X020311Y007688D01*
X022731Y007688D01*
X022718Y007712D02*
X020321Y007712D01*
X020314Y007871D02*
X022680Y007871D01*
X023154Y008505D02*
X023367Y008505D01*
X022675Y009773D02*
X029809Y009773D01*
X029809Y009931D02*
X022727Y009931D01*
X022694Y010090D02*
X023769Y010090D01*
X023922Y010090D02*
X029847Y010090D01*
X029847Y010248D02*
X024114Y010248D01*
X024145Y010407D02*
X029847Y010407D01*
X029847Y010565D02*
X024085Y010565D01*
X024026Y010724D02*
X029847Y010724D01*
X029847Y011428D02*
X029847Y011562D01*
X029848Y011563D01*
X029847Y011564D01*
X029847Y011580D01*
X027002Y011580D01*
X026928Y011506D01*
X026818Y011461D01*
X026699Y011461D01*
X026590Y011506D01*
X026505Y011590D01*
X026460Y011700D01*
X026460Y011819D01*
X026505Y011929D01*
X026590Y012013D01*
X026699Y012059D01*
X026818Y012059D01*
X026928Y012013D01*
X027002Y011940D01*
X028991Y011940D01*
X028946Y011984D01*
X028901Y012094D01*
X028901Y012213D01*
X028946Y012323D01*
X029031Y012407D01*
X029140Y012453D01*
X029259Y012453D01*
X029369Y012407D01*
X029443Y012334D01*
X029825Y012334D01*
X029821Y012341D01*
X029809Y012386D01*
X029809Y012543D01*
X029577Y012543D01*
X029474Y012585D01*
X029396Y012664D01*
X029353Y012767D01*
X029353Y012959D01*
X029083Y012959D01*
X029083Y013530D01*
X028923Y013530D01*
X028923Y012959D01*
X028507Y012959D01*
X028462Y012972D01*
X028421Y012995D01*
X028388Y013028D01*
X028364Y013069D01*
X028352Y013114D01*
X028352Y013530D01*
X028923Y013530D01*
X028923Y013690D01*
X028352Y013690D01*
X028352Y014106D01*
X028364Y014152D01*
X028388Y014192D01*
X028421Y014225D01*
X028462Y014249D01*
X028507Y014261D01*
X028923Y014261D01*
X028923Y013690D01*
X029083Y013690D01*
X029083Y014261D01*
X029353Y014261D01*
X029353Y014453D01*
X029396Y014556D01*
X029474Y014635D01*
X029577Y014678D01*
X030337Y014678D01*
X030337Y018645D01*
X029783Y018645D01*
X029859Y018614D01*
X029982Y018490D01*
X030337Y018490D01*
X030337Y018332D02*
X030048Y018332D01*
X030049Y018328D02*
X030049Y017553D01*
X029982Y017392D01*
X029859Y017268D01*
X029697Y017201D01*
X029522Y017201D01*
X029360Y017268D01*
X029236Y017392D01*
X029169Y017553D01*
X029169Y018328D01*
X029236Y018490D01*
X029360Y018614D01*
X029436Y018645D01*
X028783Y018645D01*
X028859Y018614D01*
X028982Y018490D01*
X029236Y018490D01*
X029171Y018332D02*
X029048Y018332D01*
X029049Y018328D02*
X029049Y017553D01*
X028982Y017392D01*
X028859Y017268D01*
X028697Y017201D01*
X028522Y017201D01*
X028360Y017268D01*
X028236Y017392D01*
X028169Y017553D01*
X028169Y018328D01*
X028236Y018490D01*
X028360Y018614D01*
X028436Y018645D01*
X027783Y018645D01*
X027859Y018614D01*
X027982Y018490D01*
X028236Y018490D01*
X028171Y018332D02*
X028048Y018332D01*
X028049Y018328D02*
X028049Y017553D01*
X027982Y017392D01*
X027859Y017268D01*
X027697Y017201D01*
X027522Y017201D01*
X027360Y017268D01*
X027236Y017392D01*
X027169Y017553D01*
X027169Y018328D01*
X027236Y018490D01*
X027360Y018614D01*
X027436Y018645D01*
X013808Y018645D01*
X013808Y017096D01*
X013777Y017064D02*
X015498Y017064D01*
X015527Y017092D02*
X015442Y017008D01*
X015397Y016898D01*
X015397Y016779D01*
X015442Y016669D01*
X015527Y016585D01*
X015636Y016540D01*
X015755Y016540D01*
X015865Y016585D01*
X015950Y016669D01*
X015995Y016779D01*
X015995Y016898D01*
X015950Y017008D01*
X015865Y017092D01*
X015755Y017138D01*
X015636Y017138D01*
X015527Y017092D01*
X015400Y016905D02*
X013379Y016905D01*
X013221Y016747D02*
X015410Y016747D01*
X015523Y016588D02*
X013062Y016588D01*
X012932Y016430D02*
X023328Y016430D01*
X023260Y016271D02*
X012932Y016271D01*
X012932Y016113D02*
X023226Y016113D01*
X023226Y015954D02*
X012932Y015954D01*
X012932Y015796D02*
X023283Y015796D01*
X023383Y015637D02*
X012891Y015637D01*
X012201Y015637D02*
X012104Y015637D01*
X012145Y015796D02*
X012160Y015796D01*
X012160Y015954D02*
X012145Y015954D01*
X012160Y016113D02*
X012145Y016113D01*
X012160Y016271D02*
X012145Y016271D01*
X012160Y016430D02*
X012145Y016430D01*
X012160Y016588D02*
X012145Y016588D01*
X012160Y016747D02*
X012145Y016747D01*
X012815Y017057D02*
X012850Y017057D01*
X012932Y016975D01*
X012932Y016967D01*
X013135Y017170D01*
X013135Y017626D01*
X013078Y017603D01*
X012959Y017603D01*
X012854Y017646D01*
X012854Y017096D01*
X012815Y017057D01*
X012822Y017064D02*
X013029Y017064D01*
X013135Y017222D02*
X012854Y017222D01*
X012854Y017381D02*
X013135Y017381D01*
X013135Y017539D02*
X012854Y017539D01*
X012082Y017685D02*
X011801Y017404D01*
X011801Y017665D01*
X011857Y017642D01*
X011976Y017642D01*
X012082Y017686D01*
X012082Y017685D01*
X011935Y017539D02*
X011801Y017539D01*
X011373Y016905D02*
X011212Y016905D01*
X011212Y016747D02*
X011373Y016747D01*
X011373Y016588D02*
X011212Y016588D01*
X011212Y016430D02*
X011373Y016430D01*
X011373Y016271D02*
X011212Y016271D01*
X011212Y016113D02*
X011373Y016113D01*
X011373Y015954D02*
X011212Y015954D01*
X011212Y015796D02*
X011373Y015796D01*
X011414Y015637D02*
X011212Y015637D01*
X011212Y015479D02*
X023594Y015479D01*
X024064Y015320D02*
X011212Y015320D01*
X011212Y015162D02*
X024093Y015162D01*
X024204Y015003D02*
X011212Y015003D01*
X011212Y014845D02*
X024353Y014845D01*
X024195Y014686D02*
X011212Y014686D01*
X011212Y014528D02*
X024036Y014528D01*
X023878Y014369D02*
X011212Y014369D01*
X011212Y014211D02*
X023719Y014211D01*
X023561Y014052D02*
X011212Y014052D01*
X011212Y013894D02*
X019968Y013894D01*
X019970Y013898D02*
X020054Y013982D01*
X020164Y014027D01*
X020283Y014027D01*
X020393Y013982D01*
X020477Y013898D01*
X020523Y013788D01*
X020523Y013669D01*
X020477Y013559D01*
X020393Y013475D01*
X020283Y013429D01*
X020164Y013429D01*
X020054Y013475D01*
X019970Y013559D01*
X019924Y013669D01*
X019924Y013788D01*
X019970Y013898D01*
X019924Y013735D02*
X011212Y013735D01*
X011212Y013577D02*
X019963Y013577D01*
X020484Y013577D02*
X023085Y013577D01*
X023244Y013735D02*
X020523Y013735D01*
X020479Y013894D02*
X023402Y013894D01*
X022927Y013418D02*
X011212Y013418D01*
X011212Y013260D02*
X022768Y013260D01*
X022610Y013101D02*
X011212Y013101D01*
X011212Y012943D02*
X022451Y012943D01*
X022293Y012784D02*
X011212Y012784D01*
X011212Y012626D02*
X022134Y012626D01*
X021976Y012467D02*
X011212Y012467D01*
X011212Y012309D02*
X021817Y012309D01*
X021659Y012150D02*
X011212Y012150D01*
X011212Y011992D02*
X020570Y011992D01*
X020419Y011833D02*
X011212Y011833D01*
X011212Y011675D02*
X020397Y011675D01*
X020477Y011516D02*
X011212Y011516D01*
X011212Y011358D02*
X022008Y011358D01*
X022166Y011516D02*
X020915Y011516D01*
X020822Y011992D02*
X021500Y011992D01*
X021692Y011675D02*
X022287Y011675D01*
X022325Y011833D02*
X021851Y011833D01*
X022009Y011992D02*
X023635Y011992D01*
X023666Y011833D02*
X022846Y011833D01*
X022885Y011675D02*
X023666Y011675D01*
X023666Y011516D02*
X022841Y011516D01*
X022517Y011358D02*
X023666Y011358D01*
X023666Y011199D02*
X022358Y011199D01*
X022200Y011041D02*
X023666Y011041D01*
X023387Y010882D02*
X022848Y010882D01*
X022984Y010724D02*
X023251Y010724D01*
X023232Y010565D02*
X023003Y010565D01*
X022915Y010407D02*
X023319Y010407D01*
X023577Y010248D02*
X022589Y010248D01*
X022238Y010407D02*
X021664Y010407D01*
X021634Y010248D02*
X022079Y010248D01*
X022396Y010565D02*
X021605Y010565D01*
X021126Y010565D02*
X019693Y010565D01*
X019596Y010724D02*
X022424Y010724D01*
X022560Y010882D02*
X022041Y010882D01*
X024026Y010882D02*
X025217Y010882D01*
X025058Y011041D02*
X024026Y011041D01*
X024026Y011199D02*
X024900Y011199D01*
X024741Y011358D02*
X024026Y011358D01*
X024026Y011516D02*
X024583Y011516D01*
X024424Y011675D02*
X024026Y011675D01*
X024026Y011833D02*
X024266Y011833D01*
X024107Y011992D02*
X024026Y011992D01*
X024458Y012150D02*
X028901Y012150D01*
X028941Y012309D02*
X024302Y012309D01*
X024302Y012306D02*
X025456Y011152D01*
X027735Y011152D01*
X027720Y011189D01*
X027720Y011308D01*
X027765Y011417D01*
X027849Y011502D01*
X027959Y011547D01*
X028078Y011547D01*
X028188Y011502D01*
X028262Y011428D01*
X029847Y011428D01*
X029847Y011516D02*
X028153Y011516D01*
X027885Y011516D02*
X026938Y011516D01*
X026580Y011516D02*
X025092Y011516D01*
X025250Y011358D02*
X027741Y011358D01*
X027720Y011199D02*
X025409Y011199D01*
X024933Y011675D02*
X026471Y011675D01*
X026466Y011833D02*
X024775Y011833D01*
X024616Y011992D02*
X026568Y011992D01*
X026950Y011992D02*
X028943Y011992D01*
X029409Y011940D02*
X029847Y011940D01*
X029847Y011956D01*
X029848Y011957D01*
X029847Y011958D01*
X029847Y011974D01*
X029443Y011974D01*
X029409Y011940D01*
X029809Y012467D02*
X025398Y012467D01*
X025377Y012446D02*
X024287Y012446D01*
X024302Y012410D01*
X024302Y012306D01*
X023789Y012784D02*
X023465Y012784D01*
X023624Y012943D02*
X025122Y012943D01*
X025122Y013101D02*
X023782Y013101D01*
X023941Y013260D02*
X025122Y013260D01*
X025122Y013418D02*
X024099Y013418D01*
X024258Y013577D02*
X025122Y013577D01*
X025122Y013735D02*
X024416Y013735D01*
X024575Y013894D02*
X025122Y013894D01*
X025122Y014052D02*
X025087Y014052D01*
X025482Y014052D02*
X028352Y014052D01*
X028352Y013894D02*
X025482Y013894D01*
X025482Y013735D02*
X028352Y013735D01*
X028352Y013418D02*
X025482Y013418D01*
X025482Y013260D02*
X028352Y013260D01*
X028356Y013101D02*
X025482Y013101D01*
X025482Y012943D02*
X029353Y012943D01*
X029353Y012784D02*
X025482Y012784D01*
X025482Y012626D02*
X029434Y012626D01*
X029083Y013101D02*
X028923Y013101D01*
X028923Y013260D02*
X029083Y013260D01*
X029083Y013418D02*
X028923Y013418D01*
X028923Y013577D02*
X025482Y013577D01*
X025482Y014211D02*
X028406Y014211D01*
X028923Y014211D02*
X029083Y014211D01*
X029083Y014052D02*
X028923Y014052D01*
X028923Y013894D02*
X029083Y013894D01*
X029083Y013735D02*
X028923Y013735D01*
X029913Y013735D02*
X030617Y013735D01*
X030617Y013577D02*
X029913Y013577D01*
X029913Y013418D02*
X030617Y013418D01*
X030617Y013260D02*
X029913Y013260D01*
X029913Y013103D02*
X029913Y014118D01*
X030617Y014118D01*
X030617Y013103D01*
X029913Y013103D01*
X030184Y012543D02*
X030184Y012431D01*
X030184Y012431D01*
X030184Y012543D01*
X030184Y012543D01*
X030184Y012467D02*
X030184Y012467D01*
X029913Y013894D02*
X030617Y013894D01*
X030617Y014052D02*
X029913Y014052D01*
X029353Y014369D02*
X025467Y014369D01*
X025482Y014354D02*
X025482Y012551D01*
X025377Y012446D01*
X023705Y012701D02*
X023705Y012701D01*
X023653Y012649D02*
X023653Y012649D01*
X023630Y012626D02*
X022643Y012626D01*
X022485Y012467D02*
X023547Y012467D01*
X023547Y012309D02*
X022326Y012309D01*
X022168Y012150D02*
X023547Y012150D01*
X023045Y012784D02*
X022802Y012784D01*
X025168Y014668D02*
X025377Y014460D01*
X025482Y014354D01*
X025309Y014528D02*
X029384Y014528D01*
X029018Y014883D02*
X028649Y014810D01*
X028649Y014810D01*
X028279Y014883D01*
X027966Y015093D01*
X027756Y015406D01*
X027683Y015776D01*
X027756Y016145D01*
X027756Y016145D01*
X027966Y016459D01*
X028279Y016668D01*
X028279Y016668D01*
X028649Y016741D01*
X029018Y016668D01*
X029332Y016459D01*
X029332Y016459D01*
X029332Y016459D01*
X029541Y016145D01*
X029615Y015776D01*
X029615Y015776D01*
X029541Y015406D01*
X029541Y015406D01*
X029332Y015093D01*
X029332Y015093D01*
X029018Y014883D01*
X029018Y014883D01*
X028825Y014845D02*
X030337Y014845D01*
X030337Y015003D02*
X029198Y015003D01*
X029332Y015093D02*
X029332Y015093D01*
X029378Y015162D02*
X030337Y015162D01*
X030337Y015320D02*
X029484Y015320D01*
X029556Y015479D02*
X030337Y015479D01*
X030337Y015637D02*
X029587Y015637D01*
X029611Y015796D02*
X030337Y015796D01*
X030337Y015954D02*
X029579Y015954D01*
X029547Y016113D02*
X030337Y016113D01*
X030337Y016271D02*
X029457Y016271D01*
X029541Y016145D02*
X029541Y016145D01*
X029351Y016430D02*
X030337Y016430D01*
X030337Y016588D02*
X029137Y016588D01*
X029018Y016668D02*
X029018Y016668D01*
X028649Y016741D02*
X028649Y016741D01*
X028160Y016588D02*
X026252Y016588D01*
X026234Y016606D02*
X026415Y016425D01*
X026513Y016189D01*
X026513Y015933D01*
X026415Y015697D01*
X026234Y015516D01*
X025997Y015418D01*
X025741Y015418D01*
X025647Y015457D01*
X025674Y015392D01*
X025674Y015230D01*
X025613Y015082D01*
X025499Y014968D01*
X025350Y014906D01*
X025189Y014906D01*
X025120Y014934D01*
X025095Y014909D01*
X025123Y014882D01*
X025168Y014772D01*
X025168Y014668D01*
X025168Y014686D02*
X030337Y014686D01*
X028473Y014845D02*
X025138Y014845D01*
X025534Y015003D02*
X028100Y015003D01*
X027966Y015093D02*
X027966Y015093D01*
X027966Y015093D01*
X027920Y015162D02*
X025646Y015162D01*
X025674Y015320D02*
X027814Y015320D01*
X027756Y015406D02*
X027756Y015406D01*
X027742Y015479D02*
X026145Y015479D01*
X026355Y015637D02*
X027710Y015637D01*
X027687Y015796D02*
X026456Y015796D01*
X026513Y015954D02*
X027718Y015954D01*
X027750Y016113D02*
X026513Y016113D01*
X026479Y016271D02*
X027841Y016271D01*
X027947Y016430D02*
X026410Y016430D01*
X026234Y016606D02*
X026042Y016686D01*
X026234Y016766D01*
X026415Y016947D01*
X026513Y017183D01*
X026513Y017439D01*
X026415Y017675D01*
X026234Y017856D01*
X027169Y017856D01*
X027169Y017698D02*
X026392Y017698D01*
X026471Y017539D02*
X027175Y017539D01*
X027247Y017381D02*
X026513Y017381D01*
X026513Y017222D02*
X027470Y017222D01*
X027748Y017222D02*
X028470Y017222D01*
X028247Y017381D02*
X027971Y017381D01*
X028044Y017539D02*
X028175Y017539D01*
X028169Y017698D02*
X028049Y017698D01*
X028049Y017856D02*
X028169Y017856D01*
X028169Y018015D02*
X028049Y018015D01*
X028049Y018173D02*
X028169Y018173D01*
X028049Y018328D02*
X027982Y018490D01*
X027236Y018490D02*
X021231Y018490D01*
X021225Y018504D02*
X021271Y018394D01*
X021271Y018275D01*
X021225Y018165D01*
X021141Y018081D01*
X021031Y018036D01*
X020912Y018036D01*
X020802Y018081D01*
X020718Y018165D01*
X020673Y018275D01*
X020673Y018394D01*
X020718Y018504D01*
X020802Y018588D01*
X020912Y018634D01*
X021031Y018634D01*
X021141Y018588D01*
X021225Y018504D01*
X021271Y018332D02*
X027171Y018332D01*
X027169Y018173D02*
X021228Y018173D01*
X020715Y018173D02*
X019260Y018173D01*
X019257Y018165D02*
X019172Y018081D01*
X019063Y018036D01*
X018944Y018036D01*
X018834Y018081D01*
X018750Y018165D01*
X018704Y018275D01*
X018704Y018394D01*
X018750Y018504D01*
X018834Y018588D01*
X018944Y018634D01*
X019063Y018634D01*
X019172Y018588D01*
X019257Y018504D01*
X019302Y018394D01*
X019302Y018275D01*
X019257Y018165D01*
X019302Y018332D02*
X020673Y018332D01*
X020712Y018490D02*
X019262Y018490D01*
X018744Y018490D02*
X013808Y018490D01*
X013808Y018332D02*
X018704Y018332D01*
X018746Y018173D02*
X013808Y018173D01*
X013808Y018015D02*
X027169Y018015D01*
X026234Y017856D02*
X025997Y017954D01*
X025741Y017954D01*
X025505Y017856D01*
X024708Y017856D01*
X024729Y017835D02*
X024775Y017725D01*
X024775Y017710D01*
X024789Y017716D01*
X024950Y017716D01*
X025099Y017654D01*
X025213Y017540D01*
X025240Y017474D01*
X025324Y017675D01*
X025505Y017856D01*
X025346Y017698D02*
X024994Y017698D01*
X025213Y017539D02*
X025267Y017539D01*
X025240Y017148D02*
X025213Y017082D01*
X025099Y016968D01*
X024950Y016906D01*
X024789Y016906D01*
X024640Y016968D01*
X024526Y017082D01*
X024498Y017148D01*
X024415Y016947D01*
X024234Y016766D01*
X024042Y016686D01*
X024234Y016606D01*
X024415Y016425D01*
X024513Y016189D01*
X024513Y015933D01*
X024423Y015716D01*
X024550Y015716D01*
X024699Y015654D01*
X024813Y015540D01*
X024869Y015405D01*
X024870Y015405D01*
X024926Y015540D01*
X025040Y015654D01*
X025189Y015716D01*
X025316Y015716D01*
X025226Y015933D01*
X025226Y016189D01*
X025324Y016425D01*
X025505Y016606D01*
X025697Y016686D01*
X025505Y016766D01*
X025324Y016947D01*
X025240Y017148D01*
X025275Y017064D02*
X025195Y017064D01*
X025365Y016905D02*
X024373Y016905D01*
X024463Y017064D02*
X024544Y017064D01*
X024188Y016747D02*
X025550Y016747D01*
X025487Y016588D02*
X024252Y016588D01*
X024410Y016430D02*
X025328Y016430D01*
X025260Y016271D02*
X024479Y016271D01*
X024513Y016113D02*
X025226Y016113D01*
X025226Y015954D02*
X024513Y015954D01*
X024456Y015796D02*
X025283Y015796D01*
X025023Y015637D02*
X024716Y015637D01*
X024838Y015479D02*
X024900Y015479D01*
X024600Y014582D02*
X024611Y014555D01*
X024573Y014555D01*
X024600Y014582D01*
X026188Y016747D02*
X030337Y016747D01*
X030337Y016905D02*
X026373Y016905D01*
X026463Y017064D02*
X030337Y017064D01*
X030337Y017222D02*
X029748Y017222D01*
X029971Y017381D02*
X030337Y017381D01*
X030337Y017539D02*
X030044Y017539D01*
X030049Y017698D02*
X030337Y017698D01*
X030337Y017856D02*
X030049Y017856D01*
X030049Y018015D02*
X030337Y018015D01*
X030337Y018173D02*
X030049Y018173D01*
X030049Y018328D02*
X029982Y018490D01*
X029169Y018173D02*
X029049Y018173D01*
X029049Y018328D02*
X028982Y018490D01*
X029049Y018015D02*
X029169Y018015D01*
X029169Y017856D02*
X029049Y017856D01*
X029049Y017698D02*
X029169Y017698D01*
X029175Y017539D02*
X029044Y017539D01*
X028971Y017381D02*
X029247Y017381D01*
X029470Y017222D02*
X028748Y017222D01*
X027966Y016459D02*
X027966Y016459D01*
X027966Y016459D01*
X028279Y014883D02*
X028279Y014883D01*
X024729Y017835D02*
X024645Y017919D01*
X024535Y017964D01*
X024416Y017964D01*
X024306Y017919D01*
X024239Y017851D01*
X024234Y017856D01*
X024244Y017856D01*
X024234Y017856D02*
X023997Y017954D01*
X023741Y017954D01*
X023505Y017856D01*
X017467Y017064D02*
X015894Y017064D01*
X015992Y016905D02*
X017368Y016905D01*
X017379Y016747D02*
X015982Y016747D01*
X015869Y016588D02*
X017492Y016588D01*
X013135Y018177D02*
X013135Y018645D01*
X012854Y018645D01*
X012854Y018157D01*
X012959Y018201D01*
X013078Y018201D01*
X013135Y018177D01*
X013135Y018332D02*
X012854Y018332D01*
X012854Y018490D02*
X013135Y018490D01*
X012893Y018173D02*
X012854Y018173D01*
X012082Y018196D02*
X012082Y018645D01*
X011801Y018645D01*
X011801Y018217D01*
X011857Y018240D01*
X011976Y018240D01*
X012082Y018196D01*
X012082Y018332D02*
X011801Y018332D01*
X011801Y018490D02*
X012082Y018490D01*
X014083Y009931D02*
X015148Y009931D01*
X014990Y009773D02*
X013924Y009773D01*
X013766Y009614D02*
X014831Y009614D01*
X014673Y009456D02*
X013607Y009456D01*
X013449Y009297D02*
X014514Y009297D01*
X014909Y009183D02*
X015213Y009183D01*
X015295Y009101D01*
X015295Y008124D01*
X015310Y008109D01*
X015310Y009101D01*
X015392Y009183D01*
X015975Y009183D01*
X016133Y009341D01*
X016834Y009341D01*
X016939Y009236D01*
X017463Y008711D01*
X019743Y008711D01*
X019728Y008748D01*
X019728Y008852D01*
X019441Y009138D01*
X019337Y009138D01*
X019227Y009183D01*
X019143Y009268D01*
X019098Y009378D01*
X019098Y009496D01*
X019143Y009606D01*
X019148Y009611D01*
X015337Y009611D01*
X014909Y009183D01*
X015023Y009297D02*
X016089Y009297D01*
X016097Y008796D02*
X016082Y008781D01*
X016082Y007924D01*
X016097Y007924D01*
X016097Y008796D01*
X016097Y008663D02*
X016082Y008663D01*
X016097Y008505D02*
X016082Y008505D01*
X016097Y008346D02*
X016082Y008346D01*
X016097Y008188D02*
X016082Y008188D01*
X016097Y008029D02*
X016082Y008029D01*
X015310Y008188D02*
X015295Y008188D01*
X015310Y008346D02*
X015295Y008346D01*
X015310Y008505D02*
X015295Y008505D01*
X015310Y008663D02*
X015295Y008663D01*
X015310Y008822D02*
X015295Y008822D01*
X015310Y008980D02*
X015295Y008980D01*
X015257Y009139D02*
X015347Y009139D01*
X015182Y009456D02*
X019098Y009456D01*
X019131Y009297D02*
X016878Y009297D01*
X017036Y009139D02*
X019335Y009139D01*
X019599Y008980D02*
X017195Y008980D01*
X017353Y008822D02*
X019728Y008822D01*
X018310Y008029D02*
X017299Y008029D01*
X017140Y007871D02*
X018375Y007871D01*
X018702Y007712D02*
X016982Y007712D01*
X016902Y007554D02*
X018952Y007554D01*
X017213Y008453D02*
X016869Y008796D01*
X016869Y008109D01*
X017213Y008453D01*
X017161Y008505D02*
X016869Y008505D01*
X016869Y008663D02*
X017003Y008663D01*
X017107Y008346D02*
X016869Y008346D01*
X016869Y008188D02*
X016948Y008188D01*
X015198Y007712D02*
X013677Y007712D01*
X013377Y007712D02*
X013291Y007712D01*
X013291Y007871D02*
X013377Y007871D01*
X013377Y008029D02*
X013291Y008029D01*
X013291Y008188D02*
X013377Y008188D01*
X013377Y008346D02*
X013291Y008346D01*
X013291Y008496D02*
X013377Y008496D01*
X013377Y009222D01*
X013291Y009139D02*
X013291Y008496D01*
X013291Y008505D02*
X013377Y008505D01*
X013377Y008663D02*
X013291Y008663D01*
X013291Y008822D02*
X013377Y008822D01*
X013377Y008980D02*
X013291Y008980D01*
X013731Y009139D02*
X013773Y009139D01*
X014507Y008663D02*
X014523Y008663D01*
X014523Y008505D02*
X014507Y008505D01*
X014523Y008346D02*
X014507Y008346D01*
X014523Y008188D02*
X014507Y008188D01*
X014523Y008029D02*
X014507Y008029D01*
X014523Y007871D02*
X014507Y007871D01*
X012991Y007712D02*
X011212Y007712D01*
X011212Y007871D02*
X011373Y007871D01*
X011373Y008029D02*
X011212Y008029D01*
X020357Y006127D02*
X020619Y006127D01*
X020594Y006286D02*
X020516Y006286D01*
X021382Y006920D02*
X021743Y006920D01*
X021902Y007078D02*
X021379Y007078D01*
X027759Y005176D02*
X028375Y005176D01*
X028352Y005335D02*
X027936Y005335D01*
X027964Y005493D02*
X028352Y005493D01*
X028352Y005652D02*
X027896Y005652D01*
X030337Y001689D02*
X011212Y001689D01*
X011212Y001531D02*
X011666Y001531D01*
X011729Y001557D02*
X011868Y001557D01*
X011996Y001504D01*
X012093Y001406D01*
X012146Y001278D01*
X012146Y001139D01*
X012093Y001011D01*
X011996Y000914D01*
X011868Y000861D01*
X011729Y000861D01*
X011601Y000914D01*
X011503Y001011D01*
X011450Y001139D01*
X011450Y001278D01*
X011503Y001406D01*
X011601Y001504D01*
X011729Y001557D01*
X011930Y001531D02*
X013241Y001531D01*
X013304Y001557D02*
X013442Y001557D01*
X013570Y001504D01*
X013668Y001406D01*
X013721Y001278D01*
X013721Y001139D01*
X013668Y001011D01*
X013570Y000914D01*
X013442Y000861D01*
X013304Y000861D01*
X013176Y000914D01*
X013078Y001011D01*
X013025Y001139D01*
X013025Y001278D01*
X013078Y001406D01*
X013176Y001504D01*
X013304Y001557D01*
X013505Y001531D02*
X030337Y001531D01*
X030337Y001372D02*
X013682Y001372D01*
X013721Y001214D02*
X030337Y001214D01*
X030337Y001055D02*
X013686Y001055D01*
X013530Y000897D02*
X030337Y000897D01*
X030337Y000738D02*
X011212Y000738D01*
X011212Y000897D02*
X011642Y000897D01*
X011485Y001055D02*
X011212Y001055D01*
X011212Y001214D02*
X011450Y001214D01*
X011489Y001372D02*
X011212Y001372D01*
X011955Y000897D02*
X013216Y000897D01*
X013060Y001055D02*
X012112Y001055D01*
X012146Y001214D02*
X013025Y001214D01*
X013064Y001372D02*
X012107Y001372D01*
D19*
X023255Y013020D02*
X024476Y014240D01*
X024830Y014240D01*
X012468Y017626D02*
X012468Y017941D01*
X012468Y017626D02*
X011759Y016917D01*
X011759Y016327D01*
M02*
