G75*
G70*
%OFA0B0*%
%FSLAX24Y24*%
%IPPOS*%
%LPD*%
%AMOC8*
5,1,8,0,0,1.08239X$1,22.5*
%
%ADD10R,0.0276X0.0551*%
%ADD11R,0.0354X0.0551*%
%ADD12R,0.0709X0.0787*%
%ADD13R,0.0394X0.0433*%
%ADD14R,0.0591X0.0591*%
%ADD15C,0.0394*%
%ADD16R,0.0512X0.0906*%
%ADD17R,0.0110X0.0580*%
%ADD18R,0.0580X0.0110*%
%ADD19R,0.0394X0.0276*%
%ADD20R,0.0945X0.0945*%
%ADD21R,0.0098X0.0236*%
%ADD22R,0.0807X0.1181*%
%ADD23R,0.0807X0.1299*%
%ADD24R,0.0197X0.0886*%
%ADD25R,0.0276X0.0394*%
%ADD26C,0.0310*%
%ADD27R,0.1063X0.0591*%
%ADD28R,0.1063X0.0394*%
%ADD29C,0.0600*%
%ADD30R,0.0394X0.1575*%
%ADD31C,0.0080*%
%ADD32C,0.0238*%
%ADD33C,0.0160*%
%ADD34C,0.0350*%
D10*
X007941Y012437D03*
X008531Y012437D03*
X009122Y012437D03*
X009122Y013965D03*
X007941Y013965D03*
D11*
X008531Y013965D03*
D12*
X010185Y013728D03*
X010185Y012469D03*
D13*
X006642Y012724D03*
X006642Y013394D03*
X004516Y013433D03*
X004516Y012764D03*
X008295Y015913D03*
X008295Y016583D03*
X009634Y016819D03*
X009634Y017488D03*
X011602Y017488D03*
X011602Y016819D03*
X013768Y016819D03*
X013768Y017488D03*
X015736Y017488D03*
X015736Y016819D03*
X004004Y005402D03*
X004004Y004732D03*
X001051Y004260D03*
X001051Y003591D03*
X011012Y004142D03*
X011826Y004159D03*
X011826Y004829D03*
X011012Y004811D03*
X011818Y003153D03*
X011818Y002484D03*
X014408Y002578D03*
X014408Y003247D03*
D14*
X015815Y005421D03*
X015579Y018335D03*
X014713Y018335D03*
X013610Y018335D03*
X012744Y018335D03*
X011445Y018335D03*
X010579Y018335D03*
X009476Y018335D03*
X008610Y018335D03*
D15*
X003531Y016957D03*
X002744Y001209D03*
X016130Y001209D03*
D16*
X013627Y002824D03*
X012604Y002824D03*
X012604Y004556D03*
X013627Y004556D03*
D17*
X009644Y005840D03*
X009444Y005840D03*
X009254Y005840D03*
X009054Y005840D03*
X008854Y005840D03*
X008664Y005840D03*
X008464Y005840D03*
X008264Y005840D03*
X008074Y005840D03*
X007874Y005840D03*
X007674Y005840D03*
X007474Y005840D03*
X007284Y005840D03*
X007084Y005840D03*
X006884Y005840D03*
X006694Y005840D03*
X006494Y005840D03*
X006294Y005840D03*
X006104Y005840D03*
X005904Y005840D03*
X005904Y011160D03*
X006104Y011160D03*
X006294Y011160D03*
X006494Y011160D03*
X006694Y011160D03*
X006884Y011160D03*
X007084Y011160D03*
X007284Y011160D03*
X007474Y011160D03*
X007674Y011160D03*
X007874Y011160D03*
X008074Y011160D03*
X008264Y011160D03*
X008464Y011160D03*
X008664Y011160D03*
X008854Y011160D03*
X009054Y011160D03*
X009254Y011160D03*
X009444Y011160D03*
X009644Y011160D03*
D18*
X010434Y010370D03*
X010434Y010170D03*
X010434Y009980D03*
X010434Y009780D03*
X010434Y009580D03*
X010434Y009390D03*
X010434Y009190D03*
X010434Y008990D03*
X010434Y008800D03*
X010434Y008600D03*
X010434Y008400D03*
X010434Y008200D03*
X010434Y008010D03*
X010434Y007810D03*
X010434Y007610D03*
X010434Y007420D03*
X010434Y007220D03*
X010434Y007020D03*
X010434Y006830D03*
X010434Y006630D03*
X005114Y006630D03*
X005114Y006830D03*
X005114Y007020D03*
X005114Y007220D03*
X005114Y007420D03*
X005114Y007610D03*
X005114Y007810D03*
X005114Y008010D03*
X005114Y008200D03*
X005114Y008400D03*
X005114Y008600D03*
X005114Y008800D03*
X005114Y008990D03*
X005114Y009190D03*
X005114Y009390D03*
X005114Y009580D03*
X005114Y009780D03*
X005114Y009980D03*
X005114Y010170D03*
X005114Y010370D03*
D19*
X000815Y010382D03*
X000815Y010776D03*
X000815Y011169D03*
X000815Y011563D03*
X000815Y011957D03*
X000815Y012350D03*
X000815Y009988D03*
X000815Y009594D03*
X000815Y009201D03*
X000815Y008807D03*
X000815Y008413D03*
X000815Y008020D03*
X000815Y007626D03*
X000815Y007232D03*
X000815Y006839D03*
D20*
X001996Y005736D03*
X001996Y013610D03*
D21*
X004752Y005106D03*
X004949Y005106D03*
X005146Y005106D03*
X005343Y005106D03*
X005343Y004122D03*
X005146Y004122D03*
X004949Y004122D03*
X004752Y004122D03*
D22*
X005805Y002882D03*
X009683Y002882D03*
D23*
X009683Y001287D03*
X005805Y001287D03*
D24*
X007114Y002951D03*
X007429Y002951D03*
X007744Y002951D03*
X008059Y002951D03*
X008374Y002951D03*
D25*
X005953Y012665D03*
X005579Y012665D03*
X005205Y012665D03*
X005205Y013689D03*
X005579Y013689D03*
X005953Y013689D03*
D26*
X005880Y015811D03*
X006380Y015811D03*
X006380Y016311D03*
X006380Y016811D03*
X005880Y016811D03*
X005880Y016311D03*
D27*
X016996Y005343D03*
X016996Y002980D03*
D28*
X016996Y003866D03*
X016996Y004457D03*
D29*
X003390Y017641D02*
X003390Y018241D01*
X002390Y018241D02*
X002390Y017641D01*
X001390Y017641D02*
X001390Y018241D01*
D30*
X017528Y017941D03*
X019535Y017941D03*
D31*
X019083Y017941D01*
X017980Y017941D01*
X017980Y017902D01*
X017980Y017941D02*
X017528Y017941D01*
X015736Y017508D02*
X015736Y017488D01*
X015736Y017508D02*
X015579Y017665D01*
X015579Y018335D01*
X014713Y018335D02*
X014713Y016917D01*
X013689Y015894D01*
X013689Y009358D01*
X012390Y008059D01*
X011957Y008059D02*
X013256Y006760D01*
X013256Y003295D01*
X013650Y002902D01*
X013627Y002824D01*
X013650Y002862D01*
X014043Y002862D01*
X014398Y003217D01*
X014408Y003247D01*
X014831Y002980D02*
X016327Y002980D01*
X016327Y003492D01*
X016996Y003866D02*
X016996Y003886D01*
X014004Y003886D01*
X014004Y005343D01*
X013531Y005815D01*
X011826Y004829D02*
X011799Y004791D01*
X011642Y004791D01*
X011425Y004575D01*
X011406Y004594D01*
X011406Y005303D01*
X011366Y005303D01*
X011406Y005303D02*
X011406Y008374D01*
X010461Y008374D01*
X010434Y008400D01*
X010434Y008600D02*
X010421Y008610D01*
X009909Y008610D01*
X010434Y008800D02*
X010461Y008807D01*
X010972Y008807D01*
X011327Y008728D02*
X011681Y008374D01*
X011681Y007232D01*
X010972Y007783D02*
X010461Y007783D01*
X010434Y007810D01*
X009909Y006996D02*
X009831Y006917D01*
X009831Y005539D01*
X009713Y005421D01*
X008098Y005421D01*
X008098Y005815D01*
X008074Y005840D01*
X007902Y005815D02*
X007874Y005840D01*
X007902Y005815D02*
X007902Y005303D01*
X007862Y005303D01*
X007902Y005303D02*
X007902Y004398D01*
X008374Y003925D01*
X008374Y002951D01*
X008610Y002980D02*
X008610Y002469D01*
X008531Y002390D01*
X007429Y002390D01*
X007429Y002951D01*
X007114Y002951D02*
X007114Y003453D01*
X007665Y004004D01*
X007705Y003650D02*
X007744Y003610D01*
X007744Y002951D01*
X007114Y002951D02*
X007114Y002154D01*
X005382Y002154D01*
X003689Y003846D01*
X003689Y005500D01*
X003492Y005697D01*
X003492Y010736D01*
X002980Y011248D01*
X002705Y011248D02*
X002705Y007075D01*
X003335Y006445D01*
X003335Y005461D01*
X002980Y005382D02*
X001209Y003610D01*
X001051Y003610D01*
X001051Y003591D01*
X001051Y004260D02*
X001051Y004280D01*
X001484Y004280D01*
X002980Y005382D02*
X002980Y006091D01*
X002272Y006799D01*
X003650Y007508D02*
X003768Y007390D01*
X003768Y007350D01*
X004004Y007114D01*
X004004Y005402D01*
X004437Y005500D02*
X004437Y005185D01*
X004004Y004752D01*
X004004Y004732D01*
X004594Y004949D02*
X004594Y005264D01*
X004713Y005382D01*
X004713Y007311D01*
X004791Y007390D01*
X005106Y007390D01*
X005114Y007420D01*
X005146Y007232D02*
X005114Y007220D01*
X005146Y007232D02*
X005421Y007232D01*
X005539Y007350D01*
X005539Y007508D01*
X005657Y007626D01*
X005657Y007075D02*
X005461Y007075D01*
X005421Y007035D01*
X005146Y007035D01*
X005114Y007020D01*
X005657Y007075D02*
X005657Y005579D01*
X006012Y005224D01*
X006484Y005303D02*
X006484Y005815D01*
X006494Y005840D01*
X006681Y005815D02*
X006694Y005840D01*
X006681Y005815D02*
X006681Y004398D01*
X005736Y004398D01*
X005185Y004949D01*
X005185Y005067D01*
X005146Y005106D01*
X005343Y005106D02*
X005343Y005461D01*
X004437Y005500D02*
X004437Y008098D01*
X004713Y008374D01*
X004713Y008413D01*
X004713Y009280D01*
X004791Y009358D01*
X005106Y009358D01*
X005114Y009390D01*
X005146Y009555D02*
X005114Y009580D01*
X005146Y009555D02*
X005539Y009555D01*
X005539Y008256D01*
X005657Y008217D01*
X005146Y008217D01*
X005114Y008200D01*
X005114Y008400D02*
X005106Y008413D01*
X004713Y008413D01*
X003965Y008965D02*
X003965Y012783D01*
X004280Y013098D01*
X005185Y013098D01*
X005185Y013689D01*
X005205Y013689D01*
X004949Y013886D02*
X004949Y013925D01*
X004909Y013925D01*
X004831Y014004D01*
X004949Y013925D02*
X005028Y014004D01*
X005579Y014004D01*
X005579Y013689D01*
X005579Y012980D01*
X006130Y012980D01*
X006209Y012902D01*
X006209Y012075D01*
X007075Y012075D01*
X007331Y011819D01*
X007469Y011957D01*
X007331Y011819D02*
X007665Y011484D01*
X007665Y011169D01*
X007674Y011160D01*
X007474Y011160D02*
X007469Y011130D01*
X007469Y010618D01*
X007154Y010382D02*
X007075Y010303D01*
X007075Y005854D01*
X007084Y005840D01*
X007272Y005815D02*
X007284Y005840D01*
X007272Y005815D02*
X007272Y005303D01*
X007547Y005421D02*
X007547Y004516D01*
X008098Y003965D01*
X008098Y003728D01*
X008610Y002980D02*
X009988Y004358D01*
X009988Y006130D01*
X010106Y006248D01*
X009161Y006642D02*
X008689Y006169D01*
X008689Y005854D01*
X008664Y005840D01*
X008492Y005854D02*
X008464Y005840D01*
X008492Y005854D02*
X008492Y007390D01*
X008020Y007862D01*
X007744Y007980D02*
X008020Y008256D01*
X007744Y007980D02*
X007744Y007232D01*
X007508Y006996D01*
X007508Y005854D01*
X007474Y005840D01*
X007665Y005815D02*
X007674Y005840D01*
X007665Y005815D02*
X007665Y005539D01*
X007547Y005421D01*
X008256Y005854D02*
X008264Y005840D01*
X008256Y005854D02*
X008256Y006169D01*
X008059Y006366D01*
X007350Y007232D02*
X007350Y008335D01*
X009043Y010028D01*
X009043Y011130D01*
X009054Y011160D01*
X008854Y011160D02*
X008846Y011130D01*
X008846Y010224D01*
X008571Y009949D01*
X009161Y009909D02*
X009161Y006642D01*
X006799Y006642D02*
X006799Y008650D01*
X005579Y009870D01*
X005579Y010421D01*
X004240Y011760D01*
X005185Y012350D02*
X005185Y012626D01*
X005205Y012665D01*
X004516Y012665D01*
X004516Y012764D01*
X005185Y012350D02*
X005736Y012350D01*
X005736Y010146D01*
X006799Y009083D01*
X008295Y010618D02*
X008295Y011130D01*
X008264Y011160D01*
X008453Y011169D02*
X008464Y011160D01*
X008453Y011169D02*
X008453Y011642D01*
X008413Y011681D01*
X008689Y011484D02*
X008768Y011563D01*
X010067Y011563D01*
X010067Y011248D01*
X011051Y010264D01*
X011051Y010106D01*
X011602Y010500D02*
X011602Y016819D01*
X011602Y017488D02*
X011602Y017508D01*
X011209Y017902D01*
X010579Y017902D01*
X010579Y018335D01*
X010028Y018335D02*
X009476Y018335D01*
X009240Y017902D02*
X008610Y017902D01*
X008610Y018335D01*
X007980Y017941D02*
X007980Y016248D01*
X008295Y015933D01*
X008295Y015913D01*
X008295Y015894D01*
X007390Y014988D01*
X007390Y012429D01*
X008059Y011760D01*
X008059Y011169D01*
X008074Y011160D01*
X008664Y011160D02*
X008689Y011169D01*
X008689Y011484D01*
X008807Y011957D02*
X008906Y012055D01*
X008531Y012429D01*
X008531Y012437D01*
X008906Y012055D02*
X008925Y012035D01*
X009673Y012035D01*
X009673Y012941D01*
X009713Y012941D01*
X010185Y012469D01*
X009713Y012941D02*
X009713Y016720D01*
X009634Y016799D01*
X009634Y016819D01*
X009634Y017488D02*
X009634Y017508D01*
X009240Y017902D01*
X007980Y017941D02*
X006209Y017941D01*
X005736Y017469D01*
X005736Y016957D01*
X005854Y016839D01*
X005880Y016811D01*
X005539Y016642D02*
X005854Y016327D01*
X005880Y016311D01*
X006380Y016311D02*
X006406Y016327D01*
X006760Y016681D01*
X007744Y016681D01*
X007744Y015815D01*
X006642Y014713D01*
X006130Y014713D01*
X006130Y015106D02*
X006130Y015539D01*
X005894Y015776D01*
X005880Y015811D01*
X006380Y016811D02*
X006406Y016839D01*
X006524Y016957D01*
X006524Y017665D01*
X008295Y017035D02*
X008295Y016583D01*
X011445Y018335D02*
X011996Y018335D01*
X012744Y018335D02*
X012744Y010579D01*
X011602Y009437D01*
X011327Y008728D02*
X011327Y010697D01*
X010303Y011720D01*
X009634Y010382D02*
X009161Y009909D01*
X006996Y012350D02*
X006957Y012390D01*
X006957Y013059D01*
X006642Y013374D01*
X006642Y013394D01*
X006327Y013335D02*
X006327Y013059D01*
X006642Y012744D01*
X006642Y012724D01*
X005953Y012665D02*
X005933Y012665D01*
X005854Y012587D01*
X005854Y012429D01*
X005776Y012350D01*
X005736Y012350D01*
X005579Y012665D02*
X005579Y012980D01*
X005972Y013689D02*
X006327Y013335D01*
X005972Y013689D02*
X005953Y013689D01*
X004949Y013886D02*
X004516Y013453D01*
X004516Y013433D01*
X003650Y013059D02*
X003650Y007508D01*
X001563Y008650D02*
X001563Y009319D01*
X001445Y009437D01*
X001445Y009988D01*
X000815Y009988D01*
X000815Y009594D02*
X001248Y009594D01*
X001248Y009201D01*
X001720Y009319D02*
X001720Y009752D01*
X001720Y009791D01*
X001602Y009909D01*
X001602Y011957D01*
X001524Y012035D01*
X001524Y012350D01*
X001248Y012350D01*
X001248Y012429D01*
X001248Y012350D02*
X000815Y012350D01*
X001524Y012350D02*
X001602Y012350D01*
X001602Y012744D01*
X001996Y013138D01*
X001996Y013610D01*
X003650Y013059D02*
X001406Y015303D01*
X001406Y017941D01*
X001390Y017941D01*
X007941Y013965D02*
X008217Y014240D01*
X008217Y014280D01*
X008295Y014358D01*
X009122Y014358D01*
X009122Y013965D01*
X010185Y013728D02*
X010776Y013728D01*
X013335Y016839D02*
X013768Y016839D01*
X013768Y016819D01*
X013768Y017488D02*
X013768Y017508D01*
X013610Y017665D01*
X013610Y018335D01*
X015303Y016839D02*
X015736Y016839D01*
X015736Y016819D01*
X003965Y008965D02*
X003925Y008925D01*
X001996Y009004D02*
X001996Y005736D01*
X002705Y005736D01*
X004594Y004949D02*
X005106Y004437D01*
X005106Y004161D01*
X005146Y004122D01*
X005343Y004122D02*
X005697Y004122D01*
X005854Y004673D02*
X006484Y005303D01*
X004949Y004122D02*
X004949Y003768D01*
X010579Y004752D02*
X010579Y004791D01*
X011012Y004791D01*
X011012Y004811D01*
X011425Y004575D02*
X011012Y004161D01*
X011012Y004142D01*
X011012Y001996D01*
X013846Y001996D01*
X014398Y002547D01*
X014408Y002578D01*
X014437Y002587D01*
X014831Y002980D01*
X013627Y002824D02*
X013610Y002823D01*
X013610Y002154D01*
X012154Y002154D01*
X011839Y002469D01*
X011818Y002484D01*
X011818Y003153D02*
X011839Y003177D01*
X011839Y003728D01*
X011327Y003728D01*
X011839Y003728D02*
X011839Y003846D01*
X011878Y003846D01*
X012587Y004555D01*
X012604Y004556D01*
X011826Y004159D02*
X011839Y004122D01*
X011839Y003846D01*
X015106Y004476D02*
X016996Y004476D01*
X016996Y004457D01*
X016642Y004988D02*
X015776Y004988D01*
X015776Y004752D01*
X016642Y004988D02*
X016996Y005343D01*
X015815Y005421D02*
X015264Y005421D01*
X016327Y002980D02*
X016996Y002980D01*
X002705Y011248D02*
X001799Y012154D01*
X001720Y009319D02*
X001839Y009201D01*
X001839Y009161D01*
X001996Y009004D01*
X001248Y008807D02*
X001248Y008453D01*
X001248Y008807D02*
X000815Y008807D01*
D32*
X001248Y008453D03*
X001563Y008650D03*
X001839Y009201D03*
X001248Y009201D03*
X001720Y009752D03*
X002980Y011248D03*
X004240Y011760D03*
X001799Y012154D03*
X001248Y012429D03*
X004831Y014004D03*
X006169Y014240D03*
X006130Y014713D03*
X006130Y015106D03*
X005539Y016642D03*
X006524Y017665D03*
X008295Y017035D03*
X010028Y018335D03*
X011996Y018335D03*
X013335Y016839D03*
X015303Y016839D03*
X017980Y017902D03*
X019083Y017941D03*
X010776Y013728D03*
X008807Y011957D03*
X008413Y011681D03*
X007469Y011957D03*
X006996Y012350D03*
X007744Y013020D03*
X010303Y011720D03*
X009634Y010382D03*
X008571Y009949D03*
X008295Y010618D03*
X007469Y010618D03*
X007154Y010382D03*
X006799Y009083D03*
X005657Y008217D03*
X005657Y007626D03*
X005657Y007075D03*
X006799Y006642D03*
X007350Y007232D03*
X008020Y007862D03*
X008020Y008256D03*
X009909Y008610D03*
X010972Y008807D03*
X011602Y009437D03*
X011051Y010106D03*
X011602Y010500D03*
X011957Y008059D03*
X012390Y008059D03*
X010972Y007783D03*
X011681Y007232D03*
X010106Y006248D03*
X009909Y006996D03*
X008059Y006366D03*
X007862Y005303D03*
X007272Y005303D03*
X006012Y005224D03*
X005343Y005461D03*
X004437Y005500D03*
X003335Y005461D03*
X002705Y005736D03*
X002272Y006799D03*
X003768Y007350D03*
X003925Y008925D03*
X005854Y004673D03*
X005697Y004122D03*
X004949Y003768D03*
X007665Y004004D03*
X007705Y003650D03*
X008098Y003728D03*
X010579Y004752D03*
X011366Y005303D03*
X013531Y005815D03*
X015264Y005421D03*
X015776Y004752D03*
X015106Y004476D03*
X016327Y003492D03*
X011327Y003728D03*
X019713Y008453D03*
X001484Y004280D03*
D33*
X000662Y004669D02*
X000662Y000701D01*
X005262Y000701D01*
X005262Y001995D01*
X005274Y002007D01*
X005202Y002079D01*
X003509Y003772D01*
X003509Y003921D01*
X003509Y005212D01*
X003504Y005207D01*
X003394Y005162D01*
X003275Y005162D01*
X003165Y005207D01*
X003113Y005260D01*
X001389Y003536D01*
X001389Y003536D01*
X001388Y003535D01*
X001388Y003316D01*
X001306Y003234D01*
X000796Y003234D01*
X000714Y003316D01*
X000714Y003865D01*
X000774Y003925D01*
X000714Y003985D01*
X000714Y004534D01*
X000796Y004616D01*
X001306Y004616D01*
X001368Y004555D01*
X001425Y004579D01*
X001544Y004579D01*
X001654Y004533D01*
X001738Y004449D01*
X001754Y004410D01*
X002429Y005085D01*
X002076Y005085D01*
X002076Y005656D01*
X001916Y005656D01*
X001916Y005085D01*
X001646Y005085D01*
X001646Y004893D01*
X001604Y004790D01*
X001525Y004711D01*
X001422Y004669D01*
X000662Y004669D01*
X000662Y004542D02*
X000722Y004542D01*
X000714Y004384D02*
X000662Y004384D01*
X000662Y004225D02*
X000714Y004225D01*
X000714Y004067D02*
X000662Y004067D01*
X000662Y003908D02*
X000758Y003908D01*
X000714Y003750D02*
X000662Y003750D01*
X000662Y003591D02*
X000714Y003591D01*
X000714Y003433D02*
X000662Y003433D01*
X000662Y003274D02*
X000756Y003274D01*
X000662Y003116D02*
X001451Y003116D01*
X001458Y003153D02*
X001385Y002783D01*
X001458Y002414D01*
X001458Y002414D01*
X001667Y002101D01*
X001667Y002101D01*
X001981Y001891D01*
X002350Y001818D01*
X002350Y001818D01*
X002720Y001891D01*
X003033Y002101D01*
X003243Y002414D01*
X003316Y002783D01*
X003243Y003153D01*
X003033Y003466D01*
X002720Y003676D01*
X002350Y003749D01*
X001981Y003676D01*
X001981Y003676D01*
X001667Y003466D01*
X001458Y003153D01*
X001458Y003153D01*
X001539Y003274D02*
X001346Y003274D01*
X001388Y003433D02*
X001645Y003433D01*
X001667Y003466D02*
X001667Y003466D01*
X001667Y003466D01*
X001854Y003591D02*
X001444Y003591D01*
X001603Y003750D02*
X003531Y003750D01*
X003509Y003908D02*
X001761Y003908D01*
X001920Y004067D02*
X003509Y004067D01*
X003509Y004225D02*
X002078Y004225D01*
X002237Y004384D02*
X003509Y004384D01*
X003509Y004542D02*
X002395Y004542D01*
X002554Y004701D02*
X003509Y004701D01*
X003509Y004859D02*
X002712Y004859D01*
X002871Y005018D02*
X003509Y005018D01*
X003509Y005176D02*
X003430Y005176D01*
X003240Y005176D02*
X003029Y005176D01*
X002800Y005456D02*
X002647Y005303D01*
X002647Y005656D01*
X002076Y005656D01*
X002076Y005816D01*
X002647Y005816D01*
X002647Y006169D01*
X002800Y006016D01*
X002800Y005456D01*
X002800Y005493D02*
X002647Y005493D01*
X002647Y005335D02*
X002679Y005335D01*
X002362Y005018D02*
X001646Y005018D01*
X001632Y004859D02*
X002203Y004859D01*
X002045Y004701D02*
X001499Y004701D01*
X001631Y004542D02*
X001886Y004542D01*
X001916Y005176D02*
X002076Y005176D01*
X002076Y005335D02*
X001916Y005335D01*
X001916Y005493D02*
X002076Y005493D01*
X002076Y005652D02*
X001916Y005652D01*
X001916Y005816D02*
X001916Y006387D01*
X001646Y006387D01*
X001646Y006579D01*
X001604Y006682D01*
X001525Y006761D01*
X001422Y006804D01*
X001152Y006804D01*
X001152Y007034D01*
X001151Y007035D01*
X001152Y007036D01*
X001152Y007428D01*
X001151Y007429D01*
X001152Y007430D01*
X001152Y007822D01*
X001151Y007823D01*
X001152Y007824D01*
X001152Y008169D01*
X001189Y008154D01*
X001308Y008154D01*
X001417Y008199D01*
X001502Y008283D01*
X001529Y008351D01*
X001622Y008351D01*
X001732Y008396D01*
X001817Y008480D01*
X001862Y008590D01*
X001862Y008709D01*
X001817Y008819D01*
X001743Y008893D01*
X001743Y009393D01*
X001638Y009499D01*
X001625Y009512D01*
X001625Y010063D01*
X001519Y010168D01*
X001152Y010168D01*
X001152Y010184D01*
X001151Y010185D01*
X001152Y010186D01*
X001152Y010578D01*
X001151Y010579D01*
X001152Y010580D01*
X001152Y010971D01*
X001151Y010972D01*
X001152Y010974D01*
X001152Y011365D01*
X001151Y011366D01*
X001152Y011367D01*
X001152Y011759D01*
X001151Y011760D01*
X001152Y011761D01*
X001152Y012100D01*
X001155Y012103D01*
X001178Y012144D01*
X001190Y012189D01*
X001190Y012350D01*
X000815Y012350D01*
X000815Y012350D01*
X001190Y012350D01*
X001190Y012512D01*
X001182Y012543D01*
X001422Y012543D01*
X001525Y012585D01*
X001604Y012664D01*
X001646Y012767D01*
X001646Y012959D01*
X001916Y012959D01*
X001916Y013530D01*
X002076Y013530D01*
X002076Y012959D01*
X002492Y012959D01*
X002537Y012972D01*
X002578Y012995D01*
X002611Y013028D01*
X002635Y013069D01*
X002647Y013114D01*
X002647Y013530D01*
X002076Y013530D01*
X002076Y013690D01*
X002647Y013690D01*
X002647Y013807D01*
X003470Y012984D01*
X003470Y011013D01*
X003279Y011204D01*
X003279Y011308D01*
X003234Y011417D01*
X003150Y011502D01*
X003040Y011547D01*
X002921Y011547D01*
X002811Y011502D01*
X002758Y011449D01*
X002098Y012109D01*
X002098Y012213D01*
X002053Y012323D01*
X001969Y012407D01*
X001859Y012453D01*
X001740Y012453D01*
X001630Y012407D01*
X001546Y012323D01*
X001500Y012213D01*
X001500Y012094D01*
X001546Y011984D01*
X001630Y011900D01*
X001740Y011854D01*
X001844Y011854D01*
X002525Y011173D01*
X002525Y007000D01*
X003155Y006370D01*
X003155Y006171D01*
X002571Y006755D01*
X002571Y006859D01*
X002525Y006969D01*
X002441Y007053D01*
X002331Y007098D01*
X002212Y007098D01*
X002102Y007053D01*
X002018Y006969D01*
X001973Y006859D01*
X001973Y006740D01*
X002018Y006630D01*
X002102Y006546D01*
X002212Y006500D01*
X002316Y006500D01*
X002429Y006387D01*
X002076Y006387D01*
X002076Y005816D01*
X001916Y005816D01*
X001916Y005969D02*
X002076Y005969D01*
X002076Y006127D02*
X001916Y006127D01*
X001916Y006286D02*
X002076Y006286D01*
X002372Y006444D02*
X001646Y006444D01*
X001636Y006603D02*
X002045Y006603D01*
X001973Y006761D02*
X001524Y006761D01*
X001152Y006920D02*
X001998Y006920D01*
X002164Y007078D02*
X001152Y007078D01*
X001152Y007237D02*
X002525Y007237D01*
X002525Y007395D02*
X001152Y007395D01*
X001152Y007554D02*
X002525Y007554D01*
X002525Y007712D02*
X001152Y007712D01*
X001152Y007871D02*
X002525Y007871D01*
X002525Y008029D02*
X001152Y008029D01*
X001390Y008188D02*
X002525Y008188D01*
X002525Y008346D02*
X001528Y008346D01*
X001827Y008505D02*
X002525Y008505D01*
X002525Y008663D02*
X001862Y008663D01*
X001814Y008822D02*
X002525Y008822D01*
X002525Y008980D02*
X001743Y008980D01*
X001743Y009139D02*
X002525Y009139D01*
X002525Y009297D02*
X001743Y009297D01*
X001681Y009456D02*
X002525Y009456D01*
X002525Y009614D02*
X001625Y009614D01*
X001625Y009773D02*
X002525Y009773D01*
X002525Y009931D02*
X001625Y009931D01*
X001598Y010090D02*
X002525Y010090D01*
X002525Y010248D02*
X001152Y010248D01*
X001152Y010407D02*
X002525Y010407D01*
X002525Y010565D02*
X001152Y010565D01*
X001152Y010724D02*
X002525Y010724D01*
X002525Y010882D02*
X001152Y010882D01*
X001152Y011041D02*
X002525Y011041D01*
X002499Y011199D02*
X001152Y011199D01*
X001152Y011358D02*
X002340Y011358D01*
X002182Y011516D02*
X001152Y011516D01*
X001152Y011675D02*
X002023Y011675D01*
X001865Y011833D02*
X001152Y011833D01*
X001152Y011992D02*
X001543Y011992D01*
X001500Y012150D02*
X001180Y012150D01*
X001190Y012309D02*
X001540Y012309D01*
X001190Y012467D02*
X003470Y012467D01*
X003470Y012309D02*
X002059Y012309D01*
X002098Y012150D02*
X003470Y012150D01*
X003470Y011992D02*
X002216Y011992D01*
X002374Y011833D02*
X003470Y011833D01*
X003470Y011675D02*
X002533Y011675D01*
X002691Y011516D02*
X002846Y011516D01*
X003114Y011516D02*
X003470Y011516D01*
X003470Y011358D02*
X003259Y011358D01*
X003284Y011199D02*
X003470Y011199D01*
X003470Y011041D02*
X003442Y011041D01*
X003250Y010724D02*
X002885Y010724D01*
X002885Y010882D02*
X003092Y010882D01*
X003025Y010949D02*
X003312Y010662D01*
X003312Y006722D01*
X002885Y007149D01*
X002885Y010964D01*
X002921Y010949D01*
X003025Y010949D01*
X002885Y010565D02*
X003312Y010565D01*
X003312Y010407D02*
X002885Y010407D01*
X002885Y010248D02*
X003312Y010248D01*
X003312Y010090D02*
X002885Y010090D01*
X002885Y009931D02*
X003312Y009931D01*
X003312Y009773D02*
X002885Y009773D01*
X002885Y009614D02*
X003312Y009614D01*
X003312Y009456D02*
X002885Y009456D01*
X002885Y009297D02*
X003312Y009297D01*
X003312Y009139D02*
X002885Y009139D01*
X002885Y008980D02*
X003312Y008980D01*
X003312Y008822D02*
X002885Y008822D01*
X002885Y008663D02*
X003312Y008663D01*
X003312Y008505D02*
X002885Y008505D01*
X002885Y008346D02*
X003312Y008346D01*
X003312Y008188D02*
X002885Y008188D01*
X002885Y008029D02*
X003312Y008029D01*
X003312Y007871D02*
X002885Y007871D01*
X002885Y007712D02*
X003312Y007712D01*
X003312Y007554D02*
X002885Y007554D01*
X002885Y007395D02*
X003312Y007395D01*
X003312Y007237D02*
X002885Y007237D01*
X002956Y007078D02*
X003312Y007078D01*
X003312Y006920D02*
X003114Y006920D01*
X003273Y006761D02*
X003312Y006761D01*
X003672Y006761D02*
X003824Y006761D01*
X003824Y006603D02*
X003672Y006603D01*
X003672Y006444D02*
X003824Y006444D01*
X003824Y006286D02*
X003672Y006286D01*
X003672Y006127D02*
X003824Y006127D01*
X003824Y005969D02*
X003672Y005969D01*
X003672Y005810D02*
X003824Y005810D01*
X003824Y005758D02*
X003749Y005758D01*
X003717Y005726D01*
X003672Y005771D01*
X003672Y007066D01*
X003708Y007051D01*
X003812Y007051D01*
X003824Y007040D01*
X003824Y005758D01*
X004184Y005758D02*
X004184Y007189D01*
X004078Y007294D01*
X004067Y007306D01*
X004067Y007410D01*
X004021Y007520D01*
X003937Y007604D01*
X003830Y007648D01*
X003830Y008641D01*
X003866Y008626D01*
X003985Y008626D01*
X004095Y008672D01*
X004179Y008756D01*
X004224Y008866D01*
X004224Y008985D01*
X004179Y009095D01*
X004145Y009129D01*
X004145Y011476D01*
X004181Y011461D01*
X004285Y011461D01*
X005181Y010565D01*
X004766Y010565D01*
X004684Y010483D01*
X004684Y009557D01*
X004681Y009554D01*
X004658Y009513D01*
X004646Y009468D01*
X004646Y009390D01*
X004761Y009390D01*
X004761Y009390D01*
X004646Y009390D01*
X004646Y009311D01*
X004658Y009266D01*
X004681Y009225D01*
X004684Y009222D01*
X004684Y008567D01*
X004681Y008564D01*
X004658Y008523D01*
X004646Y008478D01*
X004646Y008400D01*
X005106Y008400D01*
X004646Y008400D01*
X004646Y008321D01*
X004658Y008276D01*
X004681Y008235D01*
X004684Y008232D01*
X004684Y007537D01*
X004611Y007464D01*
X004533Y007386D01*
X004533Y005456D01*
X004414Y005338D01*
X004414Y004874D01*
X004520Y004769D01*
X004909Y004380D01*
X004645Y004380D01*
X004563Y004298D01*
X004563Y003946D01*
X004645Y003864D01*
X004665Y003864D01*
X004650Y003827D01*
X004650Y003708D01*
X004695Y003598D01*
X004779Y003514D01*
X004889Y003469D01*
X005008Y003469D01*
X005118Y003514D01*
X005202Y003598D01*
X005248Y003708D01*
X005248Y003827D01*
X005233Y003864D01*
X005450Y003864D01*
X005491Y003905D01*
X005527Y003869D01*
X005637Y003823D01*
X005756Y003823D01*
X005866Y003869D01*
X005950Y003953D01*
X005996Y004063D01*
X005996Y004182D01*
X005981Y004218D01*
X006756Y004218D01*
X006861Y004323D01*
X006861Y005410D01*
X006992Y005410D01*
X006973Y005363D01*
X006973Y005244D01*
X007018Y005134D01*
X007102Y005050D01*
X007212Y005004D01*
X007331Y005004D01*
X007367Y005019D01*
X007367Y004441D01*
X007535Y004274D01*
X007496Y004257D01*
X007412Y004173D01*
X007366Y004063D01*
X007366Y003959D01*
X007040Y003633D01*
X006934Y003527D01*
X006934Y003510D01*
X006876Y003452D01*
X006876Y002450D01*
X006934Y002392D01*
X006934Y002334D01*
X006349Y002334D01*
X006349Y003530D01*
X006267Y003612D01*
X005344Y003612D01*
X005262Y003530D01*
X005262Y002528D01*
X003869Y003921D01*
X003869Y004337D01*
X003986Y004337D01*
X003986Y004714D01*
X004022Y004714D01*
X004022Y004337D01*
X004224Y004337D01*
X004270Y004349D01*
X004310Y004373D01*
X004344Y004406D01*
X004367Y004447D01*
X004379Y004492D01*
X004379Y004714D01*
X004022Y004714D01*
X004022Y004751D01*
X004022Y005045D01*
X003986Y005045D01*
X003986Y004751D01*
X004022Y004751D01*
X004379Y004751D01*
X004379Y004972D01*
X004367Y005018D01*
X004414Y005018D01*
X004367Y005018D02*
X004344Y005058D01*
X004310Y005092D01*
X004307Y005093D01*
X004341Y005127D01*
X004341Y005676D01*
X004259Y005758D01*
X004184Y005758D01*
X004184Y005810D02*
X004533Y005810D01*
X004533Y005652D02*
X004341Y005652D01*
X004341Y005493D02*
X004533Y005493D01*
X004414Y005335D02*
X004341Y005335D01*
X004341Y005176D02*
X004414Y005176D01*
X004893Y005364D02*
X004893Y006435D01*
X005462Y006435D01*
X005477Y006450D01*
X005477Y005504D01*
X005583Y005399D01*
X005713Y005269D01*
X005713Y005165D01*
X005758Y005055D01*
X005841Y004972D01*
X005795Y004972D01*
X005685Y004927D01*
X005601Y004843D01*
X005585Y004804D01*
X005522Y004866D01*
X005535Y004879D01*
X005558Y004919D01*
X005570Y004965D01*
X005570Y005106D01*
X005365Y005106D01*
X005365Y005106D01*
X005570Y005106D01*
X005570Y005248D01*
X005558Y005293D01*
X005535Y005334D01*
X005501Y005367D01*
X005461Y005391D01*
X005415Y005403D01*
X005343Y005403D01*
X005343Y005164D01*
X005343Y005164D01*
X005343Y005403D01*
X005270Y005403D01*
X005224Y005391D01*
X005184Y005367D01*
X005181Y005364D01*
X004893Y005364D01*
X004893Y005493D02*
X005488Y005493D01*
X005477Y005652D02*
X004893Y005652D01*
X004893Y005810D02*
X005477Y005810D01*
X005477Y005969D02*
X004893Y005969D01*
X004893Y006127D02*
X005477Y006127D01*
X005477Y006286D02*
X004893Y006286D01*
X004533Y006286D02*
X004184Y006286D01*
X004184Y006444D02*
X004533Y006444D01*
X004533Y006603D02*
X004184Y006603D01*
X004184Y006761D02*
X004533Y006761D01*
X004533Y006920D02*
X004184Y006920D01*
X004184Y007078D02*
X004533Y007078D01*
X004533Y007237D02*
X004136Y007237D01*
X004067Y007395D02*
X004542Y007395D01*
X004684Y007554D02*
X003987Y007554D01*
X003830Y007712D02*
X004684Y007712D01*
X004684Y007871D02*
X003830Y007871D01*
X003830Y008029D02*
X004684Y008029D01*
X004684Y008188D02*
X003830Y008188D01*
X003830Y008346D02*
X004646Y008346D01*
X004653Y008505D02*
X003830Y008505D01*
X004074Y008663D02*
X004684Y008663D01*
X004684Y008822D02*
X004206Y008822D01*
X004224Y008980D02*
X004684Y008980D01*
X004684Y009139D02*
X004145Y009139D01*
X004145Y009297D02*
X004649Y009297D01*
X004646Y009456D02*
X004145Y009456D01*
X004145Y009614D02*
X004684Y009614D01*
X004684Y009773D02*
X004145Y009773D01*
X004145Y009931D02*
X004684Y009931D01*
X004684Y010090D02*
X004145Y010090D01*
X004145Y010248D02*
X004684Y010248D01*
X004684Y010407D02*
X004145Y010407D01*
X004145Y010565D02*
X005180Y010565D01*
X005022Y010724D02*
X004145Y010724D01*
X004145Y010882D02*
X004863Y010882D01*
X004705Y011041D02*
X004145Y011041D01*
X004145Y011199D02*
X004546Y011199D01*
X004388Y011358D02*
X004145Y011358D01*
X004539Y011715D02*
X004539Y011819D01*
X004494Y011929D01*
X004410Y012013D01*
X004300Y012059D01*
X004181Y012059D01*
X004145Y012044D01*
X004145Y012709D01*
X004179Y012743D01*
X004179Y012489D01*
X004261Y012407D01*
X004771Y012407D01*
X004849Y012485D01*
X004927Y012485D01*
X004927Y012411D01*
X005005Y012332D01*
X005005Y012276D01*
X005110Y012170D01*
X005556Y012170D01*
X005556Y010698D01*
X004539Y011715D01*
X004580Y011675D02*
X005556Y011675D01*
X005556Y011833D02*
X004533Y011833D01*
X004431Y011992D02*
X005556Y011992D01*
X005556Y012150D02*
X004145Y012150D01*
X004145Y012309D02*
X005005Y012309D01*
X004927Y012467D02*
X004831Y012467D01*
X004853Y012845D02*
X004853Y012918D01*
X004927Y012918D01*
X004927Y012845D01*
X004853Y012845D01*
X004891Y013278D02*
X004891Y013415D01*
X004534Y013415D01*
X004534Y013451D01*
X004891Y013451D01*
X004891Y013673D01*
X004879Y013718D01*
X004855Y013759D01*
X004822Y013792D01*
X004781Y013816D01*
X004736Y013828D01*
X004534Y013828D01*
X004534Y013452D01*
X004497Y013452D01*
X004497Y013828D01*
X004295Y013828D01*
X004250Y013816D01*
X004209Y013792D01*
X004176Y013759D01*
X004153Y013718D01*
X004140Y013673D01*
X004140Y013451D01*
X004497Y013451D01*
X004497Y013415D01*
X004140Y013415D01*
X004140Y013214D01*
X004100Y013173D01*
X003830Y012903D01*
X003830Y013134D01*
X003724Y013239D01*
X002105Y014859D01*
X002350Y014810D01*
X002350Y014810D01*
X002720Y014883D01*
X003033Y015093D01*
X003243Y015406D01*
X003316Y015776D01*
X003243Y016145D01*
X003243Y016145D01*
X003033Y016459D01*
X002720Y016668D01*
X002350Y016741D01*
X001981Y016668D01*
X001981Y016668D01*
X001667Y016459D01*
X001667Y016459D01*
X001667Y016459D01*
X001586Y016336D01*
X001586Y017246D01*
X001639Y017268D01*
X001763Y017392D01*
X001830Y017553D01*
X001830Y018328D01*
X001763Y018490D01*
X001639Y018614D01*
X001564Y018645D01*
X002216Y018645D01*
X002141Y018614D01*
X002017Y018490D01*
X001950Y018328D01*
X001950Y017553D01*
X002017Y017392D01*
X002141Y017268D01*
X002302Y017201D01*
X002477Y017201D01*
X002639Y017268D01*
X002763Y017392D01*
X002830Y017553D01*
X002830Y018328D01*
X002763Y018490D01*
X002639Y018614D01*
X002564Y018645D01*
X003216Y018645D01*
X003141Y018614D01*
X003017Y018490D01*
X002950Y018328D01*
X002950Y017553D01*
X003017Y017392D01*
X003141Y017268D01*
X003198Y017244D01*
X003096Y017085D01*
X003096Y016829D01*
X003234Y016614D01*
X003234Y016614D01*
X003234Y016614D01*
X003467Y016507D01*
X003720Y016544D01*
X003768Y016585D01*
X003768Y015989D01*
X003816Y015873D01*
X003904Y015784D01*
X005421Y014267D01*
X005421Y014177D01*
X005468Y014064D01*
X005417Y014064D01*
X005372Y014052D01*
X005331Y014029D01*
X005329Y014026D01*
X005009Y014026D01*
X004927Y013944D01*
X004927Y013434D01*
X005005Y013356D01*
X005005Y013278D01*
X004891Y013278D01*
X004943Y013418D02*
X004534Y013418D01*
X004497Y013418D02*
X003545Y013418D01*
X003703Y013260D02*
X004140Y013260D01*
X004028Y013101D02*
X003830Y013101D01*
X003830Y012943D02*
X003869Y012943D01*
X003470Y012943D02*
X001646Y012943D01*
X001646Y012784D02*
X003470Y012784D01*
X003470Y012626D02*
X001565Y012626D01*
X001916Y013101D02*
X002076Y013101D01*
X002076Y013260D02*
X001916Y013260D01*
X001916Y013418D02*
X002076Y013418D01*
X002076Y013577D02*
X002877Y013577D01*
X002719Y013735D02*
X002647Y013735D01*
X002647Y013418D02*
X003036Y013418D01*
X003194Y013260D02*
X002647Y013260D01*
X002643Y013101D02*
X003353Y013101D01*
X003386Y013577D02*
X004140Y013577D01*
X004162Y013735D02*
X003228Y013735D01*
X003069Y013894D02*
X004927Y013894D01*
X004927Y013735D02*
X004869Y013735D01*
X004891Y013577D02*
X004927Y013577D01*
X004534Y013577D02*
X004497Y013577D01*
X004497Y013735D02*
X004534Y013735D01*
X005373Y014052D02*
X002911Y014052D01*
X002752Y014211D02*
X005421Y014211D01*
X005319Y014369D02*
X002594Y014369D01*
X002435Y014528D02*
X005161Y014528D01*
X005002Y014686D02*
X002277Y014686D01*
X002174Y014845D02*
X002118Y014845D01*
X001926Y014528D02*
X001615Y014528D01*
X001604Y014556D02*
X001525Y014635D01*
X001422Y014678D01*
X000662Y014678D01*
X000662Y018645D01*
X001216Y018645D01*
X001141Y018614D01*
X001017Y018490D01*
X000950Y018328D01*
X000950Y017553D01*
X001017Y017392D01*
X001141Y017268D01*
X001226Y017233D01*
X001226Y015229D01*
X002193Y014261D01*
X002076Y014261D01*
X002076Y013690D01*
X001916Y013690D01*
X001916Y014261D01*
X001646Y014261D01*
X001646Y014453D01*
X001604Y014556D01*
X001646Y014369D02*
X002085Y014369D01*
X002076Y014211D02*
X001916Y014211D01*
X001916Y014052D02*
X002076Y014052D01*
X002076Y013894D02*
X001916Y013894D01*
X001916Y013735D02*
X002076Y013735D01*
X001086Y013735D02*
X000382Y013735D01*
X000382Y013577D02*
X001086Y013577D01*
X001086Y013418D02*
X000382Y013418D01*
X000382Y013260D02*
X001086Y013260D01*
X001086Y013103D02*
X001086Y014118D01*
X000382Y014118D01*
X000382Y013103D01*
X001086Y013103D01*
X001086Y013894D02*
X000382Y013894D01*
X000382Y014052D02*
X001086Y014052D01*
X000662Y014686D02*
X001768Y014686D01*
X001609Y014845D02*
X000662Y014845D01*
X000662Y015003D02*
X001451Y015003D01*
X001292Y015162D02*
X000662Y015162D01*
X000662Y015320D02*
X001226Y015320D01*
X001226Y015479D02*
X000662Y015479D01*
X000662Y015637D02*
X001226Y015637D01*
X001226Y015796D02*
X000662Y015796D01*
X000662Y015954D02*
X001226Y015954D01*
X001226Y016113D02*
X000662Y016113D01*
X000662Y016271D02*
X001226Y016271D01*
X001226Y016430D02*
X000662Y016430D01*
X000662Y016588D02*
X001226Y016588D01*
X001226Y016747D02*
X000662Y016747D01*
X000662Y016905D02*
X001226Y016905D01*
X001226Y017064D02*
X000662Y017064D01*
X000662Y017222D02*
X001226Y017222D01*
X001028Y017381D02*
X000662Y017381D01*
X000662Y017539D02*
X000956Y017539D01*
X000950Y017698D02*
X000662Y017698D01*
X000662Y017856D02*
X000950Y017856D01*
X000950Y018015D02*
X000662Y018015D01*
X000662Y018173D02*
X000950Y018173D01*
X000951Y018332D02*
X000662Y018332D01*
X000662Y018490D02*
X001017Y018490D01*
X001763Y018490D02*
X002017Y018490D01*
X001951Y018332D02*
X001828Y018332D01*
X001830Y018173D02*
X001950Y018173D01*
X001950Y018015D02*
X001830Y018015D01*
X001830Y017856D02*
X001950Y017856D01*
X001950Y017698D02*
X001830Y017698D01*
X001824Y017539D02*
X001956Y017539D01*
X002028Y017381D02*
X001752Y017381D01*
X001586Y017222D02*
X002251Y017222D01*
X002529Y017222D02*
X003184Y017222D01*
X003096Y017064D02*
X001586Y017064D01*
X001586Y016905D02*
X003096Y016905D01*
X003149Y016747D02*
X001586Y016747D01*
X001586Y016588D02*
X001862Y016588D01*
X001648Y016430D02*
X001586Y016430D01*
X002350Y016741D02*
X002350Y016741D01*
X002720Y016668D02*
X002720Y016668D01*
X002839Y016588D02*
X003290Y016588D01*
X003467Y016507D02*
X003467Y016507D01*
X003720Y016544D02*
X003720Y016544D01*
X003768Y016430D02*
X003053Y016430D01*
X003033Y016459D02*
X003033Y016459D01*
X003033Y016459D01*
X003158Y016271D02*
X003768Y016271D01*
X003768Y016113D02*
X003249Y016113D01*
X003281Y015954D02*
X003782Y015954D01*
X003893Y015796D02*
X003312Y015796D01*
X003289Y015637D02*
X004051Y015637D01*
X004210Y015479D02*
X003257Y015479D01*
X003243Y015406D02*
X003243Y015406D01*
X003185Y015320D02*
X004368Y015320D01*
X004527Y015162D02*
X003080Y015162D01*
X003033Y015093D02*
X003033Y015093D01*
X002900Y015003D02*
X004685Y015003D01*
X004844Y014845D02*
X002526Y014845D01*
X002720Y014883D02*
X002720Y014883D01*
X004398Y016182D02*
X004398Y017334D01*
X004350Y017450D01*
X003830Y017970D01*
X003830Y018328D01*
X003763Y018490D01*
X003639Y018614D01*
X003564Y018645D01*
X008175Y018645D01*
X008175Y017981D01*
X008257Y017899D01*
X008430Y017899D01*
X008430Y017827D01*
X008536Y017722D01*
X009166Y017722D01*
X009297Y017590D01*
X009297Y017214D01*
X009331Y017180D01*
X009327Y017178D01*
X009294Y017145D01*
X009271Y017104D01*
X009259Y017059D01*
X009259Y016837D01*
X009615Y016837D01*
X009615Y016800D01*
X009652Y016800D01*
X009652Y016424D01*
X009854Y016424D01*
X009900Y016436D01*
X009940Y016460D01*
X009973Y016493D01*
X009997Y016533D01*
X010009Y016579D01*
X010009Y016800D01*
X009652Y016800D01*
X009652Y016837D01*
X010009Y016837D01*
X010009Y017059D01*
X009997Y017104D01*
X009973Y017145D01*
X009940Y017178D01*
X009937Y017180D01*
X009971Y017214D01*
X009971Y017763D01*
X009889Y017845D01*
X009552Y017845D01*
X009497Y017899D01*
X009830Y017899D01*
X009912Y017981D01*
X009912Y018059D01*
X009968Y018036D01*
X010087Y018036D01*
X010143Y018059D01*
X010143Y017981D01*
X010225Y017899D01*
X010399Y017899D01*
X010399Y017827D01*
X010504Y017722D01*
X011134Y017722D01*
X011266Y017590D01*
X011266Y017214D01*
X011326Y017154D01*
X011266Y017093D01*
X011266Y016544D01*
X011348Y016462D01*
X011422Y016462D01*
X011422Y010856D01*
X011401Y010877D01*
X010602Y011676D01*
X010602Y011780D01*
X010557Y011890D01*
X010550Y011896D01*
X010563Y011896D01*
X010608Y011909D01*
X010649Y011932D01*
X010682Y011965D01*
X010706Y012006D01*
X010718Y012051D01*
X010718Y012389D01*
X010265Y012389D01*
X010265Y012549D01*
X010105Y012549D01*
X010105Y013041D01*
X009807Y013041D01*
X009762Y013028D01*
X009721Y013005D01*
X009688Y012972D01*
X009664Y012931D01*
X009652Y012886D01*
X009652Y012549D01*
X010105Y012549D01*
X010105Y012389D01*
X009652Y012389D01*
X009652Y012051D01*
X009664Y012006D01*
X009688Y011965D01*
X009721Y011932D01*
X009762Y011909D01*
X009807Y011896D01*
X010056Y011896D01*
X010050Y011890D01*
X010004Y011780D01*
X010004Y011743D01*
X008711Y011743D01*
X008667Y011851D01*
X008583Y011935D01*
X008473Y011980D01*
X008354Y011980D01*
X008244Y011935D01*
X008191Y011882D01*
X008052Y012021D01*
X008137Y012021D01*
X008219Y012103D01*
X008219Y012123D01*
X008227Y012092D01*
X008251Y012051D01*
X008284Y012018D01*
X008325Y011995D01*
X008370Y011983D01*
X008531Y011983D01*
X008531Y012437D01*
X008532Y012437D01*
X008532Y011983D01*
X008693Y011983D01*
X008738Y011995D01*
X008779Y012018D01*
X008812Y012051D01*
X008836Y012092D01*
X008844Y012123D01*
X008844Y012103D01*
X008926Y012021D01*
X009317Y012021D01*
X009399Y012103D01*
X009399Y012770D01*
X009317Y012852D01*
X008926Y012852D01*
X008887Y012813D01*
X008887Y013588D01*
X008926Y013549D01*
X009318Y013549D01*
X009400Y013631D01*
X009400Y014298D01*
X009318Y014380D01*
X009302Y014380D01*
X009302Y014433D01*
X009197Y014538D01*
X008221Y014538D01*
X008115Y014433D01*
X008063Y014380D01*
X007745Y014380D01*
X007663Y014298D01*
X007663Y013631D01*
X007745Y013549D01*
X008137Y013549D01*
X008176Y013588D01*
X008176Y012813D01*
X008137Y012852D01*
X008059Y012852D01*
X008059Y013082D01*
X008011Y013198D01*
X007923Y013287D01*
X007807Y013335D01*
X007681Y013335D01*
X007570Y013288D01*
X007570Y014914D01*
X008213Y015557D01*
X008550Y015557D01*
X008632Y015639D01*
X008632Y016188D01*
X008572Y016248D01*
X008632Y016308D01*
X008632Y016857D01*
X008571Y016919D01*
X008594Y016976D01*
X008594Y017095D01*
X008549Y017205D01*
X008465Y017289D01*
X008355Y017334D01*
X008236Y017334D01*
X008160Y017303D01*
X008160Y018016D01*
X008055Y018121D01*
X006134Y018121D01*
X006029Y018016D01*
X005679Y017666D01*
X005675Y017675D01*
X005494Y017856D01*
X005258Y017954D01*
X005002Y017954D01*
X004765Y017856D01*
X003944Y017856D01*
X003830Y018015D02*
X006028Y018015D01*
X005869Y017856D02*
X005495Y017856D01*
X005653Y017698D02*
X005711Y017698D01*
X004765Y017856D02*
X004584Y017675D01*
X004487Y017439D01*
X004487Y017183D01*
X004584Y016947D01*
X004765Y016766D01*
X004958Y016686D01*
X004765Y016606D01*
X004584Y016425D01*
X004487Y016189D01*
X004487Y016093D01*
X004398Y016182D01*
X004398Y016271D02*
X004521Y016271D01*
X004487Y016113D02*
X004467Y016113D01*
X004398Y016430D02*
X004589Y016430D01*
X004747Y016588D02*
X004398Y016588D01*
X004398Y016747D02*
X004811Y016747D01*
X004626Y016905D02*
X004398Y016905D01*
X004398Y017064D02*
X004536Y017064D01*
X004487Y017222D02*
X004398Y017222D01*
X004378Y017381D02*
X004487Y017381D01*
X004528Y017539D02*
X004261Y017539D01*
X004102Y017698D02*
X004607Y017698D01*
X003830Y018173D02*
X008175Y018173D01*
X008160Y018015D02*
X008175Y018015D01*
X008160Y017856D02*
X008430Y017856D01*
X008160Y017698D02*
X009189Y017698D01*
X009297Y017539D02*
X008160Y017539D01*
X008160Y017381D02*
X009297Y017381D01*
X009297Y017222D02*
X008531Y017222D01*
X008594Y017064D02*
X009260Y017064D01*
X009259Y016905D02*
X008584Y016905D01*
X008632Y016747D02*
X009259Y016747D01*
X009259Y016800D02*
X009259Y016579D01*
X009271Y016533D01*
X009294Y016493D01*
X009327Y016460D01*
X009368Y016436D01*
X009414Y016424D01*
X009615Y016424D01*
X009615Y016800D01*
X009259Y016800D01*
X009259Y016588D02*
X008632Y016588D01*
X008632Y016430D02*
X009392Y016430D01*
X009615Y016430D02*
X009652Y016430D01*
X009652Y016588D02*
X009615Y016588D01*
X009615Y016747D02*
X009652Y016747D01*
X010009Y016747D02*
X011266Y016747D01*
X011266Y016905D02*
X010009Y016905D01*
X010008Y017064D02*
X011266Y017064D01*
X011266Y017222D02*
X009971Y017222D01*
X009971Y017381D02*
X011266Y017381D01*
X011266Y017539D02*
X009971Y017539D01*
X009971Y017698D02*
X011158Y017698D01*
X011465Y017899D02*
X011798Y017899D01*
X011880Y017981D01*
X011880Y018059D01*
X011937Y018036D01*
X012056Y018036D01*
X012165Y018081D01*
X012250Y018165D01*
X012295Y018275D01*
X012295Y018394D01*
X012250Y018504D01*
X012165Y018588D01*
X012056Y018634D01*
X011937Y018634D01*
X011880Y018610D01*
X011880Y018645D01*
X012309Y018645D01*
X012309Y017981D01*
X012391Y017899D01*
X012564Y017899D01*
X012564Y010653D01*
X011647Y009736D01*
X011543Y009736D01*
X011507Y009721D01*
X011507Y010216D01*
X011543Y010201D01*
X011662Y010201D01*
X011772Y010246D01*
X011856Y010331D01*
X011901Y010441D01*
X011901Y010559D01*
X011856Y010669D01*
X011782Y010743D01*
X011782Y016462D01*
X011857Y016462D01*
X011939Y016544D01*
X011939Y017093D01*
X011879Y017154D01*
X011939Y017214D01*
X011939Y017763D01*
X011857Y017845D01*
X011520Y017845D01*
X011465Y017899D01*
X011509Y017856D02*
X012564Y017856D01*
X012564Y017698D02*
X011939Y017698D01*
X011939Y017539D02*
X012564Y017539D01*
X012564Y017381D02*
X011939Y017381D01*
X011939Y017222D02*
X012564Y017222D01*
X012564Y017064D02*
X011939Y017064D01*
X011939Y016905D02*
X012564Y016905D01*
X012564Y016747D02*
X011939Y016747D01*
X011939Y016588D02*
X012564Y016588D01*
X012564Y016430D02*
X011782Y016430D01*
X011782Y016271D02*
X012564Y016271D01*
X012564Y016113D02*
X011782Y016113D01*
X011782Y015954D02*
X012564Y015954D01*
X012564Y015796D02*
X011782Y015796D01*
X011782Y015637D02*
X012564Y015637D01*
X012564Y015479D02*
X011782Y015479D01*
X011782Y015320D02*
X012564Y015320D01*
X012564Y015162D02*
X011782Y015162D01*
X011782Y015003D02*
X012564Y015003D01*
X012564Y014845D02*
X011782Y014845D01*
X011782Y014686D02*
X012564Y014686D01*
X012564Y014528D02*
X011782Y014528D01*
X011782Y014369D02*
X012564Y014369D01*
X012564Y014211D02*
X011782Y014211D01*
X011782Y014052D02*
X012564Y014052D01*
X012564Y013894D02*
X011782Y013894D01*
X011782Y013735D02*
X012564Y013735D01*
X012564Y013577D02*
X011782Y013577D01*
X011782Y013418D02*
X012564Y013418D01*
X012564Y013260D02*
X011782Y013260D01*
X011782Y013101D02*
X012564Y013101D01*
X012564Y012943D02*
X011782Y012943D01*
X011782Y012784D02*
X012564Y012784D01*
X012564Y012626D02*
X011782Y012626D01*
X011782Y012467D02*
X012564Y012467D01*
X012564Y012309D02*
X011782Y012309D01*
X011782Y012150D02*
X012564Y012150D01*
X012564Y011992D02*
X011782Y011992D01*
X011782Y011833D02*
X012564Y011833D01*
X012564Y011675D02*
X011782Y011675D01*
X011782Y011516D02*
X012564Y011516D01*
X012564Y011358D02*
X011782Y011358D01*
X011782Y011199D02*
X012564Y011199D01*
X012564Y011041D02*
X011782Y011041D01*
X011782Y010882D02*
X012564Y010882D01*
X012564Y010724D02*
X011802Y010724D01*
X011899Y010565D02*
X012476Y010565D01*
X012318Y010407D02*
X011887Y010407D01*
X011774Y010248D02*
X012159Y010248D01*
X012001Y010090D02*
X011507Y010090D01*
X011507Y009931D02*
X011842Y009931D01*
X011684Y009773D02*
X011507Y009773D01*
X012034Y009614D02*
X013509Y009614D01*
X013509Y009456D02*
X011901Y009456D01*
X011901Y009482D02*
X012819Y010399D01*
X012924Y010504D01*
X012924Y017899D01*
X013097Y017899D01*
X013177Y017979D01*
X013257Y017899D01*
X013430Y017899D01*
X013430Y017591D01*
X013431Y017590D01*
X013431Y017214D01*
X013491Y017154D01*
X013451Y017114D01*
X013394Y017138D01*
X013275Y017138D01*
X013165Y017092D01*
X013081Y017008D01*
X013036Y016898D01*
X013036Y016779D01*
X013081Y016669D01*
X013165Y016585D01*
X013275Y016540D01*
X013394Y016540D01*
X013431Y016555D01*
X013431Y016544D01*
X013513Y016462D01*
X014003Y016462D01*
X013509Y015968D01*
X013509Y009433D01*
X012434Y008358D01*
X012330Y008358D01*
X012220Y008313D01*
X012173Y008265D01*
X012126Y008313D01*
X012016Y008358D01*
X011897Y008358D01*
X011861Y008343D01*
X011861Y008449D01*
X011756Y008554D01*
X011507Y008803D01*
X011507Y009153D01*
X011543Y009138D01*
X011662Y009138D01*
X011772Y009183D01*
X011856Y009268D01*
X011901Y009378D01*
X011901Y009482D01*
X011868Y009297D02*
X013373Y009297D01*
X013215Y009139D02*
X011664Y009139D01*
X011541Y009139D02*
X011507Y009139D01*
X011507Y008980D02*
X013056Y008980D01*
X012898Y008822D02*
X011507Y008822D01*
X011646Y008663D02*
X012739Y008663D01*
X012581Y008505D02*
X011805Y008505D01*
X011861Y008346D02*
X011869Y008346D01*
X012045Y008346D02*
X012302Y008346D01*
X012689Y008104D02*
X013764Y009178D01*
X013869Y009284D01*
X013869Y015819D01*
X014787Y016737D01*
X014893Y016843D01*
X014893Y017899D01*
X015066Y017899D01*
X015146Y017979D01*
X015225Y017899D01*
X015399Y017899D01*
X015399Y017591D01*
X015399Y017590D01*
X015399Y017214D01*
X015459Y017154D01*
X015420Y017114D01*
X015363Y017138D01*
X015244Y017138D01*
X015134Y017092D01*
X015050Y017008D01*
X015004Y016898D01*
X015004Y016779D01*
X015050Y016669D01*
X015134Y016585D01*
X015244Y016540D01*
X015363Y016540D01*
X015399Y016555D01*
X015399Y016544D01*
X015481Y016462D01*
X015991Y016462D01*
X016073Y016544D01*
X016073Y017093D01*
X016013Y017154D01*
X016073Y017214D01*
X016073Y017763D01*
X015991Y017845D01*
X015759Y017845D01*
X015759Y017899D01*
X015932Y017899D01*
X016014Y017981D01*
X016014Y018645D01*
X017191Y018645D01*
X017191Y017096D01*
X017273Y017014D01*
X017782Y017014D01*
X017864Y017096D01*
X017864Y017626D01*
X017921Y017603D01*
X018040Y017603D01*
X018150Y017648D01*
X018234Y017732D01*
X018246Y017761D01*
X018840Y017761D01*
X018913Y017687D01*
X019023Y017642D01*
X019142Y017642D01*
X019199Y017665D01*
X019199Y017096D01*
X019281Y017014D01*
X019787Y017014D01*
X019787Y008746D01*
X019772Y008752D01*
X019653Y008752D01*
X019543Y008706D01*
X019459Y008622D01*
X019414Y008512D01*
X019414Y008393D01*
X019459Y008283D01*
X019543Y008199D01*
X019653Y008154D01*
X019772Y008154D01*
X019787Y008160D01*
X019787Y006213D01*
X017649Y006213D01*
X017546Y006170D01*
X017467Y006092D01*
X017425Y005989D01*
X017425Y005778D01*
X016407Y005778D01*
X016325Y005696D01*
X016325Y005168D01*
X016250Y005168D01*
X016250Y005775D01*
X016168Y005857D01*
X015462Y005857D01*
X015380Y005775D01*
X015380Y005697D01*
X015323Y005720D01*
X015204Y005720D01*
X015094Y005675D01*
X015010Y005591D01*
X014965Y005481D01*
X014965Y005362D01*
X015010Y005252D01*
X015094Y005168D01*
X015204Y005122D01*
X015323Y005122D01*
X015380Y005146D01*
X015380Y005068D01*
X015462Y004986D01*
X015587Y004986D01*
X015522Y004921D01*
X015477Y004811D01*
X015477Y004692D01*
X015491Y004656D01*
X015349Y004656D01*
X015276Y004730D01*
X015166Y004775D01*
X015047Y004775D01*
X014937Y004730D01*
X014853Y004646D01*
X014807Y004536D01*
X014807Y004417D01*
X014853Y004307D01*
X014937Y004223D01*
X015047Y004177D01*
X015166Y004177D01*
X015276Y004223D01*
X015349Y004296D01*
X016325Y004296D01*
X016325Y004202D01*
X016365Y004161D01*
X016325Y004121D01*
X016325Y004066D01*
X014184Y004066D01*
X014184Y005417D01*
X013831Y005770D01*
X013831Y005874D01*
X013785Y005984D01*
X013701Y006068D01*
X013591Y006114D01*
X013472Y006114D01*
X013436Y006099D01*
X013436Y006834D01*
X013330Y006940D01*
X012492Y007778D01*
X012559Y007806D01*
X012643Y007890D01*
X012689Y008000D01*
X012689Y008104D01*
X012689Y008029D02*
X019787Y008029D01*
X019787Y007871D02*
X012624Y007871D01*
X012558Y007712D02*
X019787Y007712D01*
X019787Y007554D02*
X015013Y007554D01*
X014925Y007613D02*
X014925Y007613D01*
X015238Y007403D01*
X015238Y007403D01*
X015447Y007090D01*
X015521Y006720D01*
X015447Y006351D01*
X015447Y006351D01*
X015238Y006038D01*
X015238Y006038D01*
X014925Y005828D01*
X014555Y005755D01*
X014555Y005755D01*
X014186Y005828D01*
X014186Y005828D01*
X013872Y006038D01*
X013872Y006038D01*
X013663Y006351D01*
X013663Y006351D01*
X013589Y006720D01*
X013589Y006720D01*
X013663Y007090D01*
X013663Y007090D01*
X013872Y007403D01*
X013872Y007403D01*
X013872Y007403D01*
X014186Y007613D01*
X014186Y007613D01*
X014555Y007686D01*
X014555Y007686D01*
X014925Y007613D01*
X015238Y007403D02*
X015238Y007403D01*
X015244Y007395D02*
X017415Y007395D01*
X017429Y007409D02*
X017331Y007311D01*
X017278Y007183D01*
X017278Y007045D01*
X017331Y006917D01*
X017429Y006819D01*
X017557Y006766D01*
X017695Y006766D01*
X017823Y006819D01*
X017921Y006917D01*
X017974Y007045D01*
X017974Y007183D01*
X017921Y007311D01*
X017823Y007409D01*
X017695Y007462D01*
X017557Y007462D01*
X017429Y007409D01*
X017300Y007237D02*
X015349Y007237D01*
X015447Y007090D02*
X015447Y007090D01*
X015450Y007078D02*
X017278Y007078D01*
X017330Y006920D02*
X015481Y006920D01*
X015513Y006761D02*
X019787Y006761D01*
X019787Y006603D02*
X015498Y006603D01*
X015466Y006444D02*
X019787Y006444D01*
X019787Y006286D02*
X015404Y006286D01*
X015298Y006127D02*
X017503Y006127D01*
X017425Y005969D02*
X015135Y005969D01*
X015415Y005810D02*
X014835Y005810D01*
X015071Y005652D02*
X013949Y005652D01*
X013831Y005810D02*
X014275Y005810D01*
X013975Y005969D02*
X013791Y005969D01*
X013812Y006127D02*
X013436Y006127D01*
X013436Y006286D02*
X013706Y006286D01*
X013644Y006444D02*
X013436Y006444D01*
X013436Y006603D02*
X013613Y006603D01*
X013597Y006761D02*
X013436Y006761D01*
X013351Y006920D02*
X013629Y006920D01*
X013660Y007078D02*
X013192Y007078D01*
X013034Y007237D02*
X013761Y007237D01*
X013867Y007395D02*
X012875Y007395D01*
X012717Y007554D02*
X014097Y007554D01*
X013000Y006761D02*
X010864Y006761D01*
X010864Y006603D02*
X013076Y006603D01*
X013076Y006685D02*
X013076Y003221D01*
X013231Y003065D01*
X013231Y002334D01*
X012999Y002334D01*
X012999Y003335D01*
X012917Y003417D01*
X012290Y003417D01*
X012208Y003335D01*
X012208Y002354D01*
X012155Y002407D01*
X012155Y002758D01*
X012095Y002819D01*
X012155Y002879D01*
X012155Y003428D01*
X012073Y003510D01*
X012019Y003510D01*
X012019Y003733D01*
X012058Y003772D01*
X012270Y003984D01*
X012290Y003964D01*
X012917Y003964D01*
X012999Y004046D01*
X012999Y005067D01*
X012917Y005149D01*
X012290Y005149D01*
X012208Y005067D01*
X012208Y004431D01*
X012163Y004386D01*
X012163Y004434D01*
X012129Y004468D01*
X012132Y004469D01*
X012166Y004503D01*
X012189Y004543D01*
X012201Y004589D01*
X012201Y004810D01*
X011844Y004810D01*
X011844Y004847D01*
X011808Y004847D01*
X011808Y005224D01*
X011606Y005224D01*
X011560Y005212D01*
X011520Y005188D01*
X011486Y005155D01*
X011463Y005114D01*
X011451Y005069D01*
X011451Y004847D01*
X011808Y004847D01*
X011808Y004810D01*
X011451Y004810D01*
X011451Y004589D01*
X011463Y004543D01*
X011486Y004503D01*
X011520Y004469D01*
X011523Y004468D01*
X011489Y004434D01*
X011489Y003985D01*
X011387Y004027D01*
X011387Y004123D01*
X011030Y004123D01*
X011030Y003794D01*
X011028Y003788D01*
X011028Y003669D01*
X011073Y003559D01*
X011157Y003475D01*
X011267Y003429D01*
X011386Y003429D01*
X011496Y003475D01*
X011570Y003548D01*
X011659Y003548D01*
X011659Y003510D01*
X011563Y003510D01*
X011481Y003428D01*
X011481Y002879D01*
X011541Y002819D01*
X011481Y002758D01*
X011481Y002209D01*
X011563Y002127D01*
X011925Y002127D01*
X011974Y002079D01*
X012079Y001974D01*
X013685Y001974D01*
X013790Y002079D01*
X013790Y002231D01*
X013941Y002231D01*
X014023Y002313D01*
X014023Y002682D01*
X014033Y002682D01*
X014033Y002596D01*
X014389Y002596D01*
X014389Y002560D01*
X014033Y002560D01*
X014033Y002338D01*
X014045Y002293D01*
X014068Y002252D01*
X014101Y002219D01*
X014142Y002195D01*
X014188Y002183D01*
X014389Y002183D01*
X014389Y002560D01*
X014426Y002560D01*
X014426Y002596D01*
X014783Y002596D01*
X014783Y002818D01*
X014771Y002863D01*
X014747Y002904D01*
X014714Y002937D01*
X014711Y002939D01*
X014745Y002973D01*
X014745Y003522D01*
X014663Y003604D01*
X014153Y003604D01*
X014071Y003522D01*
X014071Y003144D01*
X014023Y003097D01*
X014023Y003335D01*
X013941Y003417D01*
X013436Y003417D01*
X013436Y003964D01*
X013824Y003964D01*
X013824Y003811D01*
X013929Y003706D01*
X016325Y003706D01*
X016325Y003611D01*
X016407Y003529D01*
X017425Y003529D01*
X017425Y003454D01*
X017064Y003454D01*
X017064Y003048D01*
X016928Y003048D01*
X016928Y002913D01*
X016286Y002913D01*
X016286Y002662D01*
X016298Y002616D01*
X016322Y002575D01*
X016355Y002542D01*
X016396Y002519D01*
X016441Y002507D01*
X016928Y002507D01*
X016928Y002913D01*
X017064Y002913D01*
X017064Y002507D01*
X017425Y002507D01*
X017425Y002334D01*
X017467Y002231D01*
X017546Y002152D01*
X017649Y002110D01*
X019787Y002110D01*
X019787Y000701D01*
X010227Y000701D01*
X010227Y001995D01*
X010145Y002077D01*
X009222Y002077D01*
X009140Y001995D01*
X009140Y000701D01*
X009070Y000701D01*
X009070Y001016D01*
X009008Y001077D01*
X006480Y001077D01*
X006419Y001016D01*
X006419Y000701D01*
X006349Y000701D01*
X006349Y001974D01*
X007189Y001974D01*
X007294Y002079D01*
X007294Y002270D01*
X007355Y002210D01*
X008606Y002210D01*
X008711Y002315D01*
X008790Y002394D01*
X008790Y002906D01*
X009140Y003255D01*
X009140Y002233D01*
X009222Y002151D01*
X010145Y002151D01*
X010227Y002233D01*
X010227Y003530D01*
X010145Y003612D01*
X009497Y003612D01*
X010063Y004178D01*
X010168Y004284D01*
X010168Y005950D01*
X010276Y005995D01*
X010360Y006079D01*
X010405Y006189D01*
X010405Y006308D01*
X010360Y006417D01*
X010343Y006435D01*
X010782Y006435D01*
X010864Y006517D01*
X010864Y007505D01*
X010913Y007484D01*
X011032Y007484D01*
X011142Y007530D01*
X011226Y007614D01*
X011271Y007724D01*
X011271Y007843D01*
X011226Y007953D01*
X011142Y008037D01*
X011032Y008083D01*
X010913Y008083D01*
X010864Y008062D01*
X010864Y008232D01*
X010867Y008235D01*
X010890Y008276D01*
X010902Y008321D01*
X010902Y008400D01*
X010902Y008478D01*
X010892Y008517D01*
X010913Y008508D01*
X011032Y008508D01*
X011142Y008554D01*
X011194Y008606D01*
X011501Y008299D01*
X011501Y007475D01*
X011428Y007402D01*
X011382Y007292D01*
X011382Y007173D01*
X011428Y007063D01*
X011512Y006979D01*
X011622Y006933D01*
X011741Y006933D01*
X011851Y006979D01*
X011935Y007063D01*
X011980Y007173D01*
X011980Y007292D01*
X011935Y007402D01*
X011861Y007475D01*
X011861Y007775D01*
X011897Y007760D01*
X012001Y007760D01*
X013076Y006685D01*
X013076Y006444D02*
X010792Y006444D01*
X010405Y006286D02*
X013076Y006286D01*
X013076Y006127D02*
X010380Y006127D01*
X010214Y005969D02*
X013076Y005969D01*
X013076Y005810D02*
X010168Y005810D01*
X010168Y005652D02*
X013076Y005652D01*
X013076Y005493D02*
X010168Y005493D01*
X010168Y005335D02*
X013076Y005335D01*
X013076Y005176D02*
X012144Y005176D01*
X012132Y005188D02*
X012092Y005212D01*
X012046Y005224D01*
X011844Y005224D01*
X011844Y004847D01*
X012201Y004847D01*
X012201Y005069D01*
X012189Y005114D01*
X012166Y005155D01*
X012132Y005188D01*
X012201Y005018D02*
X012208Y005018D01*
X012201Y004859D02*
X012208Y004859D01*
X012201Y004701D02*
X012208Y004701D01*
X012208Y004542D02*
X012188Y004542D01*
X011844Y004859D02*
X011808Y004859D01*
X011808Y005018D02*
X011844Y005018D01*
X011844Y005176D02*
X011808Y005176D01*
X011508Y005176D02*
X010168Y005176D01*
X010168Y005018D02*
X010439Y005018D01*
X010409Y005005D02*
X010325Y004921D01*
X010280Y004811D01*
X010280Y004692D01*
X010325Y004583D01*
X010409Y004498D01*
X010519Y004453D01*
X010638Y004453D01*
X010672Y004467D01*
X010649Y004427D01*
X010637Y004382D01*
X010637Y004160D01*
X010993Y004160D01*
X010993Y004123D01*
X010637Y004123D01*
X010637Y003902D01*
X010649Y003856D01*
X010672Y003816D01*
X010705Y003782D01*
X010746Y003759D01*
X010791Y003747D01*
X010993Y003747D01*
X010993Y004123D01*
X011030Y004123D01*
X011030Y004160D01*
X010993Y004160D01*
X010993Y004454D01*
X011030Y004454D01*
X011030Y004160D01*
X011387Y004160D01*
X011387Y004382D01*
X011375Y004427D01*
X011351Y004468D01*
X011318Y004501D01*
X011315Y004503D01*
X011349Y004536D01*
X011349Y005086D01*
X011267Y005168D01*
X010757Y005168D01*
X010675Y005086D01*
X010675Y005036D01*
X010638Y005051D01*
X010519Y005051D01*
X010409Y005005D01*
X010299Y004859D02*
X010168Y004859D01*
X010168Y004701D02*
X010280Y004701D01*
X010366Y004542D02*
X010168Y004542D01*
X010168Y004384D02*
X010637Y004384D01*
X010637Y004225D02*
X010110Y004225D01*
X010063Y004178D02*
X010063Y004178D01*
X009951Y004067D02*
X010637Y004067D01*
X010637Y003908D02*
X009793Y003908D01*
X009634Y003750D02*
X010780Y003750D01*
X010993Y003750D02*
X011028Y003750D01*
X011030Y003908D02*
X010993Y003908D01*
X010993Y004067D02*
X011030Y004067D01*
X011030Y004225D02*
X010993Y004225D01*
X010993Y004384D02*
X011030Y004384D01*
X011349Y004542D02*
X011463Y004542D01*
X011451Y004701D02*
X011349Y004701D01*
X011349Y004859D02*
X011451Y004859D01*
X011451Y005018D02*
X011349Y005018D01*
X011387Y004384D02*
X011489Y004384D01*
X011489Y004225D02*
X011387Y004225D01*
X011387Y004067D02*
X011489Y004067D01*
X012036Y003750D02*
X013076Y003750D01*
X013076Y003908D02*
X012194Y003908D01*
X012058Y003772D02*
X012058Y003772D01*
X012019Y003591D02*
X013076Y003591D01*
X013076Y003433D02*
X012150Y003433D01*
X012155Y003274D02*
X012208Y003274D01*
X012208Y003116D02*
X012155Y003116D01*
X012155Y002957D02*
X012208Y002957D01*
X012208Y002799D02*
X012115Y002799D01*
X012155Y002640D02*
X012208Y002640D01*
X012208Y002482D02*
X012155Y002482D01*
X012046Y002006D02*
X010215Y002006D01*
X010227Y001848D02*
X019787Y001848D01*
X019787Y002006D02*
X013718Y002006D01*
X013790Y002165D02*
X017534Y002165D01*
X017429Y002323D02*
X014779Y002323D01*
X014783Y002338D02*
X014783Y002560D01*
X014426Y002560D01*
X014426Y002183D01*
X014628Y002183D01*
X014674Y002195D01*
X014714Y002219D01*
X014747Y002252D01*
X014771Y002293D01*
X014783Y002338D01*
X014783Y002482D02*
X017425Y002482D01*
X017064Y002640D02*
X016928Y002640D01*
X016928Y002799D02*
X017064Y002799D01*
X016928Y002957D02*
X014729Y002957D01*
X014745Y003116D02*
X016286Y003116D01*
X016286Y003048D02*
X016928Y003048D01*
X016928Y003454D01*
X016441Y003454D01*
X016396Y003442D01*
X016355Y003418D01*
X016322Y003385D01*
X016298Y003344D01*
X016286Y003299D01*
X016286Y003048D01*
X016286Y002799D02*
X014783Y002799D01*
X014783Y002640D02*
X016292Y002640D01*
X016928Y003116D02*
X017064Y003116D01*
X017064Y003274D02*
X016928Y003274D01*
X016928Y003433D02*
X017064Y003433D01*
X016380Y003433D02*
X014745Y003433D01*
X014745Y003274D02*
X016286Y003274D01*
X016345Y003591D02*
X014675Y003591D01*
X014141Y003591D02*
X013436Y003591D01*
X013436Y003433D02*
X014071Y003433D01*
X014071Y003274D02*
X014023Y003274D01*
X014023Y003116D02*
X014042Y003116D01*
X014023Y002640D02*
X014033Y002640D01*
X014023Y002482D02*
X014033Y002482D01*
X014023Y002323D02*
X014037Y002323D01*
X014389Y002323D02*
X014426Y002323D01*
X014426Y002482D02*
X014389Y002482D01*
X013231Y002482D02*
X012999Y002482D01*
X012999Y002640D02*
X013231Y002640D01*
X013231Y002799D02*
X012999Y002799D01*
X012999Y002957D02*
X013231Y002957D01*
X013181Y003116D02*
X012999Y003116D01*
X012999Y003274D02*
X013076Y003274D01*
X013436Y003750D02*
X013885Y003750D01*
X013824Y003908D02*
X013436Y003908D01*
X013076Y004067D02*
X012999Y004067D01*
X012999Y004225D02*
X013076Y004225D01*
X013076Y004384D02*
X012999Y004384D01*
X012999Y004542D02*
X013076Y004542D01*
X013076Y004701D02*
X012999Y004701D01*
X012999Y004859D02*
X013076Y004859D01*
X013076Y005018D02*
X012999Y005018D01*
X013436Y005149D02*
X013436Y005531D01*
X013472Y005516D01*
X013576Y005516D01*
X013824Y005268D01*
X013824Y005149D01*
X013436Y005149D01*
X013436Y005176D02*
X013824Y005176D01*
X013757Y005335D02*
X013436Y005335D01*
X013436Y005493D02*
X013599Y005493D01*
X014108Y005493D02*
X014970Y005493D01*
X014976Y005335D02*
X014184Y005335D01*
X014184Y005176D02*
X015086Y005176D01*
X015430Y005018D02*
X014184Y005018D01*
X014184Y004859D02*
X015496Y004859D01*
X015477Y004701D02*
X015305Y004701D01*
X014908Y004701D02*
X014184Y004701D01*
X014184Y004542D02*
X014810Y004542D01*
X014821Y004384D02*
X014184Y004384D01*
X014184Y004225D02*
X014934Y004225D01*
X015278Y004225D02*
X016325Y004225D01*
X016325Y004067D02*
X014184Y004067D01*
X016060Y004656D02*
X016075Y004692D01*
X016075Y004808D01*
X016716Y004808D01*
X016815Y004907D01*
X017425Y004907D01*
X017425Y004794D01*
X016407Y004794D01*
X016325Y004712D01*
X016325Y004656D01*
X016060Y004656D01*
X016075Y004701D02*
X016325Y004701D01*
X016767Y004859D02*
X017425Y004859D01*
X017985Y004859D02*
X020067Y004859D01*
X020067Y004701D02*
X017985Y004701D01*
X017985Y004542D02*
X020067Y004542D01*
X020067Y004384D02*
X017985Y004384D01*
X017985Y004225D02*
X020067Y004225D01*
X020067Y004067D02*
X017985Y004067D01*
X017985Y003908D02*
X020067Y003908D01*
X020067Y003750D02*
X017985Y003750D01*
X017985Y003591D02*
X020067Y003591D01*
X020067Y003433D02*
X017985Y003433D01*
X017985Y003274D02*
X020067Y003274D01*
X020067Y003116D02*
X017985Y003116D01*
X017985Y002957D02*
X020067Y002957D01*
X020067Y002799D02*
X017985Y002799D01*
X017985Y002670D02*
X017985Y005653D01*
X020067Y005653D01*
X020067Y002670D01*
X017985Y002670D01*
X017695Y001557D02*
X017557Y001557D01*
X017429Y001504D01*
X017331Y001406D01*
X017278Y001278D01*
X017278Y001139D01*
X017331Y001011D01*
X017429Y000914D01*
X017557Y000861D01*
X017695Y000861D01*
X017823Y000914D01*
X017921Y001011D01*
X017974Y001139D01*
X017974Y001278D01*
X017921Y001406D01*
X017823Y001504D01*
X017695Y001557D01*
X017758Y001531D02*
X019069Y001531D01*
X019132Y001557D02*
X019004Y001504D01*
X018906Y001406D01*
X018853Y001278D01*
X018853Y001139D01*
X018906Y001011D01*
X019004Y000914D01*
X019132Y000861D01*
X019270Y000861D01*
X019398Y000914D01*
X019496Y001011D01*
X019549Y001139D01*
X019549Y001278D01*
X019496Y001406D01*
X019398Y001504D01*
X019270Y001557D01*
X019132Y001557D01*
X019333Y001531D02*
X019787Y001531D01*
X019787Y001689D02*
X010227Y001689D01*
X010227Y001531D02*
X015819Y001531D01*
X015833Y001552D02*
X015694Y001337D01*
X015694Y001081D01*
X015833Y000866D01*
X016065Y000759D01*
X016319Y000796D01*
X016512Y000963D01*
X016512Y000963D01*
X016584Y001209D01*
X016512Y001454D01*
X016319Y001622D01*
X016319Y001622D01*
X016065Y001658D01*
X015833Y001552D01*
X015833Y001552D01*
X015833Y001552D01*
X015717Y001372D02*
X010227Y001372D01*
X010227Y001214D02*
X015694Y001214D01*
X015711Y001055D02*
X010227Y001055D01*
X010227Y000897D02*
X015813Y000897D01*
X015833Y000866D02*
X015833Y000866D01*
X016065Y000759D02*
X016065Y000759D01*
X016319Y000796D02*
X016319Y000796D01*
X016435Y000897D02*
X017469Y000897D01*
X017313Y001055D02*
X016539Y001055D01*
X016584Y001209D02*
X016584Y001209D01*
X016582Y001214D02*
X017278Y001214D01*
X017317Y001372D02*
X016536Y001372D01*
X016512Y001454D02*
X016512Y001454D01*
X016423Y001531D02*
X017494Y001531D01*
X017935Y001372D02*
X018892Y001372D01*
X018853Y001214D02*
X017974Y001214D01*
X017939Y001055D02*
X018888Y001055D01*
X019044Y000897D02*
X017783Y000897D01*
X019357Y000897D02*
X019787Y000897D01*
X019787Y001055D02*
X019514Y001055D01*
X019549Y001214D02*
X019787Y001214D01*
X019787Y001372D02*
X019510Y001372D01*
X019787Y000738D02*
X010227Y000738D01*
X009140Y000738D02*
X009070Y000738D01*
X009070Y000897D02*
X009140Y000897D01*
X009140Y001055D02*
X009030Y001055D01*
X009140Y001214D02*
X006349Y001214D01*
X006349Y001372D02*
X009140Y001372D01*
X009140Y001531D02*
X006349Y001531D01*
X006349Y001689D02*
X009140Y001689D01*
X009140Y001848D02*
X006349Y001848D01*
X006349Y002482D02*
X006876Y002482D01*
X006876Y002640D02*
X006349Y002640D01*
X006349Y002799D02*
X006876Y002799D01*
X006876Y002957D02*
X006349Y002957D01*
X006349Y003116D02*
X006876Y003116D01*
X006876Y003274D02*
X006349Y003274D01*
X006349Y003433D02*
X006876Y003433D01*
X006998Y003591D02*
X006288Y003591D01*
X005906Y003908D02*
X007315Y003908D01*
X007368Y004067D02*
X005996Y004067D01*
X006138Y004578D02*
X006501Y004578D01*
X006501Y005065D01*
X006153Y004718D01*
X006153Y004614D01*
X006138Y004578D01*
X006153Y004701D02*
X006501Y004701D01*
X006501Y004859D02*
X006295Y004859D01*
X006453Y005018D02*
X006501Y005018D01*
X006861Y005018D02*
X007179Y005018D01*
X007364Y005018D02*
X007367Y005018D01*
X007367Y004859D02*
X006861Y004859D01*
X006861Y004701D02*
X007367Y004701D01*
X007367Y004542D02*
X006861Y004542D01*
X006861Y004384D02*
X007425Y004384D01*
X007464Y004225D02*
X006763Y004225D01*
X007157Y003750D02*
X005248Y003750D01*
X005195Y003591D02*
X005322Y003591D01*
X005262Y003433D02*
X004357Y003433D01*
X004199Y003591D02*
X004702Y003591D01*
X004650Y003750D02*
X004040Y003750D01*
X003882Y003908D02*
X004600Y003908D01*
X004563Y004067D02*
X003869Y004067D01*
X003869Y004225D02*
X004563Y004225D01*
X004321Y004384D02*
X004905Y004384D01*
X004746Y004542D02*
X004379Y004542D01*
X004379Y004701D02*
X004588Y004701D01*
X004429Y004859D02*
X004379Y004859D01*
X004950Y004848D02*
X005031Y004848D01*
X005110Y004769D01*
X005110Y004769D01*
X005516Y004364D01*
X005491Y004339D01*
X005450Y004380D01*
X005286Y004380D01*
X005286Y004512D01*
X004950Y004848D01*
X005097Y004701D02*
X005179Y004701D01*
X005256Y004542D02*
X005337Y004542D01*
X005286Y004384D02*
X005496Y004384D01*
X005529Y004859D02*
X005617Y004859D01*
X005570Y005018D02*
X005796Y005018D01*
X005713Y005176D02*
X005570Y005176D01*
X005534Y005335D02*
X005647Y005335D01*
X005343Y005335D02*
X005343Y005335D01*
X005343Y005176D02*
X005343Y005176D01*
X006250Y005410D02*
X006304Y005410D01*
X006304Y005378D01*
X006281Y005355D01*
X006265Y005394D01*
X006250Y005410D01*
X006861Y005335D02*
X006973Y005335D01*
X007001Y005176D02*
X006861Y005176D01*
X007727Y005176D02*
X009808Y005176D01*
X009787Y005241D02*
X009808Y005262D01*
X009808Y004433D01*
X008651Y003275D01*
X008651Y003417D01*
X008639Y003463D01*
X008615Y003503D01*
X008582Y003536D01*
X008541Y003560D01*
X008496Y003572D01*
X008374Y003572D01*
X008357Y003572D01*
X008397Y003669D01*
X008397Y003788D01*
X008352Y003898D01*
X008278Y003971D01*
X008278Y004039D01*
X007727Y004590D01*
X007727Y005347D01*
X007761Y005380D01*
X007796Y005371D01*
X007874Y005371D01*
X007918Y005371D01*
X007918Y005347D01*
X008024Y005241D01*
X009787Y005241D01*
X009808Y005018D02*
X007727Y005018D01*
X007727Y004859D02*
X009808Y004859D01*
X009808Y004701D02*
X007727Y004701D01*
X007775Y004542D02*
X009808Y004542D01*
X009759Y004384D02*
X007934Y004384D01*
X008092Y004225D02*
X009601Y004225D01*
X009442Y004067D02*
X008251Y004067D01*
X008341Y003908D02*
X009284Y003908D01*
X009125Y003750D02*
X008397Y003750D01*
X008365Y003591D02*
X008967Y003591D01*
X008808Y003433D02*
X008647Y003433D01*
X008374Y003433D02*
X008374Y003433D01*
X008374Y003572D02*
X008374Y002951D01*
X008374Y002951D01*
X008374Y003572D01*
X008374Y003274D02*
X008374Y003274D01*
X008374Y003116D02*
X008374Y003116D01*
X008374Y002957D02*
X008374Y002957D01*
X008790Y002799D02*
X009140Y002799D01*
X009140Y002957D02*
X008842Y002957D01*
X009000Y003116D02*
X009140Y003116D01*
X009140Y002640D02*
X008790Y002640D01*
X008790Y002482D02*
X009140Y002482D01*
X009140Y002323D02*
X008720Y002323D01*
X009208Y002165D02*
X007294Y002165D01*
X007221Y002006D02*
X009151Y002006D01*
X010158Y002165D02*
X011526Y002165D01*
X011481Y002323D02*
X010227Y002323D01*
X010227Y002482D02*
X011481Y002482D01*
X011481Y002640D02*
X010227Y002640D01*
X010227Y002799D02*
X011522Y002799D01*
X011481Y002957D02*
X010227Y002957D01*
X010227Y003116D02*
X011481Y003116D01*
X011481Y003274D02*
X010227Y003274D01*
X010227Y003433D02*
X011259Y003433D01*
X011395Y003433D02*
X011486Y003433D01*
X011060Y003591D02*
X010166Y003591D01*
X007930Y005335D02*
X007727Y005335D01*
X007874Y005371D02*
X007874Y005840D01*
X007874Y005371D01*
X007874Y005493D02*
X007874Y005493D01*
X007874Y005652D02*
X007874Y005652D01*
X007874Y005810D02*
X007874Y005810D01*
X007874Y005840D02*
X007874Y005840D01*
X007707Y006270D02*
X007688Y006270D01*
X007688Y006922D01*
X007819Y007052D01*
X007924Y007158D01*
X007924Y007578D01*
X007960Y007563D01*
X008064Y007563D01*
X008312Y007315D01*
X008312Y006536D01*
X008228Y006620D01*
X008119Y006665D01*
X008000Y006665D01*
X007890Y006620D01*
X007806Y006536D01*
X007760Y006426D01*
X007760Y006307D01*
X007763Y006299D01*
X007750Y006296D01*
X007709Y006272D01*
X007707Y006270D01*
X007688Y006286D02*
X007733Y006286D01*
X007768Y006444D02*
X007688Y006444D01*
X007688Y006603D02*
X007873Y006603D01*
X007688Y006761D02*
X008312Y006761D01*
X008312Y006603D02*
X008245Y006603D01*
X008672Y006603D02*
X008868Y006603D01*
X008981Y006716D02*
X008672Y006407D01*
X008672Y007315D01*
X008672Y007464D01*
X008319Y007818D01*
X008319Y007922D01*
X008273Y008032D01*
X008246Y008059D01*
X008273Y008087D01*
X008319Y008196D01*
X008319Y008315D01*
X008273Y008425D01*
X008189Y008509D01*
X008079Y008555D01*
X007960Y008555D01*
X007850Y008509D01*
X007766Y008425D01*
X007721Y008315D01*
X007721Y008211D01*
X007564Y008055D01*
X007564Y007442D01*
X007530Y007475D01*
X007530Y008260D01*
X008981Y009711D01*
X008981Y006716D01*
X008981Y006761D02*
X008672Y006761D01*
X008672Y006920D02*
X008981Y006920D01*
X008981Y007078D02*
X008672Y007078D01*
X008672Y007237D02*
X008981Y007237D01*
X008981Y007395D02*
X008672Y007395D01*
X008583Y007554D02*
X008981Y007554D01*
X008981Y007712D02*
X008424Y007712D01*
X008319Y007871D02*
X008981Y007871D01*
X008981Y008029D02*
X008274Y008029D01*
X008315Y008188D02*
X008981Y008188D01*
X008981Y008346D02*
X008306Y008346D01*
X008194Y008505D02*
X008981Y008505D01*
X008981Y008663D02*
X007934Y008663D01*
X007846Y008505D02*
X007775Y008505D01*
X007733Y008346D02*
X007617Y008346D01*
X007697Y008188D02*
X007530Y008188D01*
X007530Y008029D02*
X007564Y008029D01*
X007564Y007871D02*
X007530Y007871D01*
X007530Y007712D02*
X007564Y007712D01*
X007564Y007554D02*
X007530Y007554D01*
X007924Y007554D02*
X008074Y007554D01*
X007924Y007395D02*
X008232Y007395D01*
X008312Y007237D02*
X007924Y007237D01*
X007845Y007078D02*
X008312Y007078D01*
X008312Y006920D02*
X007688Y006920D01*
X007328Y006920D02*
X007255Y006920D01*
X007255Y006948D02*
X007291Y006933D01*
X007328Y006933D01*
X007328Y006270D01*
X007255Y006270D01*
X007255Y006948D01*
X007255Y006761D02*
X007328Y006761D01*
X007328Y006603D02*
X007255Y006603D01*
X007255Y006444D02*
X007328Y006444D01*
X007328Y006286D02*
X007255Y006286D01*
X006895Y006286D02*
X005837Y006286D01*
X005837Y006270D02*
X005837Y006832D01*
X005911Y006905D01*
X005957Y007015D01*
X005957Y007134D01*
X005911Y007244D01*
X005827Y007328D01*
X005774Y007350D01*
X005827Y007372D01*
X005911Y007457D01*
X005957Y007566D01*
X005957Y007685D01*
X005911Y007795D01*
X005827Y007880D01*
X005726Y007921D01*
X005827Y007963D01*
X005911Y008047D01*
X005957Y008157D01*
X005957Y008276D01*
X005911Y008386D01*
X005827Y008470D01*
X005719Y008515D01*
X005719Y009475D01*
X006619Y008575D01*
X006619Y006885D01*
X006546Y006811D01*
X006500Y006701D01*
X006500Y006582D01*
X006546Y006472D01*
X006630Y006388D01*
X006740Y006343D01*
X006859Y006343D01*
X006895Y006358D01*
X006895Y006270D01*
X006771Y006270D01*
X005837Y006270D01*
X005837Y006444D02*
X006574Y006444D01*
X006500Y006603D02*
X005837Y006603D01*
X005837Y006761D02*
X006525Y006761D01*
X006619Y006920D02*
X005917Y006920D01*
X005957Y007078D02*
X006619Y007078D01*
X006619Y007237D02*
X005914Y007237D01*
X005850Y007395D02*
X006619Y007395D01*
X006619Y007554D02*
X005951Y007554D01*
X005945Y007712D02*
X006619Y007712D01*
X006619Y007871D02*
X005836Y007871D01*
X005893Y008029D02*
X006619Y008029D01*
X006619Y008188D02*
X005957Y008188D01*
X005927Y008346D02*
X006619Y008346D01*
X006619Y008505D02*
X005743Y008505D01*
X005719Y008663D02*
X006531Y008663D01*
X006372Y008822D02*
X005719Y008822D01*
X005719Y008980D02*
X006214Y008980D01*
X006055Y009139D02*
X005719Y009139D01*
X005719Y009297D02*
X005897Y009297D01*
X005738Y009456D02*
X005719Y009456D01*
X006205Y009931D02*
X006895Y009931D01*
X006895Y009773D02*
X006364Y009773D01*
X006522Y009614D02*
X006895Y009614D01*
X006895Y009456D02*
X006681Y009456D01*
X006755Y009382D02*
X005916Y010220D01*
X005916Y010730D01*
X006017Y010730D01*
X007191Y010730D01*
X007171Y010681D01*
X007094Y010681D01*
X006984Y010635D01*
X006900Y010551D01*
X006854Y010441D01*
X006854Y010322D01*
X006895Y010225D01*
X006895Y009367D01*
X006859Y009382D01*
X006755Y009382D01*
X007255Y009456D02*
X008217Y009456D01*
X008375Y009614D02*
X007255Y009614D01*
X007255Y009773D02*
X008324Y009773D01*
X008317Y009779D02*
X008401Y009695D01*
X008440Y009679D01*
X007276Y008515D01*
X007255Y008494D01*
X007255Y010100D01*
X007323Y010128D01*
X007407Y010212D01*
X007451Y010319D01*
X007528Y010319D01*
X007638Y010365D01*
X007722Y010449D01*
X007768Y010559D01*
X007768Y010678D01*
X007761Y010693D01*
X007798Y010703D01*
X007839Y010727D01*
X007841Y010730D01*
X008018Y010730D01*
X007996Y010678D01*
X007996Y010559D01*
X008042Y010449D01*
X008126Y010365D01*
X008236Y010319D01*
X008355Y010319D01*
X008465Y010365D01*
X008549Y010449D01*
X008594Y010559D01*
X008594Y010678D01*
X008573Y010730D01*
X008666Y010730D01*
X008666Y010299D01*
X008615Y010248D01*
X008511Y010248D01*
X008401Y010202D01*
X008317Y010118D01*
X008272Y010008D01*
X008272Y009889D01*
X008317Y009779D01*
X008272Y009931D02*
X007255Y009931D01*
X007255Y010090D02*
X008306Y010090D01*
X008616Y010248D02*
X007422Y010248D01*
X007680Y010407D02*
X008084Y010407D01*
X007996Y010565D02*
X007768Y010565D01*
X007833Y010724D02*
X008015Y010724D01*
X007674Y011160D02*
X007674Y011160D01*
X007674Y011628D01*
X007596Y011628D01*
X007550Y011616D01*
X007509Y011592D01*
X007507Y011590D01*
X005916Y011590D01*
X005916Y012236D01*
X005956Y012276D01*
X006008Y012329D01*
X006149Y012329D01*
X006231Y012411D01*
X006231Y012901D01*
X006305Y012826D01*
X006305Y012450D01*
X006387Y012368D01*
X006697Y012368D01*
X006697Y012291D01*
X006743Y012181D01*
X006827Y012097D01*
X006937Y012051D01*
X007056Y012051D01*
X007165Y012097D01*
X007250Y012181D01*
X007289Y012276D01*
X007315Y012249D01*
X007879Y011685D01*
X007879Y011590D01*
X007841Y011590D01*
X007839Y011592D01*
X007798Y011616D01*
X007753Y011628D01*
X007674Y011628D01*
X007674Y011160D01*
X007674Y011199D02*
X007674Y011199D01*
X007674Y011358D02*
X007674Y011358D01*
X007674Y011516D02*
X007674Y011516D01*
X007879Y011675D02*
X005916Y011675D01*
X005916Y011833D02*
X007731Y011833D01*
X007573Y011992D02*
X005916Y011992D01*
X005916Y012150D02*
X006773Y012150D01*
X006697Y012309D02*
X005989Y012309D01*
X006231Y012467D02*
X006305Y012467D01*
X006305Y012626D02*
X006231Y012626D01*
X006231Y012784D02*
X006305Y012784D01*
X006147Y013002D02*
X005829Y013002D01*
X005826Y013005D01*
X005785Y013028D01*
X005740Y013041D01*
X005579Y013041D01*
X005579Y012665D01*
X005579Y012665D01*
X005579Y013041D01*
X005417Y013041D01*
X005372Y013028D01*
X005365Y013024D01*
X005365Y013330D01*
X005372Y013326D01*
X005417Y013314D01*
X005579Y013314D01*
X005740Y013314D01*
X005785Y013326D01*
X005826Y013349D01*
X005829Y013352D01*
X006055Y013352D01*
X006147Y013260D01*
X006147Y013002D01*
X006147Y013101D02*
X005365Y013101D01*
X005365Y013260D02*
X006147Y013260D01*
X006305Y013611D02*
X006231Y013685D01*
X006231Y013925D01*
X006232Y013925D01*
X006348Y013973D01*
X006436Y014062D01*
X006484Y014177D01*
X006484Y014303D01*
X006436Y014419D01*
X006348Y014507D01*
X006348Y014507D01*
X006373Y014533D01*
X006716Y014533D01*
X006822Y014638D01*
X007210Y015026D01*
X007210Y012560D01*
X007165Y012604D01*
X007137Y012616D01*
X007137Y013134D01*
X006979Y013292D01*
X006979Y013668D01*
X006897Y013750D01*
X006387Y013750D01*
X006305Y013668D01*
X006305Y013611D01*
X006372Y013735D02*
X006231Y013735D01*
X006231Y013894D02*
X007210Y013894D01*
X007210Y014052D02*
X006427Y014052D01*
X006484Y014211D02*
X007210Y014211D01*
X007210Y014369D02*
X006457Y014369D01*
X006368Y014528D02*
X007210Y014528D01*
X007210Y014686D02*
X006870Y014686D01*
X007028Y014845D02*
X007210Y014845D01*
X007210Y015003D02*
X007187Y015003D01*
X006935Y015260D02*
X006935Y015392D01*
X006908Y015457D01*
X007002Y015418D01*
X007092Y015418D01*
X006935Y015260D01*
X006935Y015320D02*
X006995Y015320D01*
X006581Y014906D02*
X006449Y014906D01*
X006381Y014934D01*
X006356Y014909D01*
X006373Y014893D01*
X006567Y014893D01*
X006581Y014906D01*
X005904Y014909D02*
X005876Y014882D01*
X005831Y014772D01*
X005831Y014748D01*
X005673Y014906D01*
X005810Y014906D01*
X005879Y014934D01*
X005904Y014909D01*
X005861Y014845D02*
X005735Y014845D01*
X005325Y015254D02*
X005162Y015418D01*
X005258Y015418D01*
X005352Y015457D01*
X005325Y015392D01*
X005325Y015254D01*
X005325Y015320D02*
X005259Y015320D01*
X006071Y016037D02*
X006092Y016052D01*
X006139Y016098D01*
X006153Y016120D01*
X006213Y016061D01*
X006130Y015978D01*
X006071Y016037D01*
X006148Y016113D02*
X006161Y016113D01*
X006153Y016502D02*
X006139Y016524D01*
X006092Y016570D01*
X006071Y016585D01*
X006130Y016644D01*
X006213Y016561D01*
X006153Y016502D01*
X006185Y016588D02*
X006074Y016588D01*
X005689Y016585D02*
X005630Y016644D01*
X005585Y016752D01*
X005585Y016853D01*
X005584Y016855D01*
X005494Y016766D01*
X005302Y016686D01*
X005494Y016606D01*
X005603Y016497D01*
X005621Y016524D01*
X005667Y016570D01*
X005689Y016585D01*
X005685Y016588D02*
X005513Y016588D01*
X005449Y016747D02*
X005587Y016747D01*
X006675Y016851D02*
X006675Y016853D01*
X006676Y016855D01*
X006678Y016853D01*
X006675Y016851D01*
X007590Y016861D02*
X007675Y016947D01*
X007773Y017183D01*
X007773Y017439D01*
X007675Y017675D01*
X007590Y017761D01*
X007800Y017761D01*
X007800Y016861D01*
X007670Y016861D01*
X007590Y016861D01*
X007634Y016905D02*
X007800Y016905D01*
X007800Y017064D02*
X007724Y017064D01*
X007773Y017222D02*
X007800Y017222D01*
X007800Y017381D02*
X007773Y017381D01*
X007800Y017539D02*
X007732Y017539D01*
X007800Y017698D02*
X007653Y017698D01*
X008175Y018332D02*
X003828Y018332D01*
X003763Y018490D02*
X008175Y018490D01*
X009540Y017856D02*
X010399Y017856D01*
X010143Y018015D02*
X009912Y018015D01*
X009912Y018610D02*
X009912Y018645D01*
X010143Y018645D01*
X010143Y018610D01*
X010087Y018634D01*
X009968Y018634D01*
X009912Y018610D01*
X011880Y018015D02*
X012309Y018015D01*
X012309Y018173D02*
X012253Y018173D01*
X012295Y018332D02*
X012309Y018332D01*
X012309Y018490D02*
X012255Y018490D01*
X012924Y017856D02*
X013430Y017856D01*
X013430Y017698D02*
X012924Y017698D01*
X012924Y017539D02*
X013431Y017539D01*
X013431Y017381D02*
X012924Y017381D01*
X012924Y017222D02*
X013431Y017222D01*
X013137Y017064D02*
X012924Y017064D01*
X012924Y016905D02*
X013039Y016905D01*
X013049Y016747D02*
X012924Y016747D01*
X012924Y016588D02*
X013162Y016588D01*
X012924Y016430D02*
X013971Y016430D01*
X014105Y016564D02*
X014105Y017093D01*
X014044Y017154D01*
X014105Y017214D01*
X014105Y017763D01*
X014023Y017845D01*
X013790Y017845D01*
X013790Y017899D01*
X013964Y017899D01*
X014046Y017981D01*
X014046Y018645D01*
X014277Y018645D01*
X014277Y017981D01*
X014359Y017899D01*
X014533Y017899D01*
X014533Y016992D01*
X014105Y016564D01*
X014105Y016588D02*
X014129Y016588D01*
X014105Y016747D02*
X014288Y016747D01*
X014446Y016905D02*
X014105Y016905D01*
X014105Y017064D02*
X014533Y017064D01*
X014533Y017222D02*
X014105Y017222D01*
X014105Y017381D02*
X014533Y017381D01*
X014533Y017539D02*
X014105Y017539D01*
X014105Y017698D02*
X014533Y017698D01*
X014533Y017856D02*
X013790Y017856D01*
X014046Y018015D02*
X014277Y018015D01*
X014277Y018173D02*
X014046Y018173D01*
X014046Y018332D02*
X014277Y018332D01*
X014277Y018490D02*
X014046Y018490D01*
X014893Y017856D02*
X015399Y017856D01*
X015399Y017698D02*
X014893Y017698D01*
X014893Y017539D02*
X015399Y017539D01*
X015399Y017381D02*
X014893Y017381D01*
X014893Y017222D02*
X015399Y017222D01*
X015105Y017064D02*
X014893Y017064D01*
X014893Y016905D02*
X015007Y016905D01*
X015017Y016747D02*
X014797Y016747D01*
X014638Y016588D02*
X015131Y016588D01*
X014480Y016430D02*
X019787Y016430D01*
X019787Y016588D02*
X016073Y016588D01*
X016073Y016747D02*
X019787Y016747D01*
X019787Y016905D02*
X016073Y016905D01*
X016073Y017064D02*
X017222Y017064D01*
X017191Y017222D02*
X016073Y017222D01*
X016073Y017381D02*
X017191Y017381D01*
X017191Y017539D02*
X016073Y017539D01*
X016073Y017698D02*
X017191Y017698D01*
X017191Y017856D02*
X015759Y017856D01*
X016014Y018015D02*
X017191Y018015D01*
X017191Y018173D02*
X016014Y018173D01*
X016014Y018332D02*
X017191Y018332D01*
X017191Y018490D02*
X016014Y018490D01*
X017864Y018490D02*
X019199Y018490D01*
X019199Y018645D02*
X019199Y018217D01*
X019142Y018240D01*
X019023Y018240D01*
X018913Y018194D01*
X018840Y018121D01*
X018184Y018121D01*
X018150Y018155D01*
X018040Y018201D01*
X017921Y018201D01*
X017864Y018177D01*
X017864Y018645D01*
X019199Y018645D01*
X019199Y018332D02*
X017864Y018332D01*
X018106Y018173D02*
X018892Y018173D01*
X018903Y017698D02*
X018199Y017698D01*
X017864Y017539D02*
X019199Y017539D01*
X019199Y017381D02*
X017864Y017381D01*
X017864Y017222D02*
X019199Y017222D01*
X019230Y017064D02*
X017833Y017064D01*
X019787Y016271D02*
X014321Y016271D01*
X014163Y016113D02*
X019787Y016113D01*
X019787Y015954D02*
X014004Y015954D01*
X013869Y015796D02*
X019787Y015796D01*
X019787Y015637D02*
X013869Y015637D01*
X013869Y015479D02*
X019787Y015479D01*
X019787Y015320D02*
X013869Y015320D01*
X013869Y015162D02*
X019787Y015162D01*
X019787Y015003D02*
X013869Y015003D01*
X013869Y014845D02*
X019787Y014845D01*
X019787Y014686D02*
X013869Y014686D01*
X013869Y014528D02*
X019787Y014528D01*
X019787Y014369D02*
X013869Y014369D01*
X013869Y014211D02*
X019787Y014211D01*
X019787Y014052D02*
X013869Y014052D01*
X013869Y013894D02*
X019787Y013894D01*
X019787Y013735D02*
X013869Y013735D01*
X013869Y013577D02*
X019787Y013577D01*
X019787Y013418D02*
X013869Y013418D01*
X013869Y013260D02*
X019787Y013260D01*
X019787Y013101D02*
X013869Y013101D01*
X013869Y012943D02*
X019787Y012943D01*
X019787Y012784D02*
X013869Y012784D01*
X013869Y012626D02*
X019787Y012626D01*
X019787Y012467D02*
X013869Y012467D01*
X013869Y012309D02*
X019787Y012309D01*
X019787Y012150D02*
X013869Y012150D01*
X013869Y011992D02*
X019787Y011992D01*
X019787Y011833D02*
X013869Y011833D01*
X013869Y011675D02*
X019787Y011675D01*
X019787Y011516D02*
X013869Y011516D01*
X013869Y011358D02*
X019787Y011358D01*
X019787Y011199D02*
X013869Y011199D01*
X013869Y011041D02*
X019787Y011041D01*
X019787Y010882D02*
X013869Y010882D01*
X013869Y010724D02*
X019787Y010724D01*
X019787Y010565D02*
X013869Y010565D01*
X013869Y010407D02*
X019787Y010407D01*
X019787Y010248D02*
X013869Y010248D01*
X013869Y010090D02*
X019787Y010090D01*
X019787Y009931D02*
X013869Y009931D01*
X013869Y009773D02*
X019787Y009773D01*
X019787Y009614D02*
X013869Y009614D01*
X013869Y009456D02*
X019787Y009456D01*
X019787Y009297D02*
X013869Y009297D01*
X013764Y009178D02*
X013764Y009178D01*
X013724Y009139D02*
X019787Y009139D01*
X019787Y008980D02*
X013566Y008980D01*
X013407Y008822D02*
X019787Y008822D01*
X019500Y008663D02*
X013249Y008663D01*
X013090Y008505D02*
X019414Y008505D01*
X019433Y008346D02*
X012932Y008346D01*
X012773Y008188D02*
X019571Y008188D01*
X019270Y007462D02*
X019132Y007462D01*
X019004Y007409D01*
X018906Y007311D01*
X018853Y007183D01*
X018853Y007045D01*
X018906Y006917D01*
X019004Y006819D01*
X019132Y006766D01*
X019270Y006766D01*
X019398Y006819D01*
X019496Y006917D01*
X019549Y007045D01*
X019549Y007183D01*
X019496Y007311D01*
X019398Y007409D01*
X019270Y007462D01*
X019412Y007395D02*
X019787Y007395D01*
X019787Y007237D02*
X019527Y007237D01*
X019549Y007078D02*
X019787Y007078D01*
X019787Y006920D02*
X019497Y006920D01*
X018905Y006920D02*
X017922Y006920D01*
X017974Y007078D02*
X018853Y007078D01*
X018875Y007237D02*
X017952Y007237D01*
X017837Y007395D02*
X018990Y007395D01*
X017425Y005810D02*
X016214Y005810D01*
X016250Y005652D02*
X016325Y005652D01*
X016325Y005493D02*
X016250Y005493D01*
X016250Y005335D02*
X016325Y005335D01*
X016325Y005176D02*
X016250Y005176D01*
X017985Y005176D02*
X020067Y005176D01*
X020067Y005018D02*
X017985Y005018D01*
X017985Y005335D02*
X020067Y005335D01*
X020067Y005493D02*
X017985Y005493D01*
X017985Y005652D02*
X020067Y005652D01*
X016065Y001658D02*
X016065Y001658D01*
X009651Y006270D02*
X009044Y006270D01*
X009341Y006567D01*
X009341Y009835D01*
X009589Y010083D01*
X009693Y010083D01*
X009803Y010128D01*
X009887Y010212D01*
X009933Y010322D01*
X009933Y010441D01*
X009887Y010551D01*
X009803Y010635D01*
X009693Y010681D01*
X009574Y010681D01*
X009464Y010635D01*
X009380Y010551D01*
X009335Y010441D01*
X009335Y010337D01*
X009223Y010226D01*
X009223Y010730D01*
X009757Y010730D01*
X009839Y010812D01*
X009839Y011383D01*
X009887Y011383D01*
X009887Y011173D01*
X010496Y010565D01*
X010086Y010565D01*
X010004Y010483D01*
X010004Y008895D01*
X009969Y008909D01*
X009850Y008909D01*
X009740Y008864D01*
X009656Y008780D01*
X009610Y008670D01*
X009610Y008551D01*
X009656Y008441D01*
X009740Y008357D01*
X009850Y008311D01*
X009968Y008311D01*
X009978Y008276D01*
X010001Y008235D01*
X010004Y008232D01*
X010004Y007281D01*
X009969Y007295D01*
X009850Y007295D01*
X009740Y007250D01*
X009656Y007165D01*
X009610Y007056D01*
X009610Y006937D01*
X009651Y006839D01*
X009651Y006270D01*
X009651Y006286D02*
X009060Y006286D01*
X009219Y006444D02*
X009651Y006444D01*
X009651Y006603D02*
X009341Y006603D01*
X009341Y006761D02*
X009651Y006761D01*
X009617Y006920D02*
X009341Y006920D01*
X009341Y007078D02*
X009620Y007078D01*
X009727Y007237D02*
X009341Y007237D01*
X009341Y007395D02*
X010004Y007395D01*
X010004Y007554D02*
X009341Y007554D01*
X009341Y007712D02*
X010004Y007712D01*
X010004Y007871D02*
X009341Y007871D01*
X009341Y008029D02*
X010004Y008029D01*
X010004Y008188D02*
X009341Y008188D01*
X009341Y008346D02*
X009765Y008346D01*
X009629Y008505D02*
X009341Y008505D01*
X009341Y008663D02*
X009610Y008663D01*
X009698Y008822D02*
X009341Y008822D01*
X009341Y008980D02*
X010004Y008980D01*
X010004Y009139D02*
X009341Y009139D01*
X009341Y009297D02*
X010004Y009297D01*
X010004Y009456D02*
X009341Y009456D01*
X009341Y009614D02*
X010004Y009614D01*
X010004Y009773D02*
X009341Y009773D01*
X009438Y009931D02*
X010004Y009931D01*
X010004Y010090D02*
X009710Y010090D01*
X009902Y010248D02*
X010004Y010248D01*
X010004Y010407D02*
X009933Y010407D01*
X009873Y010565D02*
X010495Y010565D01*
X010337Y010724D02*
X009223Y010724D01*
X009223Y010565D02*
X009394Y010565D01*
X009335Y010407D02*
X009223Y010407D01*
X009223Y010248D02*
X009246Y010248D01*
X008666Y010407D02*
X008507Y010407D01*
X008594Y010565D02*
X008666Y010565D01*
X008666Y010724D02*
X008575Y010724D01*
X009839Y010882D02*
X010178Y010882D01*
X010020Y011041D02*
X009839Y011041D01*
X009839Y011199D02*
X009887Y011199D01*
X009887Y011358D02*
X009839Y011358D01*
X010247Y011358D02*
X010411Y011358D01*
X010348Y011421D02*
X011147Y010622D01*
X011147Y010423D01*
X011126Y010444D01*
X010247Y011323D01*
X010247Y011421D01*
X010348Y011421D01*
X010370Y011199D02*
X010570Y011199D01*
X010529Y011041D02*
X010728Y011041D01*
X010687Y010882D02*
X010887Y010882D01*
X010846Y010724D02*
X011045Y010724D01*
X011004Y010565D02*
X011147Y010565D01*
X011396Y010882D02*
X011422Y010882D01*
X011422Y011041D02*
X011237Y011041D01*
X011079Y011199D02*
X011422Y011199D01*
X011422Y011358D02*
X010920Y011358D01*
X010762Y011516D02*
X011422Y011516D01*
X011422Y011675D02*
X010603Y011675D01*
X010580Y011833D02*
X011422Y011833D01*
X011422Y011992D02*
X010697Y011992D01*
X010718Y012150D02*
X011422Y012150D01*
X011422Y012309D02*
X010718Y012309D01*
X010718Y012549D02*
X010265Y012549D01*
X010265Y013041D01*
X010563Y013041D01*
X010608Y013028D01*
X010649Y013005D01*
X010682Y012972D01*
X010706Y012931D01*
X010718Y012886D01*
X010718Y012549D01*
X010718Y012626D02*
X011422Y012626D01*
X011422Y012784D02*
X010718Y012784D01*
X010699Y012943D02*
X011422Y012943D01*
X011422Y013101D02*
X008887Y013101D01*
X008887Y012943D02*
X009671Y012943D01*
X009652Y012784D02*
X009385Y012784D01*
X009399Y012626D02*
X009652Y012626D01*
X009399Y012467D02*
X010105Y012467D01*
X010105Y012626D02*
X010265Y012626D01*
X010265Y012784D02*
X010105Y012784D01*
X010105Y012943D02*
X010265Y012943D01*
X010597Y013195D02*
X009773Y013195D01*
X009691Y013277D01*
X009691Y014180D01*
X009773Y014262D01*
X010597Y014262D01*
X010679Y014180D01*
X010679Y014012D01*
X010716Y014027D01*
X010835Y014027D01*
X010945Y013982D01*
X011029Y013898D01*
X011075Y013788D01*
X011075Y013669D01*
X011029Y013559D01*
X010945Y013475D01*
X010835Y013429D01*
X010716Y013429D01*
X010679Y013445D01*
X010679Y013277D01*
X010597Y013195D01*
X010662Y013260D02*
X011422Y013260D01*
X011422Y013418D02*
X010679Y013418D01*
X011037Y013577D02*
X011422Y013577D01*
X011422Y013735D02*
X011075Y013735D01*
X011031Y013894D02*
X011422Y013894D01*
X011422Y014052D02*
X010679Y014052D01*
X010649Y014211D02*
X011422Y014211D01*
X011422Y014369D02*
X009329Y014369D01*
X009400Y014211D02*
X009721Y014211D01*
X009691Y014052D02*
X009400Y014052D01*
X009400Y013894D02*
X009691Y013894D01*
X009691Y013735D02*
X009400Y013735D01*
X009346Y013577D02*
X009691Y013577D01*
X009691Y013418D02*
X008887Y013418D01*
X008887Y013260D02*
X009708Y013260D01*
X008898Y013577D02*
X008887Y013577D01*
X008176Y013577D02*
X008165Y013577D01*
X008176Y013418D02*
X007570Y013418D01*
X007570Y013577D02*
X007717Y013577D01*
X007663Y013735D02*
X007570Y013735D01*
X007570Y013894D02*
X007663Y013894D01*
X007663Y014052D02*
X007570Y014052D01*
X007570Y014211D02*
X007663Y014211D01*
X007734Y014369D02*
X007570Y014369D01*
X007570Y014528D02*
X008210Y014528D01*
X007570Y014686D02*
X011422Y014686D01*
X011422Y014528D02*
X009207Y014528D01*
X007976Y015320D02*
X011422Y015320D01*
X011422Y015162D02*
X007818Y015162D01*
X007659Y015003D02*
X011422Y015003D01*
X011422Y014845D02*
X007570Y014845D01*
X008135Y015479D02*
X011422Y015479D01*
X011422Y015637D02*
X008631Y015637D01*
X008632Y015796D02*
X011422Y015796D01*
X011422Y015954D02*
X008632Y015954D01*
X008632Y016113D02*
X011422Y016113D01*
X011422Y016271D02*
X008595Y016271D01*
X007958Y016015D02*
X007958Y015811D01*
X007924Y015777D01*
X007924Y015890D01*
X007924Y016050D01*
X007958Y016015D01*
X007958Y015954D02*
X007924Y015954D01*
X007924Y015796D02*
X007943Y015796D01*
X009876Y016430D02*
X011422Y016430D01*
X011266Y016588D02*
X010009Y016588D01*
X012924Y016271D02*
X013812Y016271D01*
X013654Y016113D02*
X012924Y016113D01*
X012924Y015954D02*
X013509Y015954D01*
X013509Y015796D02*
X012924Y015796D01*
X012924Y015637D02*
X013509Y015637D01*
X013509Y015479D02*
X012924Y015479D01*
X012924Y015320D02*
X013509Y015320D01*
X013509Y015162D02*
X012924Y015162D01*
X012924Y015003D02*
X013509Y015003D01*
X013509Y014845D02*
X012924Y014845D01*
X012924Y014686D02*
X013509Y014686D01*
X013509Y014528D02*
X012924Y014528D01*
X012924Y014369D02*
X013509Y014369D01*
X013509Y014211D02*
X012924Y014211D01*
X012924Y014052D02*
X013509Y014052D01*
X013509Y013894D02*
X012924Y013894D01*
X012924Y013735D02*
X013509Y013735D01*
X013509Y013577D02*
X012924Y013577D01*
X012924Y013418D02*
X013509Y013418D01*
X013509Y013260D02*
X012924Y013260D01*
X012924Y013101D02*
X013509Y013101D01*
X013509Y012943D02*
X012924Y012943D01*
X012924Y012784D02*
X013509Y012784D01*
X013509Y012626D02*
X012924Y012626D01*
X012924Y012467D02*
X013509Y012467D01*
X013509Y012309D02*
X012924Y012309D01*
X012924Y012150D02*
X013509Y012150D01*
X013509Y011992D02*
X012924Y011992D01*
X012924Y011833D02*
X013509Y011833D01*
X013509Y011675D02*
X012924Y011675D01*
X012924Y011516D02*
X013509Y011516D01*
X013509Y011358D02*
X012924Y011358D01*
X012924Y011199D02*
X013509Y011199D01*
X013509Y011041D02*
X012924Y011041D01*
X012924Y010882D02*
X013509Y010882D01*
X013509Y010724D02*
X012924Y010724D01*
X012924Y010565D02*
X013509Y010565D01*
X013509Y010407D02*
X012827Y010407D01*
X012668Y010248D02*
X013509Y010248D01*
X013509Y010090D02*
X012510Y010090D01*
X012351Y009931D02*
X013509Y009931D01*
X013509Y009773D02*
X012193Y009773D01*
X011147Y009773D02*
X010864Y009773D01*
X010882Y009853D02*
X010992Y009807D01*
X011111Y009807D01*
X011147Y009822D01*
X011147Y009056D01*
X011142Y009061D01*
X011032Y009106D01*
X010913Y009106D01*
X010864Y009086D01*
X010864Y009871D01*
X010882Y009853D01*
X010864Y009614D02*
X011147Y009614D01*
X011147Y009456D02*
X010864Y009456D01*
X010864Y009297D02*
X011147Y009297D01*
X011147Y009139D02*
X010864Y009139D01*
X010895Y008505D02*
X011296Y008505D01*
X011454Y008346D02*
X010902Y008346D01*
X010902Y008400D02*
X010434Y008400D01*
X010902Y008400D01*
X010864Y008188D02*
X011501Y008188D01*
X011501Y008029D02*
X011150Y008029D01*
X011260Y007871D02*
X011501Y007871D01*
X011501Y007712D02*
X011267Y007712D01*
X011166Y007554D02*
X011501Y007554D01*
X011425Y007395D02*
X010864Y007395D01*
X010864Y007237D02*
X011382Y007237D01*
X011421Y007078D02*
X010864Y007078D01*
X010864Y006920D02*
X012841Y006920D01*
X012683Y007078D02*
X011941Y007078D01*
X011980Y007237D02*
X012524Y007237D01*
X012366Y007395D02*
X011937Y007395D01*
X011861Y007554D02*
X012207Y007554D01*
X012049Y007712D02*
X011861Y007712D01*
X010434Y008400D02*
X010434Y008400D01*
X008981Y008822D02*
X008092Y008822D01*
X008251Y008980D02*
X008981Y008980D01*
X008981Y009139D02*
X008409Y009139D01*
X008568Y009297D02*
X008981Y009297D01*
X008981Y009456D02*
X008726Y009456D01*
X008885Y009614D02*
X008981Y009614D01*
X008058Y009297D02*
X007255Y009297D01*
X007255Y009139D02*
X007900Y009139D01*
X007741Y008980D02*
X007255Y008980D01*
X007255Y008822D02*
X007583Y008822D01*
X007424Y008663D02*
X007255Y008663D01*
X007255Y008505D02*
X007266Y008505D01*
X005589Y007921D02*
X005544Y007903D01*
X005544Y007940D01*
X005589Y007921D01*
X005359Y008400D02*
X005162Y008400D01*
X005359Y008400D01*
X005359Y008400D01*
X005162Y008400D02*
X005162Y008400D01*
X005114Y008404D02*
X005114Y008404D01*
X005114Y008405D01*
X005114Y008404D01*
X005114Y008405D02*
X005114Y008405D01*
X005106Y008400D02*
X005106Y008400D01*
X003824Y006920D02*
X003672Y006920D01*
X002922Y006603D02*
X002723Y006603D01*
X002764Y006761D02*
X002571Y006761D01*
X002545Y006920D02*
X002605Y006920D01*
X002525Y007078D02*
X002379Y007078D01*
X002881Y006444D02*
X003081Y006444D01*
X003040Y006286D02*
X003155Y006286D01*
X002800Y005969D02*
X002647Y005969D01*
X002647Y006127D02*
X002689Y006127D01*
X002800Y005810D02*
X002076Y005810D01*
X002647Y005652D02*
X002800Y005652D01*
X003986Y005018D02*
X004022Y005018D01*
X004022Y004859D02*
X003986Y004859D01*
X003986Y004701D02*
X004022Y004701D01*
X004022Y004542D02*
X003986Y004542D01*
X003986Y004384D02*
X004022Y004384D01*
X003690Y003591D02*
X002846Y003591D01*
X002720Y003676D02*
X002720Y003676D01*
X002350Y003749D02*
X002350Y003749D01*
X003033Y003466D02*
X003033Y003466D01*
X003033Y003466D01*
X003056Y003433D02*
X003848Y003433D01*
X004007Y003274D02*
X003162Y003274D01*
X003243Y003153D02*
X003243Y003153D01*
X003250Y003116D02*
X004165Y003116D01*
X004324Y002957D02*
X003282Y002957D01*
X003313Y002799D02*
X004482Y002799D01*
X004641Y002640D02*
X003288Y002640D01*
X003256Y002482D02*
X004799Y002482D01*
X004958Y002323D02*
X003182Y002323D01*
X003243Y002414D02*
X003243Y002414D01*
X003076Y002165D02*
X005116Y002165D01*
X005273Y002006D02*
X002892Y002006D01*
X003033Y002101D02*
X003033Y002101D01*
X003033Y002101D01*
X002720Y001891D02*
X002720Y001891D01*
X002502Y001848D02*
X005262Y001848D01*
X005262Y001689D02*
X000662Y001689D01*
X000662Y001531D02*
X002433Y001531D01*
X002447Y001552D02*
X002308Y001337D01*
X002308Y001081D01*
X002447Y000866D01*
X002447Y000866D01*
X002679Y000759D01*
X002679Y000759D01*
X002933Y000796D01*
X003126Y000963D01*
X003126Y000963D01*
X003198Y001209D01*
X003126Y001454D01*
X002933Y001622D01*
X002933Y001622D01*
X002679Y001658D01*
X002447Y001552D01*
X002447Y001552D01*
X002447Y001552D01*
X002331Y001372D02*
X000662Y001372D01*
X000662Y001214D02*
X002308Y001214D01*
X002325Y001055D02*
X000662Y001055D01*
X000662Y000897D02*
X002427Y000897D01*
X002447Y000866D02*
X002447Y000866D01*
X002933Y000796D02*
X002933Y000796D01*
X003049Y000897D02*
X005262Y000897D01*
X005262Y001055D02*
X003153Y001055D01*
X003198Y001209D02*
X003198Y001209D01*
X003197Y001214D02*
X005262Y001214D01*
X005262Y001372D02*
X003150Y001372D01*
X003038Y001531D02*
X005262Y001531D01*
X006349Y001055D02*
X006458Y001055D01*
X006419Y000897D02*
X006349Y000897D01*
X006349Y000738D02*
X006419Y000738D01*
X005262Y000738D02*
X000662Y000738D01*
X000662Y001848D02*
X002199Y001848D01*
X001981Y001891D02*
X001981Y001891D01*
X001809Y002006D02*
X000662Y002006D01*
X000662Y002165D02*
X001625Y002165D01*
X001667Y002101D02*
X001667Y002101D01*
X001519Y002323D02*
X000662Y002323D01*
X000662Y002482D02*
X001445Y002482D01*
X001413Y002640D02*
X000662Y002640D01*
X000662Y002799D02*
X001388Y002799D01*
X001385Y002783D02*
X001385Y002783D01*
X001419Y002957D02*
X000662Y002957D01*
X002679Y001658D02*
X002679Y001658D01*
X004833Y002957D02*
X005262Y002957D01*
X005262Y002799D02*
X004991Y002799D01*
X005150Y002640D02*
X005262Y002640D01*
X005262Y003116D02*
X004674Y003116D01*
X004516Y003274D02*
X005262Y003274D01*
X001086Y005229D02*
X001086Y006244D01*
X000382Y006244D01*
X000382Y005229D01*
X001086Y005229D01*
X001086Y005335D02*
X000382Y005335D01*
X000382Y005493D02*
X001086Y005493D01*
X001086Y005652D02*
X000382Y005652D01*
X000382Y005810D02*
X001086Y005810D01*
X001086Y005969D02*
X000382Y005969D01*
X000382Y006127D02*
X001086Y006127D01*
X004184Y006127D02*
X004533Y006127D01*
X004533Y005969D02*
X004184Y005969D01*
X005472Y006444D02*
X005477Y006444D01*
X008672Y006444D02*
X008709Y006444D01*
X006895Y010090D02*
X006047Y010090D01*
X005916Y010248D02*
X006885Y010248D01*
X006854Y010407D02*
X005916Y010407D01*
X005916Y010565D02*
X006914Y010565D01*
X007189Y010724D02*
X005916Y010724D01*
X005556Y010724D02*
X005531Y010724D01*
X005556Y010882D02*
X005372Y010882D01*
X005214Y011041D02*
X005556Y011041D01*
X005556Y011199D02*
X005055Y011199D01*
X004897Y011358D02*
X005556Y011358D01*
X005556Y011516D02*
X004738Y011516D01*
X004201Y012467D02*
X004145Y012467D01*
X004145Y012626D02*
X004179Y012626D01*
X005579Y012784D02*
X005579Y012784D01*
X005579Y012943D02*
X005579Y012943D01*
X005579Y013314D02*
X005579Y013689D01*
X005579Y013689D01*
X005579Y013314D01*
X005579Y013418D02*
X005579Y013418D01*
X005579Y013577D02*
X005579Y013577D01*
X006912Y013735D02*
X007210Y013735D01*
X007210Y013577D02*
X006979Y013577D01*
X006979Y013418D02*
X007210Y013418D01*
X007210Y013260D02*
X007011Y013260D01*
X007137Y013101D02*
X007210Y013101D01*
X007210Y012943D02*
X007137Y012943D01*
X007137Y012784D02*
X007210Y012784D01*
X007210Y012626D02*
X007137Y012626D01*
X008059Y012943D02*
X008176Y012943D01*
X008176Y013101D02*
X008051Y013101D01*
X007949Y013260D02*
X008176Y013260D01*
X008531Y012309D02*
X008532Y012309D01*
X008531Y012150D02*
X008532Y012150D01*
X008531Y011992D02*
X008532Y011992D01*
X008727Y011992D02*
X009673Y011992D01*
X009652Y012150D02*
X009399Y012150D01*
X009399Y012309D02*
X009652Y012309D01*
X010265Y012467D02*
X011422Y012467D01*
X010026Y011833D02*
X008674Y011833D01*
X008336Y011992D02*
X008082Y011992D01*
X007414Y012150D02*
X007219Y012150D01*
X001265Y009808D02*
X001265Y009362D01*
X001383Y009244D01*
X001383Y008927D01*
X001323Y008987D01*
X001152Y008987D01*
X001152Y009003D01*
X001151Y009004D01*
X001152Y009005D01*
X001152Y009344D01*
X001155Y009347D01*
X001178Y009388D01*
X001190Y009433D01*
X001190Y009594D01*
X000815Y009594D01*
X000815Y009594D01*
X001190Y009594D01*
X001190Y009756D01*
X001178Y009801D01*
X001174Y009808D01*
X001265Y009808D01*
X001265Y009773D02*
X001186Y009773D01*
X001190Y009614D02*
X001265Y009614D01*
X001265Y009456D02*
X001190Y009456D01*
X001152Y009297D02*
X001330Y009297D01*
X001383Y009139D02*
X001152Y009139D01*
X001329Y008980D02*
X001383Y008980D01*
X002752Y017381D02*
X003028Y017381D01*
X002956Y017539D02*
X002824Y017539D01*
X002830Y017698D02*
X002950Y017698D01*
X002950Y017856D02*
X002830Y017856D01*
X002830Y018015D02*
X002950Y018015D01*
X002950Y018173D02*
X002830Y018173D01*
X002828Y018332D02*
X002951Y018332D01*
X003017Y018490D02*
X002763Y018490D01*
D34*
X003390Y017941D02*
X003413Y017941D01*
X004083Y017272D01*
X004083Y016051D01*
X005736Y014398D01*
X005736Y014240D01*
X006169Y014240D01*
X007744Y013020D02*
X007744Y012665D01*
X007941Y012469D01*
X007941Y012437D01*
M02*
