%
M48
M72
T01C0.0120
T02C0.0236
T03C0.0350
T04C0.0400
T05C0.0827
T06C0.0945
%
T01
X14672Y3492
X15893Y4476
X15224Y4752
X15735Y5421
X17468Y5815
X19633Y5303
X20420Y4752
X19672Y3728
X22901Y3728
X23294Y3650
X23334Y4004
X25145Y4673
X25302Y4122
X26050Y3768
X24987Y5224
X25657Y5461
X26562Y5500
X27664Y5461
X28294Y5736
X28727Y6799
X27231Y7350
X25342Y7075
X25342Y7626
X25342Y8217
X24200Y9083
X22979Y8256
X22979Y7862
X23649Y7232
X24200Y6642
X22940Y6366
X23137Y5303
X23727Y5303
X20893Y6248
X21090Y6996
X20027Y7783
X19318Y7232
X19042Y8059
X18609Y8059
X20027Y8807
X19397Y9437
X19948Y10106
X19397Y10500
X21365Y10382
X22428Y9949
X22704Y10618
X23531Y10618
X23846Y10382
X22586Y11681
X22192Y11957
X23531Y11957
X24003Y12350
X23255Y13020
X24830Y14240
X24869Y14713
X24869Y15106
X26168Y14004
X29200Y12154
X29751Y12429
X28019Y11248
X26759Y11760
X29279Y9752
X29161Y9201
X29751Y9201
X29436Y8650
X29751Y8453
X27074Y8925
X21090Y8610
X20696Y11720
X20224Y13728
X17664Y16839
X15696Y16839
X13019Y17902
X11916Y17941
X19003Y18335
X20972Y18335
X22704Y17035
X24476Y17665
X25460Y16642
X11287Y8453
X29515Y4280
T02
X11798Y1209
X13373Y1209
X13373Y7114
X11798Y7114
T03
X24469Y15311
X25269Y15311
X24869Y17311
T04
X27609Y17941
X28609Y17941
X29609Y17941
T05
X23869Y16061
X23869Y17311
X25869Y17311
X25869Y16061
T06
X28649Y15776
X16444Y6720
X28649Y2783
M30
