G75*
G70*
%OFA0B0*%
%FSLAX24Y24*%
%IPPOS*%
%LPD*%
%AMOC8*
5,1,8,0,0,1.08239X$1,22.5*
%
%ADD10R,0.0394X0.0276*%
%ADD11R,0.0945X0.0945*%
%ADD12R,0.0492X0.1181*%
%ADD13C,0.0600*%
%ADD14R,0.0394X0.1575*%
%ADD15R,0.0492X0.1575*%
%ADD16C,0.0080*%
%ADD17C,0.0238*%
%ADD18C,0.0350*%
D10*
X030184Y007035D03*
X030184Y007429D03*
X030184Y007823D03*
X030184Y008217D03*
X030184Y008610D03*
X030184Y009004D03*
X030184Y009398D03*
X030184Y009791D03*
X030184Y010185D03*
X030184Y010579D03*
X030184Y010972D03*
X030184Y011366D03*
X030184Y011760D03*
X030184Y012154D03*
X030184Y012547D03*
D11*
X029003Y013610D03*
X029003Y005736D03*
D12*
X016483Y008453D03*
X015696Y008453D03*
X014909Y008453D03*
X014121Y008453D03*
X013334Y008453D03*
X012546Y008453D03*
X011759Y008453D03*
X011759Y016327D03*
X012546Y016327D03*
D13*
X027609Y017641D02*
X027609Y018241D01*
X028609Y018241D02*
X028609Y017641D01*
X029609Y017641D02*
X029609Y018241D01*
D14*
X013472Y017941D03*
X011464Y017941D03*
D15*
X012468Y017941D03*
D16*
X011759Y008453D02*
X011287Y008453D01*
X012546Y008453D02*
X012546Y008650D01*
X014948Y011051D01*
X021956Y011051D01*
X022586Y011681D01*
X022192Y011957D02*
X023531Y011957D01*
X023727Y012154D02*
X023846Y012035D01*
X023846Y010382D01*
X022704Y010618D02*
X020617Y008531D01*
X017389Y008531D01*
X016759Y009161D01*
X016208Y009161D01*
X015696Y008650D01*
X015696Y008453D01*
X015420Y007744D02*
X014909Y008256D01*
X014909Y008453D01*
X014121Y008453D02*
X014121Y008650D01*
X015263Y009791D01*
X019633Y009791D01*
X019948Y010106D01*
X019515Y010382D02*
X021365Y010382D01*
X022428Y009949D02*
X021365Y008886D01*
X021365Y008335D01*
X017350Y008335D01*
X016759Y007744D01*
X015420Y007744D01*
X013767Y008020D02*
X013767Y003492D01*
X014672Y003492D01*
X015224Y004752D02*
X015972Y004004D01*
X023334Y004004D01*
X023294Y003650D02*
X023649Y003650D01*
X024948Y004949D01*
X027153Y004949D01*
X027664Y005461D01*
X028294Y005736D02*
X026562Y005736D01*
X026562Y005500D01*
X026562Y005736D02*
X025932Y005736D01*
X025755Y005559D01*
X025735Y005579D01*
X023413Y005579D01*
X023137Y005303D01*
X019633Y005303D01*
X019515Y005539D02*
X020696Y006720D01*
X021798Y006720D01*
X021995Y006917D01*
X023413Y006917D01*
X023649Y007154D01*
X023649Y007232D01*
X023767Y007350D01*
X027231Y007350D01*
X028137Y007350D01*
X029436Y008650D01*
X029751Y008453D02*
X028373Y007075D01*
X025342Y007075D01*
X025184Y007508D02*
X025302Y007626D01*
X025342Y007626D01*
X027192Y009476D01*
X030105Y009476D01*
X030184Y009398D01*
X030184Y009791D02*
X029318Y009791D01*
X029279Y009752D01*
X029161Y009201D02*
X029751Y009201D01*
X030105Y008925D02*
X027074Y008925D01*
X025184Y007508D02*
X019161Y007508D01*
X017468Y005815D01*
X016444Y005028D02*
X024790Y005028D01*
X024987Y005224D01*
X025657Y005461D02*
X025755Y005559D01*
X025145Y004673D02*
X026050Y003768D01*
X028294Y005736D02*
X029003Y005736D01*
X028255Y006366D02*
X028688Y006799D01*
X028727Y006799D01*
X029948Y006799D01*
X030184Y007035D01*
X028255Y006366D02*
X022940Y006366D01*
X021956Y006642D02*
X024200Y006642D01*
X022979Y007862D02*
X024200Y009083D01*
X022979Y008256D02*
X022783Y008059D01*
X019042Y008059D01*
X018885Y007783D02*
X018609Y008059D01*
X018885Y007783D02*
X020027Y007783D01*
X019318Y007232D02*
X019554Y006996D01*
X021090Y006996D01*
X021562Y006248D02*
X021956Y006642D01*
X021562Y006248D02*
X020893Y006248D01*
X019515Y005539D02*
X015853Y005539D01*
X015735Y005421D01*
X016444Y005028D02*
X015893Y004476D01*
X019672Y003728D02*
X022901Y003728D01*
X020027Y008807D02*
X019397Y009437D01*
X019515Y010382D02*
X019397Y010500D01*
X020696Y011720D02*
X021483Y011720D01*
X024869Y015106D01*
X024869Y014713D02*
X025302Y014280D01*
X025302Y012626D01*
X023885Y012626D01*
X023727Y012469D01*
X023727Y012154D01*
X024003Y012350D02*
X025381Y010972D01*
X030184Y010972D01*
X030066Y011248D02*
X028019Y011248D01*
X026759Y011760D02*
X030184Y011760D01*
X030184Y012154D02*
X029200Y012154D01*
X029515Y012587D02*
X029003Y013098D01*
X029003Y013610D01*
X029003Y013807D01*
X027487Y015323D01*
X026168Y014004D01*
X027487Y015323D02*
X026129Y016681D01*
X025499Y016681D01*
X025460Y016642D01*
X029515Y012587D02*
X029554Y012587D01*
X029712Y012429D01*
X029751Y012429D01*
X030066Y012429D01*
X030184Y012547D01*
X030184Y011366D02*
X030066Y011248D01*
X030184Y009004D02*
X030105Y008925D01*
X013767Y008020D02*
X013334Y008453D01*
X012546Y016327D02*
X013452Y017232D01*
X013452Y017941D01*
X013472Y017941D01*
X013413Y017902D01*
X013019Y017902D01*
X011916Y017941D02*
X011464Y017941D01*
D17*
X011916Y017941D03*
X013019Y017902D03*
X015696Y016839D03*
X017664Y016839D03*
X019003Y018335D03*
X020972Y018335D03*
X022704Y017035D03*
X024476Y017665D03*
X025460Y016642D03*
X024869Y015106D03*
X024869Y014713D03*
X024830Y014240D03*
X026168Y014004D03*
X024003Y012350D03*
X023531Y011957D03*
X022586Y011681D03*
X022192Y011957D03*
X020696Y011720D03*
X021365Y010382D03*
X022428Y009949D03*
X022704Y010618D03*
X023531Y010618D03*
X023846Y010382D03*
X024200Y009083D03*
X025342Y008217D03*
X025342Y007626D03*
X025342Y007075D03*
X024200Y006642D03*
X023649Y007232D03*
X022979Y007862D03*
X022979Y008256D03*
X021090Y008610D03*
X020027Y008807D03*
X019397Y009437D03*
X019948Y010106D03*
X019397Y010500D03*
X019042Y008059D03*
X018609Y008059D03*
X020027Y007783D03*
X019318Y007232D03*
X020893Y006248D03*
X021090Y006996D03*
X022940Y006366D03*
X023137Y005303D03*
X023727Y005303D03*
X024987Y005224D03*
X025657Y005461D03*
X026562Y005500D03*
X027664Y005461D03*
X028294Y005736D03*
X028727Y006799D03*
X027231Y007350D03*
X029436Y008650D03*
X029751Y008453D03*
X029751Y009201D03*
X029161Y009201D03*
X029279Y009752D03*
X028019Y011248D03*
X026759Y011760D03*
X029200Y012154D03*
X029751Y012429D03*
X027074Y008925D03*
X025145Y004673D03*
X025302Y004122D03*
X026050Y003768D03*
X023334Y004004D03*
X023294Y003650D03*
X022901Y003728D03*
X020420Y004752D03*
X019633Y005303D03*
X017468Y005815D03*
X015735Y005421D03*
X015224Y004752D03*
X015893Y004476D03*
X014672Y003492D03*
X019672Y003728D03*
X011287Y008453D03*
X020224Y013728D03*
X023255Y013020D03*
X029515Y004280D03*
D18*
X023255Y013020D02*
X024476Y014240D01*
X024830Y014240D01*
X012468Y017626D02*
X012468Y017941D01*
X012468Y017626D02*
X011759Y016917D01*
X011759Y016327D01*
M02*
